%TF.GenerationSoftware,KiCad,Pcbnew,9.0.3*%
%TF.CreationDate,2025-12-16T09:58:45+01:00*%
%TF.ProjectId,PTP_Jan_Znamenacek_Project1,5054505f-4a61-46e5-9f5a-6e616d656e61,rev?*%
%TF.SameCoordinates,Original*%
%TF.FileFunction,Copper,L2,Bot*%
%TF.FilePolarity,Positive*%
%FSLAX46Y46*%
G04 Gerber Fmt 4.6, Leading zero omitted, Abs format (unit mm)*
G04 Created by KiCad (PCBNEW 9.0.3) date 2025-12-16 09:58:45*
%MOMM*%
%LPD*%
G01*
G04 APERTURE LIST*
G04 Aperture macros list*
%AMRoundRect*
0 Rectangle with rounded corners*
0 $1 Rounding radius*
0 $2 $3 $4 $5 $6 $7 $8 $9 X,Y pos of 4 corners*
0 Add a 4 corners polygon primitive as box body*
4,1,4,$2,$3,$4,$5,$6,$7,$8,$9,$2,$3,0*
0 Add four circle primitives for the rounded corners*
1,1,$1+$1,$2,$3*
1,1,$1+$1,$4,$5*
1,1,$1+$1,$6,$7*
1,1,$1+$1,$8,$9*
0 Add four rect primitives between the rounded corners*
20,1,$1+$1,$2,$3,$4,$5,0*
20,1,$1+$1,$4,$5,$6,$7,0*
20,1,$1+$1,$6,$7,$8,$9,0*
20,1,$1+$1,$8,$9,$2,$3,0*%
G04 Aperture macros list end*
%TA.AperFunction,ComponentPad*%
%ADD10C,1.600000*%
%TD*%
%TA.AperFunction,ComponentPad*%
%ADD11RoundRect,0.250000X-0.550000X-0.550000X0.550000X-0.550000X0.550000X0.550000X-0.550000X0.550000X0*%
%TD*%
%TA.AperFunction,ComponentPad*%
%ADD12RoundRect,0.250000X-0.950000X-0.550000X0.950000X-0.550000X0.950000X0.550000X-0.950000X0.550000X0*%
%TD*%
%TA.AperFunction,ComponentPad*%
%ADD13O,2.400000X1.600000*%
%TD*%
%TA.AperFunction,ComponentPad*%
%ADD14C,2.000000*%
%TD*%
%TA.AperFunction,ComponentPad*%
%ADD15RoundRect,0.250001X1.149999X-1.149999X1.149999X1.149999X-1.149999X1.149999X-1.149999X-1.149999X0*%
%TD*%
%TA.AperFunction,ComponentPad*%
%ADD16C,2.800000*%
%TD*%
%TA.AperFunction,ComponentPad*%
%ADD17R,1.800000X1.800000*%
%TD*%
%TA.AperFunction,ComponentPad*%
%ADD18C,1.800000*%
%TD*%
%TA.AperFunction,ComponentPad*%
%ADD19C,2.400000*%
%TD*%
%TA.AperFunction,ComponentPad*%
%ADD20R,1.600000X1.600000*%
%TD*%
%TA.AperFunction,ComponentPad*%
%ADD21RoundRect,0.250000X0.550000X-0.550000X0.550000X0.550000X-0.550000X0.550000X-0.550000X-0.550000X0*%
%TD*%
%TA.AperFunction,ComponentPad*%
%ADD22RoundRect,0.250000X0.550000X0.550000X-0.550000X0.550000X-0.550000X-0.550000X0.550000X-0.550000X0*%
%TD*%
%TA.AperFunction,ComponentPad*%
%ADD23O,3.500000X2.200000*%
%TD*%
%TA.AperFunction,ComponentPad*%
%ADD24R,2.500000X1.500000*%
%TD*%
%TA.AperFunction,ComponentPad*%
%ADD25O,2.500000X1.500000*%
%TD*%
%TA.AperFunction,ComponentPad*%
%ADD26RoundRect,0.249999X0.850001X-0.850001X0.850001X0.850001X-0.850001X0.850001X-0.850001X-0.850001X0*%
%TD*%
%TA.AperFunction,ComponentPad*%
%ADD27C,2.200000*%
%TD*%
%TA.AperFunction,ViaPad*%
%ADD28C,0.700000*%
%TD*%
%TA.AperFunction,Conductor*%
%ADD29C,0.300000*%
%TD*%
G04 APERTURE END LIST*
D10*
%TO.P,C2,2*%
%TO.N,GND*%
X108277500Y-110667500D03*
D11*
%TO.P,C2,1*%
%TO.N,+5V*%
X106277500Y-110667500D03*
%TD*%
D10*
%TO.P,U7,8,VCC*%
%TO.N,+5V*%
X161092500Y-119857500D03*
%TO.P,U7,7,DIS*%
%TO.N,Net-(U7-DIS)*%
X161092500Y-122397500D03*
%TO.P,U7,6,THR*%
%TO.N,Net-(U7-THR)*%
X161092500Y-124937500D03*
%TO.P,U7,5,CV*%
%TO.N,unconnected-(U7-CV-Pad5)*%
X161092500Y-127477500D03*
%TO.P,U7,4,R*%
%TO.N,+5V*%
X153472500Y-127477500D03*
%TO.P,U7,3,Q*%
%TO.N,555*%
X153472500Y-124937500D03*
%TO.P,U7,2,TR*%
%TO.N,Net-(U7-THR)*%
X153472500Y-122397500D03*
D11*
%TO.P,U7,1,GND*%
%TO.N,GND*%
X153472500Y-119857500D03*
%TD*%
D12*
%TO.P,U3,1,Q*%
%TO.N,Q0*%
X129847500Y-87610000D03*
D13*
%TO.P,U3,2,~{Q}*%
%TO.N,unconnected-(U3A-~{Q}-Pad2)*%
X129847500Y-90150000D03*
%TO.P,U3,3,C*%
%TO.N,Clock*%
X129847500Y-92690000D03*
%TO.P,U3,4,R*%
%TO.N,Reset*%
X129847500Y-95230000D03*
%TO.P,U3,5,K*%
%TO.N,Net-(U3A-J)*%
X129847500Y-97770000D03*
%TO.P,U3,6,J*%
X129847500Y-100310000D03*
%TO.P,U3,7,S*%
%TO.N,GND*%
X129847500Y-102850000D03*
%TO.P,U3,8,VSS*%
X129847500Y-105390000D03*
%TO.P,U3,9,S*%
X137467500Y-105390000D03*
%TO.P,U3,10,J*%
%TO.N,Net-(U3B-J)*%
X137467500Y-102850000D03*
%TO.P,U3,11,K*%
X137467500Y-100310000D03*
%TO.P,U3,12,R*%
%TO.N,Reset*%
X137467500Y-97770000D03*
%TO.P,U3,13,C*%
%TO.N,Q0*%
X137467500Y-95230000D03*
%TO.P,U3,14,~{Q}*%
%TO.N,unconnected-(U3B-~{Q}-Pad14)*%
X137467500Y-92690000D03*
%TO.P,U3,15,Q*%
%TO.N,Q1*%
X137467500Y-90150000D03*
%TO.P,U3,16,VDD*%
%TO.N,+5V*%
X137467500Y-87610000D03*
%TD*%
D14*
%TO.P,SW1,1,1*%
%TO.N,GND*%
X123027500Y-121417500D03*
X129527500Y-121417500D03*
%TO.P,SW1,2,2*%
%TO.N,Net-(R13-Pad1)*%
X123027500Y-125917500D03*
X129527500Y-125917500D03*
%TD*%
D15*
%TO.P,J1,1,Pin_1*%
%TO.N,GND*%
X111277500Y-79667500D03*
D16*
%TO.P,J1,2,Pin_2*%
%TO.N,VD*%
X111277500Y-74667500D03*
%TD*%
D17*
%TO.P,D2,1,K*%
%TO.N,Net-(D2-K)*%
X137277500Y-74127500D03*
D18*
%TO.P,D2,2,A*%
%TO.N,Q1*%
X137277500Y-76667500D03*
%TD*%
D17*
%TO.P,D3,1,K*%
%TO.N,Net-(D3-K)*%
X163277500Y-74667500D03*
D18*
%TO.P,D3,2,A*%
%TO.N,Q2*%
X163277500Y-77207500D03*
%TD*%
D19*
%TO.P,L1,1,1*%
%TO.N,Net-(D4-K)*%
X119277500Y-110667500D03*
%TO.P,L1,2,2*%
%TO.N,+5V*%
X116277500Y-110667500D03*
%TD*%
D10*
%TO.P,R3,1*%
%TO.N,Net-(D3-K)*%
X163277500Y-69747500D03*
%TO.P,R3,2*%
%TO.N,GND*%
X163277500Y-59587500D03*
%TD*%
D17*
%TO.P,D1,1,K*%
%TO.N,Net-(D1-K)*%
X175277500Y-74667500D03*
D18*
%TO.P,D1,2,A*%
%TO.N,Q0*%
X175277500Y-77207500D03*
%TD*%
D12*
%TO.P,U2,1,B*%
%TO.N,Q1*%
X158657500Y-87587500D03*
D13*
%TO.P,U2,2,C*%
%TO.N,Q2*%
X158657500Y-90127500D03*
%TO.P,U2,3,LT*%
%TO.N,Net-(U2-BI)*%
X158657500Y-92667500D03*
%TO.P,U2,4,BI*%
X158657500Y-95207500D03*
%TO.P,U2,5,RBI*%
X158657500Y-97747500D03*
%TO.P,U2,6,D*%
%TO.N,Q3*%
X158657500Y-100287500D03*
%TO.P,U2,7,A*%
%TO.N,Q0*%
X158657500Y-102827500D03*
%TO.P,U2,8,GND*%
%TO.N,GND*%
X158657500Y-105367500D03*
%TO.P,U2,9,e*%
%TO.N,Net-(U2-e)*%
X166277500Y-105367500D03*
%TO.P,U2,10,d*%
%TO.N,Net-(U2-d)*%
X166277500Y-102827500D03*
%TO.P,U2,11,c*%
%TO.N,Net-(U2-c)*%
X166277500Y-100287500D03*
%TO.P,U2,12,b*%
%TO.N,Net-(U2-b)*%
X166277500Y-97747500D03*
%TO.P,U2,13,a*%
%TO.N,Net-(U2-a)*%
X166277500Y-95207500D03*
%TO.P,U2,14,g*%
%TO.N,Net-(U2-g)*%
X166277500Y-92667500D03*
%TO.P,U2,15,f*%
%TO.N,Net-(U2-f)*%
X166277500Y-90127500D03*
%TO.P,U2,16,VCC*%
%TO.N,+5V*%
X166277500Y-87587500D03*
%TD*%
D12*
%TO.P,U4,1,Q*%
%TO.N,Q2*%
X144847500Y-87610000D03*
D13*
%TO.P,U4,2,~{Q}*%
%TO.N,unconnected-(U4A-~{Q}-Pad2)*%
X144847500Y-90150000D03*
%TO.P,U4,3,C*%
%TO.N,Q1*%
X144847500Y-92690000D03*
%TO.P,U4,4,R*%
%TO.N,Reset*%
X144847500Y-95230000D03*
%TO.P,U4,5,K*%
%TO.N,Net-(U4A-J)*%
X144847500Y-97770000D03*
%TO.P,U4,6,J*%
X144847500Y-100310000D03*
%TO.P,U4,7,S*%
%TO.N,GND*%
X144847500Y-102850000D03*
%TO.P,U4,8,VSS*%
X144847500Y-105390000D03*
%TO.P,U4,9,S*%
X152467500Y-105390000D03*
%TO.P,U4,10,J*%
%TO.N,Net-(U4B-J)*%
X152467500Y-102850000D03*
%TO.P,U4,11,K*%
X152467500Y-100310000D03*
%TO.P,U4,12,R*%
%TO.N,Reset*%
X152467500Y-97770000D03*
%TO.P,U4,13,C*%
%TO.N,Q2*%
X152467500Y-95230000D03*
%TO.P,U4,14,~{Q}*%
%TO.N,unconnected-(U4B-~{Q}-Pad14)*%
X152467500Y-92690000D03*
%TO.P,U4,15,Q*%
%TO.N,Q3*%
X152467500Y-90150000D03*
%TO.P,U4,16,VDD*%
%TO.N,+5V*%
X152467500Y-87610000D03*
%TD*%
D20*
%TO.P,U5,1,CA*%
%TO.N,+5V*%
X182000000Y-90460000D03*
D10*
%TO.P,U5,2,F*%
%TO.N,Net-(U5-F)*%
X182000000Y-93000000D03*
%TO.P,U5,3,G*%
%TO.N,Net-(U5-G)*%
X182000000Y-95540000D03*
%TO.P,U5,4,E*%
%TO.N,Net-(U5-E)*%
X182000000Y-98080000D03*
%TO.P,U5,5,D*%
%TO.N,Net-(U5-D)*%
X182000000Y-100620000D03*
%TO.P,U5,6,CA*%
%TO.N,+5V*%
X187080000Y-100620000D03*
%TO.P,U5,7,DP*%
%TO.N,unconnected-(U5-DP-Pad7)*%
X187080000Y-98080000D03*
%TO.P,U5,8,C*%
%TO.N,Net-(U5-C)*%
X187080000Y-95540000D03*
%TO.P,U5,9,B*%
%TO.N,Net-(U5-B)*%
X187080000Y-93000000D03*
%TO.P,U5,10,A*%
%TO.N,Net-(U5-A)*%
X187080000Y-90460000D03*
%TD*%
D21*
%TO.P,U1,1,FB*%
%TO.N,+5V*%
X105657500Y-104287500D03*
D10*
%TO.P,U1,2,SGND*%
%TO.N,GND*%
X108197500Y-104287500D03*
%TO.P,U1,3,~{ON}/OFF*%
X110737500Y-104287500D03*
%TO.P,U1,4,PGND*%
X113277500Y-104287500D03*
%TO.P,U1,5,VIN*%
%TO.N,VD*%
X113277500Y-96667500D03*
%TO.P,U1,6,NC*%
%TO.N,unconnected-(U1-NC-Pad6)*%
X110737500Y-96667500D03*
%TO.P,U1,7,OUT*%
%TO.N,Net-(D4-K)*%
X108197500Y-96667500D03*
%TO.P,U1,8,NC*%
%TO.N,unconnected-(U1-NC-Pad8)*%
X105657500Y-96667500D03*
%TD*%
D17*
%TO.P,D5,1,K*%
%TO.N,Net-(D5-K)*%
X150277500Y-74127500D03*
D18*
%TO.P,D5,2,A*%
%TO.N,Q3*%
X150277500Y-76667500D03*
%TD*%
D22*
%TO.P,C1,1*%
%TO.N,VD*%
X113750000Y-89250000D03*
D10*
%TO.P,C1,2*%
%TO.N,GND*%
X111750000Y-89250000D03*
%TD*%
D23*
%TO.P,SW2,*%
%TO.N,*%
X145980000Y-119567500D03*
X145980000Y-127767500D03*
D24*
%TO.P,SW2,1,B*%
%TO.N,Clock*%
X145980000Y-121667500D03*
D25*
%TO.P,SW2,2,C*%
%TO.N,555*%
X145980000Y-123667500D03*
%TO.P,SW2,3,A*%
%TO.N,Net-(SW2-A)*%
X145980000Y-125667500D03*
%TD*%
D10*
%TO.P,R4,1*%
%TO.N,Net-(D5-K)*%
X150277500Y-69747500D03*
%TO.P,R4,2*%
%TO.N,GND*%
X150277500Y-59587500D03*
%TD*%
%TO.P,R2,1*%
%TO.N,Net-(D2-K)*%
X137277500Y-69747500D03*
%TO.P,R2,2*%
%TO.N,GND*%
X137277500Y-59587500D03*
%TD*%
D26*
%TO.P,D4,1,K*%
%TO.N,Net-(D4-K)*%
X119277500Y-102017500D03*
D27*
%TO.P,D4,2,A*%
%TO.N,GND*%
X119277500Y-89317500D03*
%TD*%
D10*
%TO.P,R1,1*%
%TO.N,Net-(D1-K)*%
X175277500Y-69667500D03*
%TO.P,R1,2*%
%TO.N,GND*%
X175277500Y-59507500D03*
%TD*%
D28*
%TO.N,Q1*%
X137250000Y-115500000D03*
X139250000Y-115500000D03*
%TO.N,Net-(U7-THR)*%
X158250000Y-124250000D03*
X156750000Y-122750000D03*
%TO.N,+5V*%
X185500000Y-93500000D03*
X185500000Y-95000000D03*
%TO.N,Q0*%
X135250000Y-93500000D03*
X133250000Y-93500000D03*
%TO.N,Q1*%
X147750000Y-104700000D03*
X147000000Y-93379000D03*
X147750000Y-103300000D03*
X146970025Y-95959975D03*
%TO.N,Q3*%
X154750000Y-90250000D03*
X154750000Y-99250000D03*
%TO.N,Net-(U3A-J)*%
X132630025Y-96869975D03*
X133750000Y-95750000D03*
%TO.N,Net-(U3B-J)*%
X142500000Y-91750000D03*
X142500000Y-96000000D03*
%TO.N,Net-(U4A-J)*%
X147050000Y-100250000D03*
X162997525Y-97497525D03*
%TO.N,Net-(U4B-J)*%
X156500000Y-101000000D03*
X155668775Y-83418775D03*
%TO.N,Net-(U2-BI)*%
X161122525Y-99372525D03*
X161112475Y-101362475D03*
%TD*%
D29*
%TO.N,Q1*%
X137250000Y-115500000D02*
X139250000Y-115500000D01*
%TO.N,Net-(U7-THR)*%
X156750000Y-122750000D02*
X158250000Y-124250000D01*
%TO.N,+5V*%
X185500000Y-95000000D02*
X185500000Y-93500000D01*
%TO.N,Q0*%
X135250000Y-93500000D02*
X133250000Y-93500000D01*
%TO.N,Q1*%
X147750000Y-104700000D02*
X147750000Y-103300000D01*
X146970025Y-95959975D02*
X146970025Y-93408975D01*
X146970025Y-93408975D02*
X147000000Y-93379000D01*
%TO.N,Q3*%
X154750000Y-90250000D02*
X154750000Y-99250000D01*
%TO.N,Net-(U3A-J)*%
X132630025Y-96869975D02*
X133750000Y-95750000D01*
%TO.N,Net-(U3B-J)*%
X142500000Y-96000000D02*
X142500000Y-91750000D01*
%TO.N,Net-(U4A-J)*%
X150250000Y-106250000D02*
X151750000Y-107750000D01*
X151750000Y-107750000D02*
X160500000Y-107750000D01*
X150250000Y-103450000D02*
X150250000Y-106250000D01*
X162997525Y-105252475D02*
X160500000Y-107750000D01*
X150250000Y-103450000D02*
X147050000Y-100250000D01*
X162997525Y-97497525D02*
X162997525Y-105252475D01*
%TO.N,Net-(U4B-J)*%
X156500000Y-101000000D02*
X156500000Y-84250000D01*
X156500000Y-84250000D02*
X155668775Y-83418775D01*
%TO.N,Net-(U2-BI)*%
X161112475Y-101362475D02*
X161112475Y-99382575D01*
X161112475Y-99382575D02*
X161122525Y-99372525D01*
%TD*%
%TA.AperFunction,Conductor*%
%TO.N,GND*%
G36*
X145097500Y-105074314D02*
G01*
X145093106Y-105069920D01*
X145001894Y-105017259D01*
X144900161Y-104990000D01*
X144794839Y-104990000D01*
X144693106Y-105017259D01*
X144601894Y-105069920D01*
X144597500Y-105074314D01*
X144597500Y-103165686D01*
X144601894Y-103170080D01*
X144693106Y-103222741D01*
X144794839Y-103250000D01*
X144900161Y-103250000D01*
X145001894Y-103222741D01*
X145093106Y-103170080D01*
X145097500Y-103165686D01*
X145097500Y-105074314D01*
G37*
%TD.AperFunction*%
%TA.AperFunction,Conductor*%
G36*
X130097500Y-105074314D02*
G01*
X130093106Y-105069920D01*
X130001894Y-105017259D01*
X129900161Y-104990000D01*
X129794839Y-104990000D01*
X129693106Y-105017259D01*
X129601894Y-105069920D01*
X129597500Y-105074314D01*
X129597500Y-103165686D01*
X129601894Y-103170080D01*
X129693106Y-103222741D01*
X129794839Y-103250000D01*
X129900161Y-103250000D01*
X130001894Y-103222741D01*
X130093106Y-103170080D01*
X130097500Y-103165686D01*
X130097500Y-105074314D01*
G37*
%TD.AperFunction*%
%TA.AperFunction,Conductor*%
G36*
X198693039Y-57769685D02*
G01*
X198738794Y-57822489D01*
X198750000Y-57874000D01*
X198750000Y-133626320D01*
X198730315Y-133693359D01*
X198677511Y-133739114D01*
X198626321Y-133750320D01*
X102374321Y-133999677D01*
X102307231Y-133980166D01*
X102261339Y-133927481D01*
X102250000Y-133875677D01*
X102250000Y-127498991D01*
X105277000Y-127498991D01*
X105277000Y-127836008D01*
X105314731Y-128170881D01*
X105314733Y-128170897D01*
X105389723Y-128499453D01*
X105389727Y-128499465D01*
X105501032Y-128817554D01*
X105647252Y-129121183D01*
X105647254Y-129121186D01*
X105826554Y-129406539D01*
X106036675Y-129670023D01*
X106274977Y-129908325D01*
X106538461Y-130118446D01*
X106823814Y-130297746D01*
X107127449Y-130443969D01*
X107366348Y-130527563D01*
X107445534Y-130555272D01*
X107445546Y-130555276D01*
X107774106Y-130630267D01*
X108108992Y-130667999D01*
X108108993Y-130668000D01*
X108108996Y-130668000D01*
X108446007Y-130668000D01*
X108446007Y-130667999D01*
X108780894Y-130630267D01*
X109109454Y-130555276D01*
X109427551Y-130443969D01*
X109731186Y-130297746D01*
X110016539Y-130118446D01*
X110280023Y-129908325D01*
X110518325Y-129670023D01*
X110728446Y-129406539D01*
X110907746Y-129121186D01*
X111053969Y-128817551D01*
X111165276Y-128499454D01*
X111240267Y-128170894D01*
X111278000Y-127836004D01*
X111278000Y-127498996D01*
X111240267Y-127164106D01*
X111165276Y-126835546D01*
X111053969Y-126517449D01*
X110907746Y-126213814D01*
X110795761Y-126035592D01*
X110728447Y-125928462D01*
X110716120Y-125913005D01*
X110683298Y-125871847D01*
X110683298Y-125871846D01*
X110625526Y-125799402D01*
X121527000Y-125799402D01*
X121527000Y-126035597D01*
X121563946Y-126268868D01*
X121636933Y-126493496D01*
X121664046Y-126546707D01*
X121744157Y-126703933D01*
X121882983Y-126895010D01*
X122049990Y-127062017D01*
X122241067Y-127200843D01*
X122340491Y-127251502D01*
X122451503Y-127308066D01*
X122451505Y-127308066D01*
X122451508Y-127308068D01*
X122571912Y-127347189D01*
X122676131Y-127381053D01*
X122909403Y-127418000D01*
X122909408Y-127418000D01*
X123145597Y-127418000D01*
X123378868Y-127381053D01*
X123603492Y-127308068D01*
X123813933Y-127200843D01*
X124005010Y-127062017D01*
X124172017Y-126895010D01*
X124310843Y-126703933D01*
X124418068Y-126493492D01*
X124491053Y-126268868D01*
X124499773Y-126213814D01*
X124528000Y-126035597D01*
X124528000Y-125799402D01*
X128027000Y-125799402D01*
X128027000Y-126035597D01*
X128063946Y-126268868D01*
X128136933Y-126493496D01*
X128164046Y-126546707D01*
X128244157Y-126703933D01*
X128382983Y-126895010D01*
X128549990Y-127062017D01*
X128741067Y-127200843D01*
X128840491Y-127251502D01*
X128951503Y-127308066D01*
X128951505Y-127308066D01*
X128951508Y-127308068D01*
X129071912Y-127347189D01*
X129176131Y-127381053D01*
X129409403Y-127418000D01*
X129409408Y-127418000D01*
X129645597Y-127418000D01*
X129878868Y-127381053D01*
X130103492Y-127308068D01*
X130313933Y-127200843D01*
X130505010Y-127062017D01*
X130672017Y-126895010D01*
X130810843Y-126703933D01*
X130918068Y-126493492D01*
X130991053Y-126268868D01*
X130999773Y-126213814D01*
X131028000Y-126035597D01*
X131028000Y-125799402D01*
X130991053Y-125566131D01*
X130949004Y-125436719D01*
X130918068Y-125341508D01*
X130918066Y-125341505D01*
X130918066Y-125341503D01*
X130810842Y-125131066D01*
X130672017Y-124939990D01*
X130505010Y-124772983D01*
X130313933Y-124634157D01*
X130288755Y-124621328D01*
X130103496Y-124526933D01*
X129878868Y-124453946D01*
X129645597Y-124417000D01*
X129645592Y-124417000D01*
X129409408Y-124417000D01*
X129409403Y-124417000D01*
X129176131Y-124453946D01*
X128951503Y-124526933D01*
X128741066Y-124634157D01*
X128643928Y-124704733D01*
X128549990Y-124772983D01*
X128549988Y-124772985D01*
X128549987Y-124772985D01*
X128382985Y-124939987D01*
X128382985Y-124939988D01*
X128382983Y-124939990D01*
X128323362Y-125022050D01*
X128244157Y-125131066D01*
X128136933Y-125341503D01*
X128063946Y-125566131D01*
X128027000Y-125799402D01*
X124528000Y-125799402D01*
X124491053Y-125566131D01*
X124449004Y-125436719D01*
X124418068Y-125341508D01*
X124418066Y-125341505D01*
X124418066Y-125341503D01*
X124310842Y-125131066D01*
X124172017Y-124939990D01*
X124005010Y-124772983D01*
X123813933Y-124634157D01*
X123788755Y-124621328D01*
X123603496Y-124526933D01*
X123378868Y-124453946D01*
X123145597Y-124417000D01*
X123145592Y-124417000D01*
X122909408Y-124417000D01*
X122909403Y-124417000D01*
X122676131Y-124453946D01*
X122451503Y-124526933D01*
X122241066Y-124634157D01*
X122143928Y-124704733D01*
X122049990Y-124772983D01*
X122049988Y-124772985D01*
X122049987Y-124772985D01*
X121882985Y-124939987D01*
X121882985Y-124939988D01*
X121882983Y-124939990D01*
X121823362Y-125022050D01*
X121744157Y-125131066D01*
X121636933Y-125341503D01*
X121563946Y-125566131D01*
X121527000Y-125799402D01*
X110625526Y-125799402D01*
X110518331Y-125664983D01*
X110280022Y-125426674D01*
X110173220Y-125341503D01*
X110016539Y-125216554D01*
X109731186Y-125037254D01*
X109731183Y-125037252D01*
X109427554Y-124891032D01*
X109109465Y-124779727D01*
X109109453Y-124779723D01*
X108780897Y-124704733D01*
X108780881Y-124704731D01*
X108446008Y-124667000D01*
X108446004Y-124667000D01*
X108108996Y-124667000D01*
X108108991Y-124667000D01*
X107774118Y-124704731D01*
X107774102Y-124704733D01*
X107445546Y-124779723D01*
X107445534Y-124779727D01*
X107127445Y-124891032D01*
X106823816Y-125037252D01*
X106538462Y-125216553D01*
X106274977Y-125426674D01*
X106036674Y-125664977D01*
X105826553Y-125928462D01*
X105647252Y-126213816D01*
X105501032Y-126517445D01*
X105389727Y-126835534D01*
X105389723Y-126835546D01*
X105314733Y-127164102D01*
X105314731Y-127164118D01*
X105277000Y-127498991D01*
X102250000Y-127498991D01*
X102250000Y-121299447D01*
X121527500Y-121299447D01*
X121527500Y-121535552D01*
X121564434Y-121768747D01*
X121637397Y-121993302D01*
X121744587Y-122203674D01*
X121804838Y-122286604D01*
X121804840Y-122286605D01*
X122503712Y-121587733D01*
X122514982Y-121629792D01*
X122587390Y-121755208D01*
X122689792Y-121857610D01*
X122815208Y-121930018D01*
X122857265Y-121941287D01*
X122158393Y-122640158D01*
X122241328Y-122700414D01*
X122451697Y-122807602D01*
X122676252Y-122880565D01*
X122676251Y-122880565D01*
X122909448Y-122917500D01*
X123145552Y-122917500D01*
X123378747Y-122880565D01*
X123603302Y-122807602D01*
X123813663Y-122700418D01*
X123813669Y-122700414D01*
X123896604Y-122640158D01*
X123896605Y-122640158D01*
X123197733Y-121941287D01*
X123239792Y-121930018D01*
X123365208Y-121857610D01*
X123467610Y-121755208D01*
X123540018Y-121629792D01*
X123551287Y-121587734D01*
X124250158Y-122286605D01*
X124250158Y-122286604D01*
X124310414Y-122203669D01*
X124310418Y-122203663D01*
X124417602Y-121993302D01*
X124490565Y-121768747D01*
X124527500Y-121535552D01*
X124527500Y-121299447D01*
X128027500Y-121299447D01*
X128027500Y-121535552D01*
X128064434Y-121768747D01*
X128137397Y-121993302D01*
X128244587Y-122203674D01*
X128304838Y-122286604D01*
X128304840Y-122286605D01*
X129003712Y-121587733D01*
X129014982Y-121629792D01*
X129087390Y-121755208D01*
X129189792Y-121857610D01*
X129315208Y-121930018D01*
X129357265Y-121941287D01*
X128658393Y-122640158D01*
X128741328Y-122700414D01*
X128951697Y-122807602D01*
X129176252Y-122880565D01*
X129176251Y-122880565D01*
X129409448Y-122917500D01*
X129645552Y-122917500D01*
X129878747Y-122880565D01*
X130103302Y-122807602D01*
X130313663Y-122700418D01*
X130313669Y-122700414D01*
X130396604Y-122640158D01*
X130396605Y-122640158D01*
X129697733Y-121941287D01*
X129739792Y-121930018D01*
X129865208Y-121857610D01*
X129967610Y-121755208D01*
X130040018Y-121629792D01*
X130051287Y-121587734D01*
X130750158Y-122286605D01*
X130750158Y-122286604D01*
X130810414Y-122203669D01*
X130810418Y-122203663D01*
X130917602Y-121993302D01*
X130990565Y-121768747D01*
X131027500Y-121535552D01*
X131027500Y-121299447D01*
X130990565Y-121066252D01*
X130917602Y-120841697D01*
X130810414Y-120631328D01*
X130750158Y-120548394D01*
X130750158Y-120548393D01*
X130051287Y-121247265D01*
X130040018Y-121205208D01*
X129967610Y-121079792D01*
X129865208Y-120977390D01*
X129739792Y-120904982D01*
X129697734Y-120893712D01*
X130396605Y-120194840D01*
X130396604Y-120194838D01*
X130313674Y-120134587D01*
X130103302Y-120027397D01*
X129878747Y-119954434D01*
X129878748Y-119954434D01*
X129645552Y-119917500D01*
X129409448Y-119917500D01*
X129176252Y-119954434D01*
X128951697Y-120027397D01*
X128741330Y-120134584D01*
X128658394Y-120194840D01*
X129357266Y-120893712D01*
X129315208Y-120904982D01*
X129189792Y-120977390D01*
X129087390Y-121079792D01*
X129014982Y-121205208D01*
X129003712Y-121247266D01*
X128304840Y-120548394D01*
X128244584Y-120631330D01*
X128137397Y-120841697D01*
X128064434Y-121066252D01*
X128027500Y-121299447D01*
X124527500Y-121299447D01*
X124490565Y-121066252D01*
X124417602Y-120841697D01*
X124310414Y-120631328D01*
X124250158Y-120548394D01*
X124250158Y-120548393D01*
X123551287Y-121247265D01*
X123540018Y-121205208D01*
X123467610Y-121079792D01*
X123365208Y-120977390D01*
X123239792Y-120904982D01*
X123197734Y-120893712D01*
X123896605Y-120194840D01*
X123896604Y-120194839D01*
X123813674Y-120134587D01*
X123603302Y-120027397D01*
X123378747Y-119954434D01*
X123378748Y-119954434D01*
X123145552Y-119917500D01*
X122909448Y-119917500D01*
X122676252Y-119954434D01*
X122451697Y-120027397D01*
X122241330Y-120134584D01*
X122158394Y-120194840D01*
X122857266Y-120893712D01*
X122815208Y-120904982D01*
X122689792Y-120977390D01*
X122587390Y-121079792D01*
X122514982Y-121205208D01*
X122503712Y-121247266D01*
X121804840Y-120548394D01*
X121744584Y-120631330D01*
X121637397Y-120841697D01*
X121564434Y-121066252D01*
X121527500Y-121299447D01*
X102250000Y-121299447D01*
X102250000Y-119441538D01*
X143729500Y-119441538D01*
X143729500Y-119693462D01*
X143735426Y-119730877D01*
X143768910Y-119942285D01*
X143846760Y-120181883D01*
X143961132Y-120406348D01*
X144109201Y-120610149D01*
X144109205Y-120610154D01*
X144201061Y-120702010D01*
X144234546Y-120763333D01*
X144236669Y-120802946D01*
X144229501Y-120869616D01*
X144229500Y-120869635D01*
X144229500Y-122465370D01*
X144229501Y-122465376D01*
X144235908Y-122524983D01*
X144286202Y-122659828D01*
X144286206Y-122659835D01*
X144372451Y-122775043D01*
X144372452Y-122775044D01*
X144372454Y-122775046D01*
X144410777Y-122803734D01*
X144452647Y-122859667D01*
X144457631Y-122929359D01*
X144436784Y-122975885D01*
X144410475Y-123012095D01*
X144321117Y-123187470D01*
X144260290Y-123374673D01*
X144229500Y-123569077D01*
X144229500Y-123765922D01*
X144260290Y-123960326D01*
X144321117Y-124147529D01*
X144376328Y-124255886D01*
X144410476Y-124322905D01*
X144526172Y-124482146D01*
X144526174Y-124482148D01*
X144623845Y-124579819D01*
X144657330Y-124641142D01*
X144652346Y-124710834D01*
X144623845Y-124755181D01*
X144526174Y-124852851D01*
X144526174Y-124852852D01*
X144526172Y-124852854D01*
X144498435Y-124891031D01*
X144410476Y-125012094D01*
X144321117Y-125187470D01*
X144260290Y-125374673D01*
X144229500Y-125569077D01*
X144229500Y-125765922D01*
X144260290Y-125960326D01*
X144321117Y-126147529D01*
X144412352Y-126326587D01*
X144425248Y-126395257D01*
X144398971Y-126459997D01*
X144374753Y-126483199D01*
X144287350Y-126546702D01*
X144287341Y-126546709D01*
X144109205Y-126724845D01*
X144109201Y-126724850D01*
X143961132Y-126928651D01*
X143846760Y-127153116D01*
X143768910Y-127392714D01*
X143729500Y-127641538D01*
X143729500Y-127893461D01*
X143768910Y-128142285D01*
X143846760Y-128381883D01*
X143891389Y-128469471D01*
X143952693Y-128589787D01*
X143961132Y-128606348D01*
X144109201Y-128810149D01*
X144109205Y-128810154D01*
X144287345Y-128988294D01*
X144287350Y-128988298D01*
X144465117Y-129117452D01*
X144491155Y-129136370D01*
X144634184Y-129209247D01*
X144715616Y-129250739D01*
X144715618Y-129250739D01*
X144715621Y-129250741D01*
X144955215Y-129328590D01*
X145204038Y-129368000D01*
X145204039Y-129368000D01*
X146755961Y-129368000D01*
X146755962Y-129368000D01*
X147004785Y-129328590D01*
X147244379Y-129250741D01*
X147468845Y-129136370D01*
X147672656Y-128988293D01*
X147850793Y-128810156D01*
X147998870Y-128606345D01*
X148113241Y-128381879D01*
X148191090Y-128142285D01*
X148230500Y-127893462D01*
X148230500Y-127641538D01*
X148191090Y-127392715D01*
X148113241Y-127153121D01*
X148113239Y-127153118D01*
X148113239Y-127153116D01*
X148066820Y-127062014D01*
X147998870Y-126928655D01*
X147902408Y-126795886D01*
X147850798Y-126724850D01*
X147850794Y-126724845D01*
X147672658Y-126546709D01*
X147672656Y-126546707D01*
X147585245Y-126483199D01*
X147542581Y-126427870D01*
X147536602Y-126358256D01*
X147547647Y-126326587D01*
X147549520Y-126322909D01*
X147549524Y-126322905D01*
X147638884Y-126147525D01*
X147699709Y-125960326D01*
X147704756Y-125928461D01*
X147730500Y-125765922D01*
X147730500Y-125569077D01*
X147699709Y-125374673D01*
X147638882Y-125187470D01*
X147591743Y-125094955D01*
X147549524Y-125012095D01*
X147433828Y-124852854D01*
X147336155Y-124755181D01*
X147302670Y-124693858D01*
X147307654Y-124624166D01*
X147336155Y-124579819D01*
X147433828Y-124482146D01*
X147549524Y-124322905D01*
X147638884Y-124147525D01*
X147699709Y-123960326D01*
X147717636Y-123847139D01*
X147730500Y-123765922D01*
X147730500Y-123569077D01*
X147699709Y-123374673D01*
X147638882Y-123187470D01*
X147549521Y-123012090D01*
X147523217Y-122975886D01*
X147499736Y-122910080D01*
X147515561Y-122842026D01*
X147549219Y-122803737D01*
X147587546Y-122775046D01*
X147673796Y-122659831D01*
X147724091Y-122524983D01*
X147730500Y-122465373D01*
X147730500Y-122295148D01*
X152172000Y-122295148D01*
X152172000Y-122499851D01*
X152204022Y-122702034D01*
X152267281Y-122896723D01*
X152360215Y-123079113D01*
X152480528Y-123244713D01*
X152625286Y-123389471D01*
X152772320Y-123496295D01*
X152790890Y-123509787D01*
X152882340Y-123556383D01*
X152883580Y-123557015D01*
X152934376Y-123604990D01*
X152951171Y-123672811D01*
X152928634Y-123738946D01*
X152883580Y-123777985D01*
X152790886Y-123825215D01*
X152625286Y-123945528D01*
X152480528Y-124090286D01*
X152360215Y-124255886D01*
X152267281Y-124438276D01*
X152204022Y-124632965D01*
X152172000Y-124835148D01*
X152172000Y-125039851D01*
X152204022Y-125242034D01*
X152267281Y-125436723D01*
X152360215Y-125619113D01*
X152480528Y-125784713D01*
X152625286Y-125929471D01*
X152771352Y-126035592D01*
X152790890Y-126049787D01*
X152882340Y-126096383D01*
X152883580Y-126097015D01*
X152934376Y-126144990D01*
X152951171Y-126212811D01*
X152928634Y-126278946D01*
X152883580Y-126317985D01*
X152790886Y-126365215D01*
X152625286Y-126485528D01*
X152480528Y-126630286D01*
X152360215Y-126795886D01*
X152267281Y-126978276D01*
X152204022Y-127172965D01*
X152172000Y-127375148D01*
X152172000Y-127579851D01*
X152204022Y-127782034D01*
X152267281Y-127976723D01*
X152331191Y-128102153D01*
X152351640Y-128142285D01*
X152360215Y-128159113D01*
X152480528Y-128324713D01*
X152625286Y-128469471D01*
X152780249Y-128582056D01*
X152790890Y-128589787D01*
X152907107Y-128649003D01*
X152973276Y-128682718D01*
X152973278Y-128682718D01*
X152973281Y-128682720D01*
X153077637Y-128716627D01*
X153167965Y-128745977D01*
X153269057Y-128761988D01*
X153370148Y-128778000D01*
X153370149Y-128778000D01*
X153574851Y-128778000D01*
X153574852Y-128778000D01*
X153777034Y-128745977D01*
X153971719Y-128682720D01*
X154154110Y-128589787D01*
X154278445Y-128499453D01*
X154319713Y-128469471D01*
X154319715Y-128469468D01*
X154319719Y-128469466D01*
X154464466Y-128324719D01*
X154464468Y-128324715D01*
X154464471Y-128324713D01*
X154576225Y-128170894D01*
X154584787Y-128159110D01*
X154677720Y-127976719D01*
X154740977Y-127782034D01*
X154773000Y-127579852D01*
X154773000Y-127375148D01*
X154740977Y-127172966D01*
X154738098Y-127164106D01*
X154704927Y-127062017D01*
X154677720Y-126978281D01*
X154677718Y-126978278D01*
X154677718Y-126978276D01*
X154635291Y-126895010D01*
X154584787Y-126795890D01*
X154533174Y-126724850D01*
X154464471Y-126630286D01*
X154319713Y-126485528D01*
X154154114Y-126365215D01*
X154078302Y-126326587D01*
X154061417Y-126317983D01*
X154010623Y-126270011D01*
X153993828Y-126202190D01*
X154016365Y-126136055D01*
X154061417Y-126097016D01*
X154154110Y-126049787D01*
X154277244Y-125960326D01*
X154319713Y-125929471D01*
X154319715Y-125929468D01*
X154319719Y-125929466D01*
X154464466Y-125784719D01*
X154464468Y-125784715D01*
X154464471Y-125784713D01*
X154517232Y-125712090D01*
X154584787Y-125619110D01*
X154677720Y-125436719D01*
X154740977Y-125242034D01*
X154773000Y-125039852D01*
X154773000Y-124835148D01*
X154746368Y-124667000D01*
X154740977Y-124632965D01*
X154706524Y-124526932D01*
X154677720Y-124438281D01*
X154677718Y-124438278D01*
X154677718Y-124438276D01*
X154644003Y-124372107D01*
X154584787Y-124255890D01*
X154577056Y-124245249D01*
X154464471Y-124090286D01*
X154319713Y-123945528D01*
X154154114Y-123825215D01*
X154147506Y-123821848D01*
X154061417Y-123777983D01*
X154010623Y-123730011D01*
X153993828Y-123662190D01*
X154016365Y-123596055D01*
X154061417Y-123557016D01*
X154154110Y-123509787D01*
X154175270Y-123494413D01*
X154319713Y-123389471D01*
X154319715Y-123389468D01*
X154319719Y-123389466D01*
X154464466Y-123244719D01*
X154464468Y-123244715D01*
X154464471Y-123244713D01*
X154531205Y-123152860D01*
X154584787Y-123079110D01*
X154677720Y-122896719D01*
X154740977Y-122702034D01*
X154744379Y-122680554D01*
X154746648Y-122666228D01*
X155899500Y-122666228D01*
X155899500Y-122833771D01*
X155932182Y-122998074D01*
X155932184Y-122998082D01*
X155996295Y-123152860D01*
X156089373Y-123292162D01*
X156207837Y-123410626D01*
X156300494Y-123472537D01*
X156347137Y-123503703D01*
X156347138Y-123503703D01*
X156347139Y-123503704D01*
X156361825Y-123509787D01*
X156501918Y-123567816D01*
X156586011Y-123584543D01*
X156647218Y-123596718D01*
X156709129Y-123629102D01*
X156710708Y-123630654D01*
X157369345Y-124289291D01*
X157402830Y-124350614D01*
X157403281Y-124352781D01*
X157432182Y-124498074D01*
X157432184Y-124498082D01*
X157496295Y-124652860D01*
X157589373Y-124792162D01*
X157707837Y-124910626D01*
X157751781Y-124939988D01*
X157847137Y-125003703D01*
X158001918Y-125067816D01*
X158166228Y-125100499D01*
X158166232Y-125100500D01*
X158166233Y-125100500D01*
X158333768Y-125100500D01*
X158333769Y-125100499D01*
X158498082Y-125067816D01*
X158652863Y-125003703D01*
X158792162Y-124910626D01*
X158910626Y-124792162D01*
X159003703Y-124652863D01*
X159067816Y-124498082D01*
X159100500Y-124333767D01*
X159100500Y-124166233D01*
X159067816Y-124001918D01*
X159003703Y-123847137D01*
X158949437Y-123765922D01*
X158910626Y-123707837D01*
X158792162Y-123589373D01*
X158652860Y-123496295D01*
X158498082Y-123432184D01*
X158498074Y-123432182D01*
X158352781Y-123403281D01*
X158290870Y-123370896D01*
X158289291Y-123369345D01*
X157630654Y-122710708D01*
X157597169Y-122649385D01*
X157596718Y-122647218D01*
X157572404Y-122524983D01*
X157567816Y-122501918D01*
X157503703Y-122347137D01*
X157463256Y-122286604D01*
X157410626Y-122207837D01*
X157292162Y-122089373D01*
X157152860Y-121996295D01*
X156998082Y-121932184D01*
X156998074Y-121932182D01*
X156833771Y-121899500D01*
X156833767Y-121899500D01*
X156666233Y-121899500D01*
X156666228Y-121899500D01*
X156501925Y-121932182D01*
X156501917Y-121932184D01*
X156347139Y-121996295D01*
X156207837Y-122089373D01*
X156089373Y-122207837D01*
X155996295Y-122347139D01*
X155932184Y-122501917D01*
X155932182Y-122501925D01*
X155899500Y-122666228D01*
X154746648Y-122666228D01*
X154750685Y-122640743D01*
X154773000Y-122499851D01*
X154773000Y-122295148D01*
X154740977Y-122092965D01*
X154708594Y-121993302D01*
X154677720Y-121898281D01*
X154677718Y-121898278D01*
X154677718Y-121898276D01*
X154644003Y-121832107D01*
X154584787Y-121715890D01*
X154522234Y-121629792D01*
X154464471Y-121550286D01*
X154319717Y-121405532D01*
X154319712Y-121405528D01*
X154225551Y-121337116D01*
X154182885Y-121281786D01*
X154176906Y-121212173D01*
X154209512Y-121150378D01*
X154259433Y-121119092D01*
X154341617Y-121091859D01*
X154341624Y-121091856D01*
X154490845Y-120999815D01*
X154614815Y-120875845D01*
X154706856Y-120726624D01*
X154706858Y-120726619D01*
X154762005Y-120560197D01*
X154762006Y-120560190D01*
X154772499Y-120457486D01*
X154772500Y-120457473D01*
X154772500Y-120107500D01*
X153788186Y-120107500D01*
X153792580Y-120103106D01*
X153845241Y-120011894D01*
X153872500Y-119910161D01*
X153872500Y-119804839D01*
X153859185Y-119755148D01*
X159792000Y-119755148D01*
X159792000Y-119959851D01*
X159824022Y-120162034D01*
X159887281Y-120356723D01*
X159980215Y-120539113D01*
X160100528Y-120704713D01*
X160245286Y-120849471D01*
X160400249Y-120962056D01*
X160410890Y-120969787D01*
X160502340Y-121016383D01*
X160503580Y-121017015D01*
X160554376Y-121064990D01*
X160571171Y-121132811D01*
X160548634Y-121198946D01*
X160503580Y-121237985D01*
X160410886Y-121285215D01*
X160245286Y-121405528D01*
X160100528Y-121550286D01*
X159980215Y-121715886D01*
X159887281Y-121898276D01*
X159824022Y-122092965D01*
X159792000Y-122295148D01*
X159792000Y-122499851D01*
X159824022Y-122702034D01*
X159887281Y-122896723D01*
X159980215Y-123079113D01*
X160100528Y-123244713D01*
X160245286Y-123389471D01*
X160392320Y-123496295D01*
X160410890Y-123509787D01*
X160502340Y-123556383D01*
X160503580Y-123557015D01*
X160554376Y-123604990D01*
X160571171Y-123672811D01*
X160548634Y-123738946D01*
X160503580Y-123777985D01*
X160410886Y-123825215D01*
X160245286Y-123945528D01*
X160100528Y-124090286D01*
X159980215Y-124255886D01*
X159887281Y-124438276D01*
X159824022Y-124632965D01*
X159792000Y-124835148D01*
X159792000Y-125039851D01*
X159824022Y-125242034D01*
X159887281Y-125436723D01*
X159980215Y-125619113D01*
X160100528Y-125784713D01*
X160245286Y-125929471D01*
X160391352Y-126035592D01*
X160410890Y-126049787D01*
X160502340Y-126096383D01*
X160503580Y-126097015D01*
X160554376Y-126144990D01*
X160571171Y-126212811D01*
X160548634Y-126278946D01*
X160503580Y-126317985D01*
X160410886Y-126365215D01*
X160245286Y-126485528D01*
X160100528Y-126630286D01*
X159980215Y-126795886D01*
X159887281Y-126978276D01*
X159824022Y-127172965D01*
X159792000Y-127375148D01*
X159792000Y-127579851D01*
X159824022Y-127782034D01*
X159887281Y-127976723D01*
X159951191Y-128102153D01*
X159971640Y-128142285D01*
X159980215Y-128159113D01*
X160100528Y-128324713D01*
X160245286Y-128469471D01*
X160400249Y-128582056D01*
X160410890Y-128589787D01*
X160527107Y-128649003D01*
X160593276Y-128682718D01*
X160593278Y-128682718D01*
X160593281Y-128682720D01*
X160697637Y-128716627D01*
X160787965Y-128745977D01*
X160889057Y-128761988D01*
X160990148Y-128778000D01*
X160990149Y-128778000D01*
X161194851Y-128778000D01*
X161194852Y-128778000D01*
X161397034Y-128745977D01*
X161591719Y-128682720D01*
X161774110Y-128589787D01*
X161898445Y-128499453D01*
X161939713Y-128469471D01*
X161939715Y-128469468D01*
X161939719Y-128469466D01*
X162084466Y-128324719D01*
X162084468Y-128324715D01*
X162084471Y-128324713D01*
X162196225Y-128170894D01*
X162204787Y-128159110D01*
X162297720Y-127976719D01*
X162360977Y-127782034D01*
X162393000Y-127579852D01*
X162393000Y-127498991D01*
X189277000Y-127498991D01*
X189277000Y-127836008D01*
X189314731Y-128170881D01*
X189314733Y-128170897D01*
X189389723Y-128499453D01*
X189389727Y-128499465D01*
X189501032Y-128817554D01*
X189647252Y-129121183D01*
X189647254Y-129121186D01*
X189826554Y-129406539D01*
X190036675Y-129670023D01*
X190274977Y-129908325D01*
X190538461Y-130118446D01*
X190823814Y-130297746D01*
X191127449Y-130443969D01*
X191366348Y-130527563D01*
X191445534Y-130555272D01*
X191445546Y-130555276D01*
X191774106Y-130630267D01*
X192108992Y-130667999D01*
X192108993Y-130668000D01*
X192108996Y-130668000D01*
X192446007Y-130668000D01*
X192446007Y-130667999D01*
X192780894Y-130630267D01*
X193109454Y-130555276D01*
X193427551Y-130443969D01*
X193731186Y-130297746D01*
X194016539Y-130118446D01*
X194280023Y-129908325D01*
X194518325Y-129670023D01*
X194728446Y-129406539D01*
X194907746Y-129121186D01*
X195053969Y-128817551D01*
X195165276Y-128499454D01*
X195240267Y-128170894D01*
X195278000Y-127836004D01*
X195278000Y-127498996D01*
X195240267Y-127164106D01*
X195165276Y-126835546D01*
X195053969Y-126517449D01*
X194907746Y-126213814D01*
X194728446Y-125928461D01*
X194518325Y-125664977D01*
X194280023Y-125426675D01*
X194016539Y-125216554D01*
X193731186Y-125037254D01*
X193731183Y-125037252D01*
X193427554Y-124891032D01*
X193109465Y-124779727D01*
X193109453Y-124779723D01*
X192780897Y-124704733D01*
X192780881Y-124704731D01*
X192446008Y-124667000D01*
X192446004Y-124667000D01*
X192108996Y-124667000D01*
X192108991Y-124667000D01*
X191774118Y-124704731D01*
X191774102Y-124704733D01*
X191445546Y-124779723D01*
X191445534Y-124779727D01*
X191127445Y-124891032D01*
X190823816Y-125037252D01*
X190538462Y-125216553D01*
X190274977Y-125426674D01*
X190036674Y-125664977D01*
X189826553Y-125928462D01*
X189647252Y-126213816D01*
X189501032Y-126517445D01*
X189389727Y-126835534D01*
X189389723Y-126835546D01*
X189314733Y-127164102D01*
X189314731Y-127164118D01*
X189277000Y-127498991D01*
X162393000Y-127498991D01*
X162393000Y-127375148D01*
X162360977Y-127172966D01*
X162358098Y-127164106D01*
X162324927Y-127062017D01*
X162297720Y-126978281D01*
X162297718Y-126978278D01*
X162297718Y-126978276D01*
X162255291Y-126895010D01*
X162204787Y-126795890D01*
X162153174Y-126724850D01*
X162084471Y-126630286D01*
X161939713Y-126485528D01*
X161774114Y-126365215D01*
X161698302Y-126326587D01*
X161681417Y-126317983D01*
X161630623Y-126270011D01*
X161613828Y-126202190D01*
X161636365Y-126136055D01*
X161681417Y-126097016D01*
X161774110Y-126049787D01*
X161897244Y-125960326D01*
X161939713Y-125929471D01*
X161939715Y-125929468D01*
X161939719Y-125929466D01*
X162084466Y-125784719D01*
X162084468Y-125784715D01*
X162084471Y-125784713D01*
X162137232Y-125712090D01*
X162204787Y-125619110D01*
X162297720Y-125436719D01*
X162360977Y-125242034D01*
X162393000Y-125039852D01*
X162393000Y-124835148D01*
X162366368Y-124667000D01*
X162360977Y-124632965D01*
X162326524Y-124526932D01*
X162297720Y-124438281D01*
X162297718Y-124438278D01*
X162297718Y-124438276D01*
X162264003Y-124372107D01*
X162204787Y-124255890D01*
X162197056Y-124245249D01*
X162084471Y-124090286D01*
X161939713Y-123945528D01*
X161774114Y-123825215D01*
X161767506Y-123821848D01*
X161681417Y-123777983D01*
X161630623Y-123730011D01*
X161613828Y-123662190D01*
X161636365Y-123596055D01*
X161681417Y-123557016D01*
X161774110Y-123509787D01*
X161795270Y-123494413D01*
X161939713Y-123389471D01*
X161939715Y-123389468D01*
X161939719Y-123389466D01*
X162084466Y-123244719D01*
X162084468Y-123244715D01*
X162084471Y-123244713D01*
X162151205Y-123152860D01*
X162204787Y-123079110D01*
X162297720Y-122896719D01*
X162360977Y-122702034D01*
X162393000Y-122499852D01*
X162393000Y-122295148D01*
X162360977Y-122092966D01*
X162297720Y-121898281D01*
X162297718Y-121898278D01*
X162297718Y-121898276D01*
X162264003Y-121832107D01*
X162204787Y-121715890D01*
X162142234Y-121629792D01*
X162084471Y-121550286D01*
X161939713Y-121405528D01*
X161774114Y-121285215D01*
X161767384Y-121281786D01*
X161681417Y-121237983D01*
X161630623Y-121190011D01*
X161613828Y-121122190D01*
X161636365Y-121056055D01*
X161681417Y-121017016D01*
X161774110Y-120969787D01*
X161795270Y-120954413D01*
X161939713Y-120849471D01*
X161939715Y-120849468D01*
X161939719Y-120849466D01*
X162084466Y-120704719D01*
X162084468Y-120704715D01*
X162084471Y-120704713D01*
X162153172Y-120610152D01*
X162204787Y-120539110D01*
X162297720Y-120356719D01*
X162360977Y-120162034D01*
X162393000Y-119959852D01*
X162393000Y-119755148D01*
X162383230Y-119693461D01*
X162360977Y-119552965D01*
X162297718Y-119358276D01*
X162254655Y-119273762D01*
X162204787Y-119175890D01*
X162189466Y-119154802D01*
X162084471Y-119010286D01*
X161939713Y-118865528D01*
X161774113Y-118745215D01*
X161774112Y-118745214D01*
X161774110Y-118745213D01*
X161715175Y-118715184D01*
X161591723Y-118652281D01*
X161397034Y-118589022D01*
X161222495Y-118561378D01*
X161194852Y-118557000D01*
X160990148Y-118557000D01*
X160965829Y-118560851D01*
X160787965Y-118589022D01*
X160593276Y-118652281D01*
X160410886Y-118745215D01*
X160245286Y-118865528D01*
X160100528Y-119010286D01*
X159980215Y-119175886D01*
X159887281Y-119358276D01*
X159824022Y-119552965D01*
X159792000Y-119755148D01*
X153859185Y-119755148D01*
X153845241Y-119703106D01*
X153792580Y-119611894D01*
X153788186Y-119607500D01*
X154772499Y-119607500D01*
X154772499Y-119257528D01*
X154772498Y-119257513D01*
X154762005Y-119154802D01*
X154706858Y-118988380D01*
X154706856Y-118988375D01*
X154614815Y-118839154D01*
X154490845Y-118715184D01*
X154341624Y-118623143D01*
X154341619Y-118623141D01*
X154175197Y-118567994D01*
X154175190Y-118567993D01*
X154072486Y-118557500D01*
X153722500Y-118557500D01*
X153722500Y-119541814D01*
X153718106Y-119537420D01*
X153626894Y-119484759D01*
X153525161Y-119457500D01*
X153419839Y-119457500D01*
X153318106Y-119484759D01*
X153226894Y-119537420D01*
X153222500Y-119541814D01*
X153222500Y-118557500D01*
X152872528Y-118557500D01*
X152872512Y-118557501D01*
X152769802Y-118567994D01*
X152603380Y-118623141D01*
X152603375Y-118623143D01*
X152454154Y-118715184D01*
X152330184Y-118839154D01*
X152238143Y-118988375D01*
X152238141Y-118988380D01*
X152182994Y-119154802D01*
X152182993Y-119154809D01*
X152172500Y-119257513D01*
X152172500Y-119607500D01*
X153156814Y-119607500D01*
X153152420Y-119611894D01*
X153099759Y-119703106D01*
X153072500Y-119804839D01*
X153072500Y-119910161D01*
X153099759Y-120011894D01*
X153152420Y-120103106D01*
X153156814Y-120107500D01*
X152172501Y-120107500D01*
X152172501Y-120457486D01*
X152182994Y-120560197D01*
X152238141Y-120726619D01*
X152238143Y-120726624D01*
X152330184Y-120875845D01*
X152454154Y-120999815D01*
X152603375Y-121091856D01*
X152603382Y-121091859D01*
X152685567Y-121119092D01*
X152743012Y-121158864D01*
X152769836Y-121223380D01*
X152757521Y-121292156D01*
X152719449Y-121337116D01*
X152625287Y-121405528D01*
X152625282Y-121405532D01*
X152480528Y-121550286D01*
X152360215Y-121715886D01*
X152267281Y-121898276D01*
X152204022Y-122092965D01*
X152172000Y-122295148D01*
X147730500Y-122295148D01*
X147730499Y-121629792D01*
X147730499Y-120869629D01*
X147730499Y-120869628D01*
X147724091Y-120810017D01*
X147724089Y-120810014D01*
X147723330Y-120802945D01*
X147735736Y-120734185D01*
X147758938Y-120702010D01*
X147850793Y-120610156D01*
X147998870Y-120406345D01*
X148113241Y-120181879D01*
X148191090Y-119942285D01*
X148196178Y-119910161D01*
X148224574Y-119730878D01*
X148224574Y-119730877D01*
X148230500Y-119693462D01*
X148230500Y-119441538D01*
X148203927Y-119273762D01*
X148191090Y-119192714D01*
X148124697Y-118988380D01*
X148113241Y-118953121D01*
X148113239Y-118953118D01*
X148113239Y-118953116D01*
X148055172Y-118839154D01*
X147998870Y-118728655D01*
X147943381Y-118652281D01*
X147850798Y-118524850D01*
X147850794Y-118524845D01*
X147672654Y-118346705D01*
X147672649Y-118346701D01*
X147468848Y-118198632D01*
X147468847Y-118198631D01*
X147468845Y-118198630D01*
X147398747Y-118162913D01*
X147244383Y-118084260D01*
X147004785Y-118006410D01*
X146755962Y-117967000D01*
X145204038Y-117967000D01*
X145079626Y-117986705D01*
X144955214Y-118006410D01*
X144715616Y-118084260D01*
X144491151Y-118198632D01*
X144287350Y-118346701D01*
X144287345Y-118346705D01*
X144109205Y-118524845D01*
X144109201Y-118524850D01*
X143961132Y-118728651D01*
X143846760Y-118953116D01*
X143768910Y-119192714D01*
X143742687Y-119358281D01*
X143729500Y-119441538D01*
X102250000Y-119441538D01*
X102250000Y-115416228D01*
X136399500Y-115416228D01*
X136399500Y-115583771D01*
X136432182Y-115748074D01*
X136432184Y-115748082D01*
X136496295Y-115902860D01*
X136589373Y-116042162D01*
X136707837Y-116160626D01*
X136723959Y-116171398D01*
X136847137Y-116253703D01*
X137001918Y-116317816D01*
X137166228Y-116350499D01*
X137166232Y-116350500D01*
X137166233Y-116350500D01*
X137333768Y-116350500D01*
X137333769Y-116350499D01*
X137498082Y-116317816D01*
X137652863Y-116253703D01*
X137776041Y-116171398D01*
X137842719Y-116150520D01*
X137844932Y-116150500D01*
X138655068Y-116150500D01*
X138722107Y-116170185D01*
X138723959Y-116171398D01*
X138847137Y-116253703D01*
X139001918Y-116317816D01*
X139166228Y-116350499D01*
X139166232Y-116350500D01*
X139166233Y-116350500D01*
X139333768Y-116350500D01*
X139333769Y-116350499D01*
X139498082Y-116317816D01*
X139652863Y-116253703D01*
X139792162Y-116160626D01*
X139910626Y-116042162D01*
X140003703Y-115902863D01*
X140067816Y-115748082D01*
X140100500Y-115583767D01*
X140100500Y-115416233D01*
X140067816Y-115251918D01*
X140003703Y-115097137D01*
X139972537Y-115050494D01*
X139910626Y-114957837D01*
X139792162Y-114839373D01*
X139652860Y-114746295D01*
X139498082Y-114682184D01*
X139498074Y-114682182D01*
X139333771Y-114649500D01*
X139333767Y-114649500D01*
X139166233Y-114649500D01*
X139166228Y-114649500D01*
X139001925Y-114682182D01*
X139001917Y-114682184D01*
X138847139Y-114746295D01*
X138723959Y-114828602D01*
X138657281Y-114849480D01*
X138655068Y-114849500D01*
X137844932Y-114849500D01*
X137777893Y-114829815D01*
X137776041Y-114828602D01*
X137652860Y-114746295D01*
X137498082Y-114682184D01*
X137498074Y-114682182D01*
X137333771Y-114649500D01*
X137333767Y-114649500D01*
X137166233Y-114649500D01*
X137166228Y-114649500D01*
X137001925Y-114682182D01*
X137001917Y-114682184D01*
X136847139Y-114746295D01*
X136707837Y-114839373D01*
X136589373Y-114957837D01*
X136496295Y-115097139D01*
X136432184Y-115251917D01*
X136432182Y-115251925D01*
X136399500Y-115416228D01*
X102250000Y-115416228D01*
X102250000Y-110067483D01*
X104977000Y-110067483D01*
X104977000Y-111267501D01*
X104977001Y-111267518D01*
X104987500Y-111370296D01*
X104987501Y-111370299D01*
X105004377Y-111421226D01*
X105042686Y-111536834D01*
X105134788Y-111686156D01*
X105258844Y-111810212D01*
X105408166Y-111902314D01*
X105574703Y-111957499D01*
X105677491Y-111968000D01*
X106877508Y-111967999D01*
X106980297Y-111957499D01*
X107146834Y-111902314D01*
X107296156Y-111810212D01*
X107365379Y-111740989D01*
X107426702Y-111707504D01*
X107496394Y-111712488D01*
X107525946Y-111728353D01*
X107596146Y-111779357D01*
X107778468Y-111872255D01*
X107973082Y-111935490D01*
X108175183Y-111967500D01*
X108379817Y-111967500D01*
X108581917Y-111935490D01*
X108776531Y-111872255D01*
X108958849Y-111779359D01*
X109003421Y-111746974D01*
X108323947Y-111067500D01*
X108330161Y-111067500D01*
X108431894Y-111040241D01*
X108523106Y-110987580D01*
X108597580Y-110913106D01*
X108650241Y-110821894D01*
X108677500Y-110720161D01*
X108677500Y-110713947D01*
X109356974Y-111393421D01*
X109389359Y-111348849D01*
X109482255Y-111166531D01*
X109545490Y-110971917D01*
X109577500Y-110769817D01*
X109577500Y-110565187D01*
X109577499Y-110565177D01*
X109576053Y-110556049D01*
X114577000Y-110556049D01*
X114577000Y-110778950D01*
X114577001Y-110778966D01*
X114606094Y-110999952D01*
X114606095Y-110999957D01*
X114606096Y-110999963D01*
X114650728Y-111166531D01*
X114663790Y-111215280D01*
X114663793Y-111215290D01*
X114749093Y-111421222D01*
X114749095Y-111421226D01*
X114860552Y-111614274D01*
X114860557Y-111614280D01*
X114860558Y-111614282D01*
X114996251Y-111791122D01*
X114996257Y-111791129D01*
X115153870Y-111948742D01*
X115153877Y-111948748D01*
X115178966Y-111967999D01*
X115330726Y-112084448D01*
X115523774Y-112195905D01*
X115729719Y-112281210D01*
X115945037Y-112338904D01*
X116166043Y-112368000D01*
X116166050Y-112368000D01*
X116388950Y-112368000D01*
X116388957Y-112368000D01*
X116609963Y-112338904D01*
X116825281Y-112281210D01*
X117031226Y-112195905D01*
X117224274Y-112084448D01*
X117401124Y-111948747D01*
X117558747Y-111791124D01*
X117679124Y-111634245D01*
X117735552Y-111593042D01*
X117805298Y-111588887D01*
X117866218Y-111623099D01*
X117875876Y-111634245D01*
X117996251Y-111791122D01*
X117996257Y-111791129D01*
X118153870Y-111948742D01*
X118153877Y-111948748D01*
X118178966Y-111967999D01*
X118330726Y-112084448D01*
X118523774Y-112195905D01*
X118729719Y-112281210D01*
X118945037Y-112338904D01*
X119166043Y-112368000D01*
X119166050Y-112368000D01*
X119388950Y-112368000D01*
X119388957Y-112368000D01*
X119609963Y-112338904D01*
X119825281Y-112281210D01*
X120031226Y-112195905D01*
X120224274Y-112084448D01*
X120401124Y-111948747D01*
X120558747Y-111791124D01*
X120694448Y-111614274D01*
X120805905Y-111421226D01*
X120891210Y-111215281D01*
X120948904Y-110999963D01*
X120978000Y-110778957D01*
X120978000Y-110556043D01*
X120948904Y-110335037D01*
X120891210Y-110119719D01*
X120805905Y-109913774D01*
X120694448Y-109720726D01*
X120558747Y-109543876D01*
X120558742Y-109543870D01*
X120401129Y-109386257D01*
X120401122Y-109386251D01*
X120224282Y-109250558D01*
X120224280Y-109250557D01*
X120224274Y-109250552D01*
X120031226Y-109139095D01*
X120031222Y-109139093D01*
X119825290Y-109053793D01*
X119825283Y-109053791D01*
X119825281Y-109053790D01*
X119609963Y-108996096D01*
X119609957Y-108996095D01*
X119609952Y-108996094D01*
X119388966Y-108967001D01*
X119388963Y-108967000D01*
X119388957Y-108967000D01*
X119166043Y-108967000D01*
X119166037Y-108967000D01*
X119166033Y-108967001D01*
X118945047Y-108996094D01*
X118945040Y-108996095D01*
X118945037Y-108996096D01*
X118729719Y-109053790D01*
X118729709Y-109053793D01*
X118523777Y-109139093D01*
X118523773Y-109139095D01*
X118330726Y-109250552D01*
X118330717Y-109250558D01*
X118153877Y-109386251D01*
X118153870Y-109386257D01*
X117996257Y-109543870D01*
X117996251Y-109543877D01*
X117875876Y-109700754D01*
X117819448Y-109741957D01*
X117749702Y-109746112D01*
X117688782Y-109711900D01*
X117679124Y-109700754D01*
X117558748Y-109543877D01*
X117558742Y-109543870D01*
X117401129Y-109386257D01*
X117401122Y-109386251D01*
X117224282Y-109250558D01*
X117224280Y-109250557D01*
X117224274Y-109250552D01*
X117031226Y-109139095D01*
X117031222Y-109139093D01*
X116825290Y-109053793D01*
X116825283Y-109053791D01*
X116825281Y-109053790D01*
X116609963Y-108996096D01*
X116609957Y-108996095D01*
X116609952Y-108996094D01*
X116388966Y-108967001D01*
X116388963Y-108967000D01*
X116388957Y-108967000D01*
X116166043Y-108967000D01*
X116166037Y-108967000D01*
X116166033Y-108967001D01*
X115945047Y-108996094D01*
X115945040Y-108996095D01*
X115945037Y-108996096D01*
X115729719Y-109053790D01*
X115729709Y-109053793D01*
X115523777Y-109139093D01*
X115523773Y-109139095D01*
X115330726Y-109250552D01*
X115330717Y-109250558D01*
X115153877Y-109386251D01*
X115153870Y-109386257D01*
X114996257Y-109543870D01*
X114996251Y-109543877D01*
X114860558Y-109720717D01*
X114860552Y-109720726D01*
X114749095Y-109913773D01*
X114749093Y-109913777D01*
X114663793Y-110119709D01*
X114663790Y-110119719D01*
X114616889Y-110294759D01*
X114606097Y-110335034D01*
X114606094Y-110335047D01*
X114577001Y-110556033D01*
X114577000Y-110556049D01*
X109576053Y-110556049D01*
X109545490Y-110363082D01*
X109482255Y-110168468D01*
X109389359Y-109986150D01*
X109356974Y-109941577D01*
X109356974Y-109941576D01*
X108677500Y-110621051D01*
X108677500Y-110614839D01*
X108650241Y-110513106D01*
X108597580Y-110421894D01*
X108523106Y-110347420D01*
X108431894Y-110294759D01*
X108330161Y-110267500D01*
X108323946Y-110267500D01*
X109003422Y-109588024D01*
X109003421Y-109588023D01*
X108958859Y-109555647D01*
X108958850Y-109555641D01*
X108776531Y-109462744D01*
X108581917Y-109399509D01*
X108379817Y-109367500D01*
X108175183Y-109367500D01*
X107973082Y-109399509D01*
X107778468Y-109462744D01*
X107596151Y-109555639D01*
X107525944Y-109606648D01*
X107460137Y-109630127D01*
X107392083Y-109614301D01*
X107365378Y-109594010D01*
X107296157Y-109524789D01*
X107296156Y-109524788D01*
X107146834Y-109432686D01*
X106980297Y-109377501D01*
X106980295Y-109377500D01*
X106877510Y-109367000D01*
X105677498Y-109367000D01*
X105677481Y-109367001D01*
X105574703Y-109377500D01*
X105574700Y-109377501D01*
X105408168Y-109432685D01*
X105408163Y-109432687D01*
X105258842Y-109524789D01*
X105134789Y-109648842D01*
X105042687Y-109798163D01*
X105042686Y-109798166D01*
X104987501Y-109964703D01*
X104987501Y-109964704D01*
X104987500Y-109964704D01*
X104977000Y-110067483D01*
X102250000Y-110067483D01*
X102250000Y-103687483D01*
X104357000Y-103687483D01*
X104357000Y-104887501D01*
X104357001Y-104887518D01*
X104367500Y-104990296D01*
X104367501Y-104990299D01*
X104404801Y-105102860D01*
X104422686Y-105156834D01*
X104514788Y-105306156D01*
X104638844Y-105430212D01*
X104788166Y-105522314D01*
X104954703Y-105577499D01*
X105057491Y-105588000D01*
X106257508Y-105587999D01*
X106360297Y-105577499D01*
X106526834Y-105522314D01*
X106676156Y-105430212D01*
X106800212Y-105306156D01*
X106892314Y-105156834D01*
X106922198Y-105066649D01*
X106925725Y-105059358D01*
X106943958Y-105039232D01*
X106959419Y-105016901D01*
X106967072Y-105013719D01*
X106972636Y-105007578D01*
X106998856Y-105000504D01*
X107023935Y-104990078D01*
X107032092Y-104991538D01*
X107040094Y-104989380D01*
X107065978Y-104997606D01*
X107092711Y-105002393D01*
X107099722Y-105008330D01*
X107106682Y-105010542D01*
X107108443Y-105012668D01*
X107118024Y-105013422D01*
X107797500Y-104333946D01*
X107797500Y-104340161D01*
X107824759Y-104441894D01*
X107877420Y-104533106D01*
X107951894Y-104607580D01*
X108043106Y-104660241D01*
X108144839Y-104687500D01*
X108151053Y-104687500D01*
X107471576Y-105366974D01*
X107516150Y-105399359D01*
X107698468Y-105492255D01*
X107893082Y-105555490D01*
X108095183Y-105587500D01*
X108299817Y-105587500D01*
X108501917Y-105555490D01*
X108696531Y-105492255D01*
X108878849Y-105399359D01*
X108923421Y-105366974D01*
X108243947Y-104687500D01*
X108250161Y-104687500D01*
X108351894Y-104660241D01*
X108443106Y-104607580D01*
X108517580Y-104533106D01*
X108570241Y-104441894D01*
X108597500Y-104340161D01*
X108597500Y-104333947D01*
X109276974Y-105013421D01*
X109309361Y-104968847D01*
X109309361Y-104968846D01*
X109357015Y-104875320D01*
X109404989Y-104824524D01*
X109472810Y-104807728D01*
X109538945Y-104830265D01*
X109577985Y-104875319D01*
X109625641Y-104968850D01*
X109625647Y-104968859D01*
X109658023Y-105013421D01*
X109658024Y-105013422D01*
X110337500Y-104333946D01*
X110337500Y-104340161D01*
X110364759Y-104441894D01*
X110417420Y-104533106D01*
X110491894Y-104607580D01*
X110583106Y-104660241D01*
X110684839Y-104687500D01*
X110691053Y-104687500D01*
X110011576Y-105366974D01*
X110056150Y-105399359D01*
X110238468Y-105492255D01*
X110433082Y-105555490D01*
X110635183Y-105587500D01*
X110839817Y-105587500D01*
X111041917Y-105555490D01*
X111236531Y-105492255D01*
X111418849Y-105399359D01*
X111463421Y-105366974D01*
X110783947Y-104687500D01*
X110790161Y-104687500D01*
X110891894Y-104660241D01*
X110983106Y-104607580D01*
X111057580Y-104533106D01*
X111110241Y-104441894D01*
X111137500Y-104340161D01*
X111137500Y-104333947D01*
X111816974Y-105013421D01*
X111849361Y-104968847D01*
X111849361Y-104968846D01*
X111897015Y-104875320D01*
X111944989Y-104824524D01*
X112012810Y-104807728D01*
X112078945Y-104830265D01*
X112117985Y-104875319D01*
X112165641Y-104968850D01*
X112165647Y-104968859D01*
X112198023Y-105013421D01*
X112198024Y-105013422D01*
X112877500Y-104333946D01*
X112877500Y-104340161D01*
X112904759Y-104441894D01*
X112957420Y-104533106D01*
X113031894Y-104607580D01*
X113123106Y-104660241D01*
X113224839Y-104687500D01*
X113231053Y-104687500D01*
X112551576Y-105366974D01*
X112596150Y-105399359D01*
X112778468Y-105492255D01*
X112973082Y-105555490D01*
X113175183Y-105587500D01*
X113379817Y-105587500D01*
X113581917Y-105555490D01*
X113776532Y-105492254D01*
X113958849Y-105399359D01*
X114003421Y-105366974D01*
X113323947Y-104687500D01*
X113330161Y-104687500D01*
X113431894Y-104660241D01*
X113523106Y-104607580D01*
X113597580Y-104533106D01*
X113650241Y-104441894D01*
X113677500Y-104340161D01*
X113677500Y-104333947D01*
X114356974Y-105013421D01*
X114389359Y-104968849D01*
X114482255Y-104786531D01*
X114545490Y-104591917D01*
X114577500Y-104389817D01*
X114577500Y-104185182D01*
X114545490Y-103983082D01*
X114482255Y-103788468D01*
X114389359Y-103606150D01*
X114356974Y-103561577D01*
X114356974Y-103561576D01*
X113677500Y-104241051D01*
X113677500Y-104234839D01*
X113650241Y-104133106D01*
X113597580Y-104041894D01*
X113523106Y-103967420D01*
X113431894Y-103914759D01*
X113330161Y-103887500D01*
X113323946Y-103887500D01*
X114003422Y-103208024D01*
X114003421Y-103208023D01*
X113958859Y-103175647D01*
X113958850Y-103175641D01*
X113776531Y-103082744D01*
X113581917Y-103019509D01*
X113379817Y-102987500D01*
X113175183Y-102987500D01*
X112973082Y-103019509D01*
X112778468Y-103082744D01*
X112596144Y-103175643D01*
X112551577Y-103208023D01*
X112551577Y-103208024D01*
X113231054Y-103887500D01*
X113224839Y-103887500D01*
X113123106Y-103914759D01*
X113031894Y-103967420D01*
X112957420Y-104041894D01*
X112904759Y-104133106D01*
X112877500Y-104234839D01*
X112877500Y-104241053D01*
X112198024Y-103561577D01*
X112198023Y-103561577D01*
X112165643Y-103606144D01*
X112117985Y-103699680D01*
X112070010Y-103750476D01*
X112002189Y-103767271D01*
X111936054Y-103744733D01*
X111897015Y-103699680D01*
X111849359Y-103606150D01*
X111816974Y-103561577D01*
X111816974Y-103561576D01*
X111137500Y-104241051D01*
X111137500Y-104234839D01*
X111110241Y-104133106D01*
X111057580Y-104041894D01*
X110983106Y-103967420D01*
X110891894Y-103914759D01*
X110790161Y-103887500D01*
X110783946Y-103887500D01*
X111463422Y-103208024D01*
X111463421Y-103208023D01*
X111418859Y-103175647D01*
X111418850Y-103175641D01*
X111236531Y-103082744D01*
X111041917Y-103019509D01*
X110839817Y-102987500D01*
X110635183Y-102987500D01*
X110433082Y-103019509D01*
X110238468Y-103082744D01*
X110056144Y-103175643D01*
X110011577Y-103208023D01*
X110011577Y-103208024D01*
X110691054Y-103887500D01*
X110684839Y-103887500D01*
X110583106Y-103914759D01*
X110491894Y-103967420D01*
X110417420Y-104041894D01*
X110364759Y-104133106D01*
X110337500Y-104234839D01*
X110337500Y-104241053D01*
X109658024Y-103561577D01*
X109658023Y-103561577D01*
X109625643Y-103606144D01*
X109577985Y-103699680D01*
X109530010Y-103750476D01*
X109462189Y-103767271D01*
X109396054Y-103744733D01*
X109357015Y-103699680D01*
X109309359Y-103606150D01*
X109276974Y-103561577D01*
X109276974Y-103561576D01*
X108597500Y-104241051D01*
X108597500Y-104234839D01*
X108570241Y-104133106D01*
X108517580Y-104041894D01*
X108443106Y-103967420D01*
X108351894Y-103914759D01*
X108250161Y-103887500D01*
X108243946Y-103887500D01*
X108923422Y-103208024D01*
X108923421Y-103208023D01*
X108878859Y-103175647D01*
X108878850Y-103175641D01*
X108696531Y-103082744D01*
X108501917Y-103019509D01*
X108299817Y-102987500D01*
X108095183Y-102987500D01*
X107893082Y-103019509D01*
X107698468Y-103082744D01*
X107516144Y-103175643D01*
X107471577Y-103208023D01*
X107471577Y-103208024D01*
X108151054Y-103887500D01*
X108144839Y-103887500D01*
X108043106Y-103914759D01*
X107951894Y-103967420D01*
X107877420Y-104041894D01*
X107824759Y-104133106D01*
X107797500Y-104234839D01*
X107797500Y-104241053D01*
X107118024Y-103561577D01*
X107100845Y-103562929D01*
X107082340Y-103577199D01*
X107078286Y-103577547D01*
X107074910Y-103579824D01*
X107043761Y-103580512D01*
X107012727Y-103583178D01*
X107009126Y-103581278D01*
X107005057Y-103581368D01*
X106978485Y-103565110D01*
X106950932Y-103550572D01*
X106947934Y-103546418D01*
X106945458Y-103544903D01*
X106939624Y-103534902D01*
X106925725Y-103515640D01*
X106922196Y-103508344D01*
X106892314Y-103418166D01*
X106800212Y-103268844D01*
X106676156Y-103144788D01*
X106526834Y-103052686D01*
X106360297Y-102997501D01*
X106360295Y-102997500D01*
X106257510Y-102987000D01*
X105057498Y-102987000D01*
X105057481Y-102987001D01*
X104954703Y-102997500D01*
X104954700Y-102997501D01*
X104788168Y-103052685D01*
X104788163Y-103052687D01*
X104638842Y-103144789D01*
X104514789Y-103268842D01*
X104422687Y-103418163D01*
X104422686Y-103418166D01*
X104367501Y-103584703D01*
X104367501Y-103584704D01*
X104367500Y-103584704D01*
X104357000Y-103687483D01*
X102250000Y-103687483D01*
X102250000Y-101117482D01*
X117677000Y-101117482D01*
X117677000Y-102917517D01*
X117687500Y-103020296D01*
X117724527Y-103132034D01*
X117742686Y-103186835D01*
X117834788Y-103336156D01*
X117958844Y-103460212D01*
X118108165Y-103552314D01*
X118274702Y-103607499D01*
X118377490Y-103618000D01*
X118377495Y-103618000D01*
X120177505Y-103618000D01*
X120177510Y-103618000D01*
X120280298Y-103607499D01*
X120446835Y-103552314D01*
X120596156Y-103460212D01*
X120720212Y-103336156D01*
X120812314Y-103186835D01*
X120867499Y-103020298D01*
X120878000Y-102917510D01*
X120878000Y-101117490D01*
X120867499Y-101014702D01*
X120812314Y-100848165D01*
X120720212Y-100698844D01*
X120596156Y-100574788D01*
X120446835Y-100482686D01*
X120280298Y-100427501D01*
X120280296Y-100427500D01*
X120177517Y-100417000D01*
X120177510Y-100417000D01*
X118377490Y-100417000D01*
X118377482Y-100417000D01*
X118274703Y-100427500D01*
X118274702Y-100427501D01*
X118192169Y-100454849D01*
X118108167Y-100482685D01*
X118108162Y-100482687D01*
X117958842Y-100574789D01*
X117834789Y-100698842D01*
X117742687Y-100848162D01*
X117742686Y-100848165D01*
X117687501Y-101014702D01*
X117687501Y-101014703D01*
X117687500Y-101014703D01*
X117677000Y-101117482D01*
X102250000Y-101117482D01*
X102250000Y-96565148D01*
X104357000Y-96565148D01*
X104357000Y-96769852D01*
X104358258Y-96777792D01*
X104389022Y-96972034D01*
X104452281Y-97166723D01*
X104545215Y-97349113D01*
X104665528Y-97514713D01*
X104810286Y-97659471D01*
X104965249Y-97772056D01*
X104975890Y-97779787D01*
X105092107Y-97839003D01*
X105158276Y-97872718D01*
X105158278Y-97872718D01*
X105158281Y-97872720D01*
X105262637Y-97906627D01*
X105352965Y-97935977D01*
X105454057Y-97951988D01*
X105555148Y-97968000D01*
X105555149Y-97968000D01*
X105759851Y-97968000D01*
X105759852Y-97968000D01*
X105962034Y-97935977D01*
X106156719Y-97872720D01*
X106339110Y-97779787D01*
X106432090Y-97712232D01*
X106504713Y-97659471D01*
X106504715Y-97659468D01*
X106504719Y-97659466D01*
X106649466Y-97514719D01*
X106649468Y-97514715D01*
X106649471Y-97514713D01*
X106769784Y-97349114D01*
X106769785Y-97349113D01*
X106769787Y-97349110D01*
X106817016Y-97256417D01*
X106864989Y-97205623D01*
X106932810Y-97188828D01*
X106998945Y-97211365D01*
X107037983Y-97256417D01*
X107081848Y-97342506D01*
X107085215Y-97349114D01*
X107205528Y-97514713D01*
X107350286Y-97659471D01*
X107505249Y-97772056D01*
X107515890Y-97779787D01*
X107632107Y-97839003D01*
X107698276Y-97872718D01*
X107698278Y-97872718D01*
X107698281Y-97872720D01*
X107802637Y-97906627D01*
X107892965Y-97935977D01*
X107994057Y-97951988D01*
X108095148Y-97968000D01*
X108095149Y-97968000D01*
X108299851Y-97968000D01*
X108299852Y-97968000D01*
X108502034Y-97935977D01*
X108696719Y-97872720D01*
X108879110Y-97779787D01*
X108972090Y-97712232D01*
X109044713Y-97659471D01*
X109044715Y-97659468D01*
X109044719Y-97659466D01*
X109189466Y-97514719D01*
X109189468Y-97514715D01*
X109189471Y-97514713D01*
X109309784Y-97349114D01*
X109309785Y-97349113D01*
X109309787Y-97349110D01*
X109357016Y-97256417D01*
X109404989Y-97205623D01*
X109472810Y-97188828D01*
X109538945Y-97211365D01*
X109577983Y-97256417D01*
X109621848Y-97342506D01*
X109625215Y-97349114D01*
X109745528Y-97514713D01*
X109890286Y-97659471D01*
X110045249Y-97772056D01*
X110055890Y-97779787D01*
X110172107Y-97839003D01*
X110238276Y-97872718D01*
X110238278Y-97872718D01*
X110238281Y-97872720D01*
X110342637Y-97906627D01*
X110432965Y-97935977D01*
X110534057Y-97951988D01*
X110635148Y-97968000D01*
X110635149Y-97968000D01*
X110839851Y-97968000D01*
X110839852Y-97968000D01*
X111042034Y-97935977D01*
X111236719Y-97872720D01*
X111419110Y-97779787D01*
X111512090Y-97712232D01*
X111584713Y-97659471D01*
X111584715Y-97659468D01*
X111584719Y-97659466D01*
X111729466Y-97514719D01*
X111729468Y-97514715D01*
X111729471Y-97514713D01*
X111849784Y-97349114D01*
X111849785Y-97349113D01*
X111849787Y-97349110D01*
X111897016Y-97256417D01*
X111944989Y-97205623D01*
X112012810Y-97188828D01*
X112078945Y-97211365D01*
X112117983Y-97256417D01*
X112161848Y-97342506D01*
X112165215Y-97349114D01*
X112285528Y-97514713D01*
X112430286Y-97659471D01*
X112585249Y-97772056D01*
X112595890Y-97779787D01*
X112712107Y-97839003D01*
X112778276Y-97872718D01*
X112778278Y-97872718D01*
X112778281Y-97872720D01*
X112882637Y-97906627D01*
X112972965Y-97935977D01*
X113074057Y-97951988D01*
X113175148Y-97968000D01*
X113175149Y-97968000D01*
X113379851Y-97968000D01*
X113379852Y-97968000D01*
X113582034Y-97935977D01*
X113776719Y-97872720D01*
X113959110Y-97779787D01*
X114052090Y-97712232D01*
X114124713Y-97659471D01*
X114124715Y-97659468D01*
X114124719Y-97659466D01*
X114269466Y-97514719D01*
X114269468Y-97514715D01*
X114269471Y-97514713D01*
X114342818Y-97413758D01*
X114389787Y-97349110D01*
X114482720Y-97166719D01*
X114545977Y-96972034D01*
X114578000Y-96769852D01*
X114578000Y-96565148D01*
X114564118Y-96477500D01*
X114545977Y-96362965D01*
X114500163Y-96221966D01*
X114482720Y-96168281D01*
X114482718Y-96168278D01*
X114482718Y-96168276D01*
X114437015Y-96078580D01*
X114389787Y-95985890D01*
X114382056Y-95975249D01*
X114269471Y-95820286D01*
X114124713Y-95675528D01*
X113959113Y-95555215D01*
X113959112Y-95555214D01*
X113959110Y-95555213D01*
X113854523Y-95501923D01*
X113776723Y-95462281D01*
X113582034Y-95399022D01*
X113407495Y-95371378D01*
X113379852Y-95367000D01*
X113175148Y-95367000D01*
X113150829Y-95370851D01*
X112972965Y-95399022D01*
X112778276Y-95462281D01*
X112595886Y-95555215D01*
X112430286Y-95675528D01*
X112285528Y-95820286D01*
X112165215Y-95985886D01*
X112117985Y-96078580D01*
X112070010Y-96129376D01*
X112002189Y-96146171D01*
X111936054Y-96123634D01*
X111897015Y-96078580D01*
X111879266Y-96043746D01*
X111849787Y-95985890D01*
X111842056Y-95975249D01*
X111729471Y-95820286D01*
X111584713Y-95675528D01*
X111419113Y-95555215D01*
X111419112Y-95555214D01*
X111419110Y-95555213D01*
X111314523Y-95501923D01*
X111236723Y-95462281D01*
X111042034Y-95399022D01*
X110867495Y-95371378D01*
X110839852Y-95367000D01*
X110635148Y-95367000D01*
X110610829Y-95370851D01*
X110432965Y-95399022D01*
X110238276Y-95462281D01*
X110055886Y-95555215D01*
X109890286Y-95675528D01*
X109745528Y-95820286D01*
X109625215Y-95985886D01*
X109577985Y-96078580D01*
X109530010Y-96129376D01*
X109462189Y-96146171D01*
X109396054Y-96123634D01*
X109357015Y-96078580D01*
X109339266Y-96043746D01*
X109309787Y-95985890D01*
X109302056Y-95975249D01*
X109189471Y-95820286D01*
X109044713Y-95675528D01*
X108879113Y-95555215D01*
X108879112Y-95555214D01*
X108879110Y-95555213D01*
X108774523Y-95501923D01*
X108696723Y-95462281D01*
X108502034Y-95399022D01*
X108327495Y-95371378D01*
X108299852Y-95367000D01*
X108095148Y-95367000D01*
X108070829Y-95370851D01*
X107892965Y-95399022D01*
X107698276Y-95462281D01*
X107515886Y-95555215D01*
X107350286Y-95675528D01*
X107205528Y-95820286D01*
X107085215Y-95985886D01*
X107037985Y-96078580D01*
X106990010Y-96129376D01*
X106922189Y-96146171D01*
X106856054Y-96123634D01*
X106817015Y-96078580D01*
X106799266Y-96043746D01*
X106769787Y-95985890D01*
X106762056Y-95975249D01*
X106649471Y-95820286D01*
X106504713Y-95675528D01*
X106339113Y-95555215D01*
X106339112Y-95555214D01*
X106339110Y-95555213D01*
X106234523Y-95501923D01*
X106156723Y-95462281D01*
X105962034Y-95399022D01*
X105787495Y-95371378D01*
X105759852Y-95367000D01*
X105555148Y-95367000D01*
X105530829Y-95370851D01*
X105352965Y-95399022D01*
X105158276Y-95462281D01*
X104975886Y-95555215D01*
X104810286Y-95675528D01*
X104665528Y-95820286D01*
X104545215Y-95985886D01*
X104452281Y-96168276D01*
X104389022Y-96362965D01*
X104362255Y-96531971D01*
X104357000Y-96565148D01*
X102250000Y-96565148D01*
X102250000Y-89147682D01*
X110450000Y-89147682D01*
X110450000Y-89352317D01*
X110482009Y-89554417D01*
X110545244Y-89749031D01*
X110638141Y-89931350D01*
X110638147Y-89931359D01*
X110670523Y-89975921D01*
X110670524Y-89975922D01*
X111350000Y-89296446D01*
X111350000Y-89302661D01*
X111377259Y-89404394D01*
X111429920Y-89495606D01*
X111504394Y-89570080D01*
X111595606Y-89622741D01*
X111697339Y-89650000D01*
X111703552Y-89650000D01*
X111024076Y-90329474D01*
X111068650Y-90361859D01*
X111250968Y-90454755D01*
X111445582Y-90517990D01*
X111647683Y-90550000D01*
X111852317Y-90550000D01*
X112054417Y-90517990D01*
X112249031Y-90454755D01*
X112431341Y-90361863D01*
X112431349Y-90361858D01*
X112501552Y-90310852D01*
X112567358Y-90287371D01*
X112635412Y-90303196D01*
X112662120Y-90323488D01*
X112731344Y-90392712D01*
X112880666Y-90484814D01*
X113047203Y-90539999D01*
X113149991Y-90550500D01*
X114350008Y-90550499D01*
X114452797Y-90539999D01*
X114619334Y-90484814D01*
X114768656Y-90392712D01*
X114892712Y-90268656D01*
X114984814Y-90119334D01*
X115039999Y-89952797D01*
X115050500Y-89850009D01*
X115050499Y-89191571D01*
X117677500Y-89191571D01*
X117677500Y-89443428D01*
X117716897Y-89692169D01*
X117794719Y-89931684D01*
X117909057Y-90156083D01*
X117983248Y-90258197D01*
X117983248Y-90258198D01*
X118753712Y-89487734D01*
X118764982Y-89529792D01*
X118837390Y-89655208D01*
X118939792Y-89757610D01*
X119065208Y-89830018D01*
X119107265Y-89841287D01*
X118336800Y-90611750D01*
X118438916Y-90685942D01*
X118663315Y-90800280D01*
X118902830Y-90878102D01*
X119151572Y-90917500D01*
X119403428Y-90917500D01*
X119652169Y-90878102D01*
X119891684Y-90800280D01*
X120116075Y-90685946D01*
X120116081Y-90685942D01*
X120218197Y-90611750D01*
X120218198Y-90611750D01*
X119447734Y-89841287D01*
X119489792Y-89830018D01*
X119615208Y-89757610D01*
X119717610Y-89655208D01*
X119790018Y-89529792D01*
X119801287Y-89487735D01*
X120571750Y-90258198D01*
X120571750Y-90258197D01*
X120645942Y-90156081D01*
X120645946Y-90156075D01*
X120760280Y-89931684D01*
X120838102Y-89692169D01*
X120877500Y-89443428D01*
X120877500Y-89191571D01*
X120838102Y-88942830D01*
X120760280Y-88703315D01*
X120645942Y-88478916D01*
X120571750Y-88376801D01*
X120571750Y-88376800D01*
X119801287Y-89147264D01*
X119790018Y-89105208D01*
X119717610Y-88979792D01*
X119615208Y-88877390D01*
X119489792Y-88804982D01*
X119447732Y-88793712D01*
X120218198Y-88023248D01*
X120116083Y-87949057D01*
X119891684Y-87834719D01*
X119652169Y-87756897D01*
X119403428Y-87717500D01*
X119151572Y-87717500D01*
X118902830Y-87756897D01*
X118663315Y-87834719D01*
X118438913Y-87949059D01*
X118336801Y-88023247D01*
X118336800Y-88023248D01*
X119107265Y-88793712D01*
X119065208Y-88804982D01*
X118939792Y-88877390D01*
X118837390Y-88979792D01*
X118764982Y-89105208D01*
X118753712Y-89147265D01*
X117983248Y-88376800D01*
X117983247Y-88376801D01*
X117909059Y-88478913D01*
X117794719Y-88703315D01*
X117716897Y-88942830D01*
X117677500Y-89191571D01*
X115050499Y-89191571D01*
X115050499Y-88649992D01*
X115039999Y-88547203D01*
X114984814Y-88380666D01*
X114892712Y-88231344D01*
X114768656Y-88107288D01*
X114619334Y-88015186D01*
X114452797Y-87960001D01*
X114452795Y-87960000D01*
X114350010Y-87949500D01*
X113149998Y-87949500D01*
X113149981Y-87949501D01*
X113047203Y-87960000D01*
X113047200Y-87960001D01*
X112880668Y-88015185D01*
X112880663Y-88015187D01*
X112731345Y-88107287D01*
X112662121Y-88176511D01*
X112600797Y-88209995D01*
X112531106Y-88205010D01*
X112501555Y-88189147D01*
X112431352Y-88138142D01*
X112249031Y-88045244D01*
X112054417Y-87982009D01*
X111852317Y-87950000D01*
X111647683Y-87950000D01*
X111445582Y-87982009D01*
X111250968Y-88045244D01*
X111068644Y-88138143D01*
X111024077Y-88170523D01*
X111024077Y-88170524D01*
X111703553Y-88850000D01*
X111697339Y-88850000D01*
X111595606Y-88877259D01*
X111504394Y-88929920D01*
X111429920Y-89004394D01*
X111377259Y-89095606D01*
X111350000Y-89197339D01*
X111350000Y-89203553D01*
X110670524Y-88524077D01*
X110670523Y-88524077D01*
X110638143Y-88568644D01*
X110545244Y-88750968D01*
X110482009Y-88945582D01*
X110450000Y-89147682D01*
X102250000Y-89147682D01*
X102250000Y-87009983D01*
X128147000Y-87009983D01*
X128147000Y-87009996D01*
X128147001Y-88209995D01*
X128147001Y-88210018D01*
X128157500Y-88312796D01*
X128157501Y-88312799D01*
X128212685Y-88479331D01*
X128212687Y-88479336D01*
X128247569Y-88535888D01*
X128304788Y-88628656D01*
X128428844Y-88752712D01*
X128578166Y-88844814D01*
X128660070Y-88871954D01*
X128717515Y-88911727D01*
X128744338Y-88976243D01*
X128732023Y-89045018D01*
X128693951Y-89089978D01*
X128600287Y-89158028D01*
X128600282Y-89158032D01*
X128455528Y-89302786D01*
X128335215Y-89468386D01*
X128242281Y-89650776D01*
X128179022Y-89845465D01*
X128147000Y-90047648D01*
X128147000Y-90252351D01*
X128179022Y-90454534D01*
X128242281Y-90649223D01*
X128335215Y-90831613D01*
X128455528Y-90997213D01*
X128600286Y-91141971D01*
X128734917Y-91239784D01*
X128765890Y-91262287D01*
X128855357Y-91307873D01*
X128858580Y-91309515D01*
X128909376Y-91357490D01*
X128926171Y-91425311D01*
X128903634Y-91491446D01*
X128858580Y-91530485D01*
X128765886Y-91577715D01*
X128600286Y-91698028D01*
X128455528Y-91842786D01*
X128335215Y-92008386D01*
X128242281Y-92190776D01*
X128179022Y-92385465D01*
X128147000Y-92587648D01*
X128147000Y-92792351D01*
X128179022Y-92994534D01*
X128242281Y-93189223D01*
X128335215Y-93371613D01*
X128455528Y-93537213D01*
X128600286Y-93681971D01*
X128755249Y-93794556D01*
X128765890Y-93802287D01*
X128854062Y-93847213D01*
X128858580Y-93849515D01*
X128909376Y-93897490D01*
X128926171Y-93965311D01*
X128903634Y-94031446D01*
X128858580Y-94070485D01*
X128765886Y-94117715D01*
X128600286Y-94238028D01*
X128455528Y-94382786D01*
X128335215Y-94548386D01*
X128242281Y-94730776D01*
X128179022Y-94925465D01*
X128147000Y-95127648D01*
X128147000Y-95332351D01*
X128179022Y-95534534D01*
X128242281Y-95729223D01*
X128335215Y-95911613D01*
X128455528Y-96077213D01*
X128600286Y-96221971D01*
X128745967Y-96327812D01*
X128765890Y-96342287D01*
X128854062Y-96387213D01*
X128858580Y-96389515D01*
X128909376Y-96437490D01*
X128926171Y-96505311D01*
X128903634Y-96571446D01*
X128858580Y-96610485D01*
X128765886Y-96657715D01*
X128600286Y-96778028D01*
X128455528Y-96922786D01*
X128335215Y-97088386D01*
X128242281Y-97270776D01*
X128179022Y-97465465D01*
X128147000Y-97667648D01*
X128147000Y-97872351D01*
X128179022Y-98074534D01*
X128242281Y-98269223D01*
X128335215Y-98451613D01*
X128455528Y-98617213D01*
X128600286Y-98761971D01*
X128734917Y-98859784D01*
X128765890Y-98882287D01*
X128854062Y-98927213D01*
X128858580Y-98929515D01*
X128909376Y-98977490D01*
X128926171Y-99045311D01*
X128903634Y-99111446D01*
X128858580Y-99150485D01*
X128765886Y-99197715D01*
X128600286Y-99318028D01*
X128455528Y-99462786D01*
X128335215Y-99628386D01*
X128242281Y-99810776D01*
X128179022Y-100005465D01*
X128147000Y-100207648D01*
X128147000Y-100412351D01*
X128179022Y-100614534D01*
X128242281Y-100809223D01*
X128295737Y-100914135D01*
X128335212Y-100991609D01*
X128335215Y-100991613D01*
X128455528Y-101157213D01*
X128600286Y-101301971D01*
X128734917Y-101399784D01*
X128765890Y-101422287D01*
X128837924Y-101458990D01*
X128859129Y-101469795D01*
X128909925Y-101517770D01*
X128926720Y-101585591D01*
X128904182Y-101651726D01*
X128859129Y-101690765D01*
X128766150Y-101738140D01*
X128600605Y-101858417D01*
X128600604Y-101858417D01*
X128455917Y-102003104D01*
X128455917Y-102003105D01*
X128335640Y-102168650D01*
X128242744Y-102350970D01*
X128179509Y-102545586D01*
X128170891Y-102600000D01*
X129531814Y-102600000D01*
X129527420Y-102604394D01*
X129474759Y-102695606D01*
X129447500Y-102797339D01*
X129447500Y-102902661D01*
X129474759Y-103004394D01*
X129527420Y-103095606D01*
X129531814Y-103100000D01*
X128170891Y-103100000D01*
X128179509Y-103154413D01*
X128242744Y-103349029D01*
X128335640Y-103531349D01*
X128455917Y-103696894D01*
X128455917Y-103696895D01*
X128600604Y-103841582D01*
X128766150Y-103961859D01*
X128859679Y-104009515D01*
X128910475Y-104057490D01*
X128927270Y-104125311D01*
X128904732Y-104191446D01*
X128859679Y-104230485D01*
X128766150Y-104278140D01*
X128600605Y-104398417D01*
X128600604Y-104398417D01*
X128455917Y-104543104D01*
X128455917Y-104543105D01*
X128335640Y-104708650D01*
X128242744Y-104890970D01*
X128179509Y-105085586D01*
X128170891Y-105140000D01*
X129531814Y-105140000D01*
X129527420Y-105144394D01*
X129474759Y-105235606D01*
X129447500Y-105337339D01*
X129447500Y-105442661D01*
X129474759Y-105544394D01*
X129527420Y-105635606D01*
X129531814Y-105640000D01*
X128170891Y-105640000D01*
X128179509Y-105694413D01*
X128242744Y-105889029D01*
X128335640Y-106071349D01*
X128455917Y-106236894D01*
X128455917Y-106236895D01*
X128600604Y-106381582D01*
X128766150Y-106501859D01*
X128948468Y-106594755D01*
X129143082Y-106657990D01*
X129345183Y-106690000D01*
X129597500Y-106690000D01*
X129597500Y-105705686D01*
X129601894Y-105710080D01*
X129693106Y-105762741D01*
X129794839Y-105790000D01*
X129900161Y-105790000D01*
X130001894Y-105762741D01*
X130093106Y-105710080D01*
X130097500Y-105705686D01*
X130097500Y-106690000D01*
X130349817Y-106690000D01*
X130551917Y-106657990D01*
X130746531Y-106594755D01*
X130928849Y-106501859D01*
X131094394Y-106381582D01*
X131094395Y-106381582D01*
X131239082Y-106236895D01*
X131239082Y-106236894D01*
X131359359Y-106071349D01*
X131452255Y-105889029D01*
X131515490Y-105694413D01*
X131524109Y-105640000D01*
X130163186Y-105640000D01*
X130167580Y-105635606D01*
X130220241Y-105544394D01*
X130247500Y-105442661D01*
X130247500Y-105337339D01*
X130220241Y-105235606D01*
X130167580Y-105144394D01*
X130163186Y-105140000D01*
X131524109Y-105140000D01*
X131515490Y-105085586D01*
X131452255Y-104890970D01*
X131359359Y-104708650D01*
X131239082Y-104543105D01*
X131239082Y-104543104D01*
X131094395Y-104398417D01*
X130928849Y-104278140D01*
X130835320Y-104230485D01*
X130784524Y-104182511D01*
X130767729Y-104114690D01*
X130790266Y-104048555D01*
X130835320Y-104009515D01*
X130928849Y-103961859D01*
X131094394Y-103841582D01*
X131094395Y-103841582D01*
X131239082Y-103696895D01*
X131239082Y-103696894D01*
X131359359Y-103531349D01*
X131452255Y-103349029D01*
X131515490Y-103154413D01*
X131524109Y-103100000D01*
X130163186Y-103100000D01*
X130167580Y-103095606D01*
X130220241Y-103004394D01*
X130247500Y-102902661D01*
X130247500Y-102797339D01*
X130220241Y-102695606D01*
X130167580Y-102604394D01*
X130163186Y-102600000D01*
X131524109Y-102600000D01*
X131515490Y-102545586D01*
X131452255Y-102350970D01*
X131359359Y-102168650D01*
X131239082Y-102003105D01*
X131239082Y-102003104D01*
X131094395Y-101858417D01*
X130928849Y-101738140D01*
X130835870Y-101690765D01*
X130785074Y-101642790D01*
X130768279Y-101574969D01*
X130790816Y-101508835D01*
X130835870Y-101469795D01*
X130840926Y-101467219D01*
X130929110Y-101422287D01*
X130960083Y-101399784D01*
X131094713Y-101301971D01*
X131094715Y-101301968D01*
X131094719Y-101301966D01*
X131239466Y-101157219D01*
X131239468Y-101157215D01*
X131239471Y-101157213D01*
X131304420Y-101067817D01*
X131359787Y-100991610D01*
X131452720Y-100809219D01*
X131515977Y-100614534D01*
X131548000Y-100412352D01*
X131548000Y-100207648D01*
X131525853Y-100067817D01*
X131515977Y-100005465D01*
X131452718Y-99810776D01*
X131400267Y-99707837D01*
X131359787Y-99628390D01*
X131334246Y-99593235D01*
X131239471Y-99462786D01*
X131094713Y-99318028D01*
X130929114Y-99197715D01*
X130884951Y-99175213D01*
X130836417Y-99150483D01*
X130785623Y-99102511D01*
X130768828Y-99034690D01*
X130791365Y-98968555D01*
X130836417Y-98929516D01*
X130929110Y-98882287D01*
X130977486Y-98847140D01*
X131094713Y-98761971D01*
X131094715Y-98761968D01*
X131094719Y-98761966D01*
X131239466Y-98617219D01*
X131239468Y-98617215D01*
X131239471Y-98617213D01*
X131308628Y-98522025D01*
X131359787Y-98451610D01*
X131452720Y-98269219D01*
X131515977Y-98074534D01*
X131548000Y-97872352D01*
X131548000Y-97667648D01*
X131534323Y-97581296D01*
X131515977Y-97465465D01*
X131452718Y-97270776D01*
X131410963Y-97188828D01*
X131359787Y-97088390D01*
X131338153Y-97058613D01*
X131239471Y-96922786D01*
X131102888Y-96786203D01*
X131779525Y-96786203D01*
X131779525Y-96953746D01*
X131812207Y-97118049D01*
X131812209Y-97118057D01*
X131876320Y-97272835D01*
X131969398Y-97412137D01*
X132087862Y-97530601D01*
X132163733Y-97581296D01*
X132227162Y-97623678D01*
X132381943Y-97687791D01*
X132546253Y-97720474D01*
X132546257Y-97720475D01*
X132546258Y-97720475D01*
X132713793Y-97720475D01*
X132713794Y-97720474D01*
X132878107Y-97687791D01*
X133032888Y-97623678D01*
X133172187Y-97530601D01*
X133290651Y-97412137D01*
X133383728Y-97272838D01*
X133447841Y-97118057D01*
X133476743Y-96972756D01*
X133509127Y-96910845D01*
X133510621Y-96909324D01*
X133789293Y-96630652D01*
X133850614Y-96597169D01*
X133852781Y-96596718D01*
X133871360Y-96593022D01*
X133998082Y-96567816D01*
X134152863Y-96503703D01*
X134292162Y-96410626D01*
X134410626Y-96292162D01*
X134503703Y-96152863D01*
X134567816Y-95998082D01*
X134600500Y-95833767D01*
X134600500Y-95666233D01*
X134567816Y-95501918D01*
X134503703Y-95347137D01*
X134472537Y-95300494D01*
X134410626Y-95207837D01*
X134292162Y-95089373D01*
X134152860Y-94996295D01*
X133998082Y-94932184D01*
X133998074Y-94932182D01*
X133833771Y-94899500D01*
X133833767Y-94899500D01*
X133666233Y-94899500D01*
X133666228Y-94899500D01*
X133501925Y-94932182D01*
X133501917Y-94932184D01*
X133347139Y-94996295D01*
X133207837Y-95089373D01*
X133089373Y-95207837D01*
X132996295Y-95347139D01*
X132932184Y-95501917D01*
X132932182Y-95501923D01*
X132903281Y-95647219D01*
X132870896Y-95709130D01*
X132869345Y-95710708D01*
X132590733Y-95989320D01*
X132529410Y-96022805D01*
X132527244Y-96023256D01*
X132381948Y-96052157D01*
X132381942Y-96052159D01*
X132227164Y-96116270D01*
X132087862Y-96209348D01*
X131969398Y-96327812D01*
X131876320Y-96467114D01*
X131812209Y-96621892D01*
X131812207Y-96621900D01*
X131779525Y-96786203D01*
X131102888Y-96786203D01*
X131094713Y-96778028D01*
X130929114Y-96657715D01*
X130918455Y-96652284D01*
X130836417Y-96610483D01*
X130785623Y-96562511D01*
X130768828Y-96494690D01*
X130791365Y-96428555D01*
X130836417Y-96389516D01*
X130929110Y-96342287D01*
X130998102Y-96292162D01*
X131094713Y-96221971D01*
X131094715Y-96221968D01*
X131094719Y-96221966D01*
X131239466Y-96077219D01*
X131239468Y-96077215D01*
X131239471Y-96077213D01*
X131305823Y-95985886D01*
X131359787Y-95911610D01*
X131452720Y-95729219D01*
X131515977Y-95534534D01*
X131548000Y-95332352D01*
X131548000Y-95127648D01*
X131515977Y-94925466D01*
X131512975Y-94916228D01*
X131459588Y-94751918D01*
X131452720Y-94730781D01*
X131452718Y-94730778D01*
X131452718Y-94730776D01*
X131419003Y-94664607D01*
X131359787Y-94548390D01*
X131319525Y-94492973D01*
X131239471Y-94382786D01*
X131094713Y-94238028D01*
X130929114Y-94117715D01*
X130884951Y-94095213D01*
X130836417Y-94070483D01*
X130785623Y-94022511D01*
X130768828Y-93954690D01*
X130791365Y-93888555D01*
X130836417Y-93849516D01*
X130929110Y-93802287D01*
X130990847Y-93757433D01*
X131094713Y-93681971D01*
X131094715Y-93681968D01*
X131094719Y-93681966D01*
X131239466Y-93537219D01*
X131239468Y-93537215D01*
X131239471Y-93537213D01*
X131327370Y-93416228D01*
X132399500Y-93416228D01*
X132399500Y-93583771D01*
X132432182Y-93748074D01*
X132432184Y-93748082D01*
X132496295Y-93902860D01*
X132589373Y-94042162D01*
X132707837Y-94160626D01*
X132790004Y-94215528D01*
X132847137Y-94253703D01*
X132847138Y-94253703D01*
X132847139Y-94253704D01*
X132871112Y-94263634D01*
X133001918Y-94317816D01*
X133166228Y-94350499D01*
X133166232Y-94350500D01*
X133166233Y-94350500D01*
X133333768Y-94350500D01*
X133333769Y-94350499D01*
X133498082Y-94317816D01*
X133652863Y-94253703D01*
X133776041Y-94171398D01*
X133842719Y-94150520D01*
X133844932Y-94150500D01*
X134655068Y-94150500D01*
X134722107Y-94170185D01*
X134723959Y-94171398D01*
X134774577Y-94205220D01*
X134847137Y-94253703D01*
X134847138Y-94253703D01*
X134847139Y-94253704D01*
X134871112Y-94263634D01*
X135001918Y-94317816D01*
X135166228Y-94350499D01*
X135166232Y-94350500D01*
X135166233Y-94350500D01*
X135333768Y-94350500D01*
X135333769Y-94350499D01*
X135498082Y-94317816D01*
X135652863Y-94253703D01*
X135792162Y-94160626D01*
X135910626Y-94042162D01*
X136003703Y-93902863D01*
X136063943Y-93757431D01*
X136107783Y-93703029D01*
X136174077Y-93680964D01*
X136241776Y-93698243D01*
X136251388Y-93704567D01*
X136368348Y-93789542D01*
X136385890Y-93802287D01*
X136474062Y-93847213D01*
X136478580Y-93849515D01*
X136529376Y-93897490D01*
X136546171Y-93965311D01*
X136523634Y-94031446D01*
X136478580Y-94070485D01*
X136385886Y-94117715D01*
X136220286Y-94238028D01*
X136075528Y-94382786D01*
X135955215Y-94548386D01*
X135862281Y-94730776D01*
X135799022Y-94925465D01*
X135767000Y-95127648D01*
X135767000Y-95332351D01*
X135799022Y-95534534D01*
X135862281Y-95729223D01*
X135955215Y-95911613D01*
X136075528Y-96077213D01*
X136220286Y-96221971D01*
X136365967Y-96327812D01*
X136385890Y-96342287D01*
X136474062Y-96387213D01*
X136478580Y-96389515D01*
X136529376Y-96437490D01*
X136546171Y-96505311D01*
X136523634Y-96571446D01*
X136478580Y-96610485D01*
X136385886Y-96657715D01*
X136220286Y-96778028D01*
X136075528Y-96922786D01*
X135955215Y-97088386D01*
X135862281Y-97270776D01*
X135799022Y-97465465D01*
X135767000Y-97667648D01*
X135767000Y-97872351D01*
X135799022Y-98074534D01*
X135862281Y-98269223D01*
X135955215Y-98451613D01*
X136075528Y-98617213D01*
X136220286Y-98761971D01*
X136354917Y-98859784D01*
X136385890Y-98882287D01*
X136474062Y-98927213D01*
X136478580Y-98929515D01*
X136529376Y-98977490D01*
X136546171Y-99045311D01*
X136523634Y-99111446D01*
X136478580Y-99150485D01*
X136385886Y-99197715D01*
X136220286Y-99318028D01*
X136075528Y-99462786D01*
X135955215Y-99628386D01*
X135862281Y-99810776D01*
X135799022Y-100005465D01*
X135767000Y-100207648D01*
X135767000Y-100412351D01*
X135799022Y-100614534D01*
X135862281Y-100809223D01*
X135915737Y-100914135D01*
X135955212Y-100991609D01*
X135955215Y-100991613D01*
X136075528Y-101157213D01*
X136220286Y-101301971D01*
X136354917Y-101399784D01*
X136385890Y-101422287D01*
X136474062Y-101467213D01*
X136478580Y-101469515D01*
X136529376Y-101517490D01*
X136546171Y-101585311D01*
X136523634Y-101651446D01*
X136478580Y-101690485D01*
X136385886Y-101737715D01*
X136220286Y-101858028D01*
X136075528Y-102002786D01*
X135955215Y-102168386D01*
X135862281Y-102350776D01*
X135799022Y-102545465D01*
X135767000Y-102747648D01*
X135767000Y-102952351D01*
X135799022Y-103154534D01*
X135862281Y-103349223D01*
X135955215Y-103531613D01*
X136075528Y-103697213D01*
X136220286Y-103841971D01*
X136354917Y-103939784D01*
X136385890Y-103962287D01*
X136434971Y-103987295D01*
X136479129Y-104009795D01*
X136529925Y-104057770D01*
X136546720Y-104125591D01*
X136524182Y-104191726D01*
X136479129Y-104230765D01*
X136386150Y-104278140D01*
X136220605Y-104398417D01*
X136220604Y-104398417D01*
X136075917Y-104543104D01*
X136075917Y-104543105D01*
X135955640Y-104708650D01*
X135862744Y-104890970D01*
X135799509Y-105085586D01*
X135790891Y-105140000D01*
X137151814Y-105140000D01*
X137147420Y-105144394D01*
X137094759Y-105235606D01*
X137067500Y-105337339D01*
X137067500Y-105442661D01*
X137094759Y-105544394D01*
X137147420Y-105635606D01*
X137151814Y-105640000D01*
X135790891Y-105640000D01*
X135799509Y-105694413D01*
X135862744Y-105889029D01*
X135955640Y-106071349D01*
X136075917Y-106236894D01*
X136075917Y-106236895D01*
X136220604Y-106381582D01*
X136386150Y-106501859D01*
X136568468Y-106594755D01*
X136763082Y-106657990D01*
X136965183Y-106690000D01*
X137217500Y-106690000D01*
X137217500Y-105705686D01*
X137221894Y-105710080D01*
X137313106Y-105762741D01*
X137414839Y-105790000D01*
X137520161Y-105790000D01*
X137621894Y-105762741D01*
X137713106Y-105710080D01*
X137717500Y-105705686D01*
X137717500Y-106690000D01*
X137969817Y-106690000D01*
X138171917Y-106657990D01*
X138366531Y-106594755D01*
X138548849Y-106501859D01*
X138714394Y-106381582D01*
X138714395Y-106381582D01*
X138859082Y-106236895D01*
X138859082Y-106236894D01*
X138979359Y-106071349D01*
X139072255Y-105889029D01*
X139135490Y-105694413D01*
X139144109Y-105640000D01*
X137783186Y-105640000D01*
X137787580Y-105635606D01*
X137840241Y-105544394D01*
X137867500Y-105442661D01*
X137867500Y-105337339D01*
X137840241Y-105235606D01*
X137787580Y-105144394D01*
X137783186Y-105140000D01*
X139144109Y-105140000D01*
X139135490Y-105085586D01*
X139072255Y-104890970D01*
X138979359Y-104708650D01*
X138859082Y-104543105D01*
X138859082Y-104543104D01*
X138714395Y-104398417D01*
X138548849Y-104278140D01*
X138455870Y-104230765D01*
X138405074Y-104182790D01*
X138388279Y-104114969D01*
X138410816Y-104048835D01*
X138455870Y-104009795D01*
X138456420Y-104009515D01*
X138549110Y-103962287D01*
X138614527Y-103914759D01*
X138714713Y-103841971D01*
X138714715Y-103841968D01*
X138714719Y-103841966D01*
X138859466Y-103697219D01*
X138859468Y-103697215D01*
X138859471Y-103697213D01*
X138912232Y-103624590D01*
X138979787Y-103531610D01*
X139072720Y-103349219D01*
X139135977Y-103154534D01*
X139168000Y-102952352D01*
X139168000Y-102747648D01*
X139150851Y-102639373D01*
X139135977Y-102545465D01*
X139098425Y-102429893D01*
X139072720Y-102350781D01*
X139072718Y-102350778D01*
X139072718Y-102350776D01*
X139002504Y-102212975D01*
X138979787Y-102168390D01*
X138941853Y-102116178D01*
X138859471Y-102002786D01*
X138714713Y-101858028D01*
X138549114Y-101737715D01*
X138504951Y-101715213D01*
X138456417Y-101690483D01*
X138405623Y-101642511D01*
X138388828Y-101574690D01*
X138411365Y-101508555D01*
X138456417Y-101469516D01*
X138549110Y-101422287D01*
X138580083Y-101399784D01*
X138714713Y-101301971D01*
X138714715Y-101301968D01*
X138714719Y-101301966D01*
X138859466Y-101157219D01*
X138859468Y-101157215D01*
X138859471Y-101157213D01*
X138924420Y-101067817D01*
X138979787Y-100991610D01*
X139072720Y-100809219D01*
X139135977Y-100614534D01*
X139168000Y-100412352D01*
X139168000Y-100207648D01*
X139145853Y-100067817D01*
X139135977Y-100005465D01*
X139072718Y-99810776D01*
X139020267Y-99707837D01*
X138979787Y-99628390D01*
X138954246Y-99593235D01*
X138859471Y-99462786D01*
X138714713Y-99318028D01*
X138549114Y-99197715D01*
X138504951Y-99175213D01*
X138456417Y-99150483D01*
X138405623Y-99102511D01*
X138388828Y-99034690D01*
X138411365Y-98968555D01*
X138456417Y-98929516D01*
X138549110Y-98882287D01*
X138597486Y-98847140D01*
X138714713Y-98761971D01*
X138714715Y-98761968D01*
X138714719Y-98761966D01*
X138859466Y-98617219D01*
X138859468Y-98617215D01*
X138859471Y-98617213D01*
X138928628Y-98522025D01*
X138979787Y-98451610D01*
X139072720Y-98269219D01*
X139135977Y-98074534D01*
X139168000Y-97872352D01*
X139168000Y-97667648D01*
X139154323Y-97581296D01*
X139135977Y-97465465D01*
X139072718Y-97270776D01*
X139030963Y-97188828D01*
X138979787Y-97088390D01*
X138958153Y-97058613D01*
X138859471Y-96922786D01*
X138714713Y-96778028D01*
X138549114Y-96657715D01*
X138538455Y-96652284D01*
X138456417Y-96610483D01*
X138405623Y-96562511D01*
X138388828Y-96494690D01*
X138411365Y-96428555D01*
X138456417Y-96389516D01*
X138549110Y-96342287D01*
X138618102Y-96292162D01*
X138714713Y-96221971D01*
X138714715Y-96221968D01*
X138714719Y-96221966D01*
X138859466Y-96077219D01*
X138859468Y-96077215D01*
X138859471Y-96077213D01*
X138925823Y-95985886D01*
X138979787Y-95911610D01*
X139072720Y-95729219D01*
X139135977Y-95534534D01*
X139168000Y-95332352D01*
X139168000Y-95127648D01*
X139135977Y-94925466D01*
X139132975Y-94916228D01*
X139079588Y-94751918D01*
X139072720Y-94730781D01*
X139072718Y-94730778D01*
X139072718Y-94730776D01*
X139039003Y-94664607D01*
X138979787Y-94548390D01*
X138939525Y-94492973D01*
X138859471Y-94382786D01*
X138714713Y-94238028D01*
X138549114Y-94117715D01*
X138504951Y-94095213D01*
X138456417Y-94070483D01*
X138405623Y-94022511D01*
X138388828Y-93954690D01*
X138411365Y-93888555D01*
X138456417Y-93849516D01*
X138549110Y-93802287D01*
X138610847Y-93757433D01*
X138714713Y-93681971D01*
X138714715Y-93681968D01*
X138714719Y-93681966D01*
X138859466Y-93537219D01*
X138859468Y-93537215D01*
X138859471Y-93537213D01*
X138940181Y-93426123D01*
X138979787Y-93371610D01*
X139072720Y-93189219D01*
X139135977Y-92994534D01*
X139168000Y-92792352D01*
X139168000Y-92587648D01*
X139163808Y-92561182D01*
X139135977Y-92385465D01*
X139072718Y-92190776D01*
X139039003Y-92124607D01*
X138979787Y-92008390D01*
X138958153Y-91978613D01*
X138859471Y-91842786D01*
X138714713Y-91698028D01*
X138670943Y-91666228D01*
X141649500Y-91666228D01*
X141649500Y-91833771D01*
X141682182Y-91998074D01*
X141682184Y-91998082D01*
X141746295Y-92152860D01*
X141828602Y-92276040D01*
X141849480Y-92342717D01*
X141849500Y-92344931D01*
X141849500Y-95405068D01*
X141829815Y-95472107D01*
X141828602Y-95473959D01*
X141746295Y-95597139D01*
X141682184Y-95751917D01*
X141682182Y-95751925D01*
X141649500Y-95916228D01*
X141649500Y-96083771D01*
X141682182Y-96248074D01*
X141682184Y-96248082D01*
X141746295Y-96402860D01*
X141839373Y-96542162D01*
X141957837Y-96660626D01*
X142037237Y-96713679D01*
X142097137Y-96753703D01*
X142097138Y-96753703D01*
X142097139Y-96753704D01*
X142101557Y-96755534D01*
X142251918Y-96817816D01*
X142347851Y-96836898D01*
X142416228Y-96850499D01*
X142416232Y-96850500D01*
X142416233Y-96850500D01*
X142583768Y-96850500D01*
X142583769Y-96850499D01*
X142748082Y-96817816D01*
X142902863Y-96753703D01*
X143042162Y-96660626D01*
X143160626Y-96542162D01*
X143253703Y-96402863D01*
X143317816Y-96248082D01*
X143323754Y-96218227D01*
X143356136Y-96156318D01*
X143416851Y-96121742D01*
X143486621Y-96125480D01*
X143533052Y-96154737D01*
X143600286Y-96221971D01*
X143745967Y-96327812D01*
X143765890Y-96342287D01*
X143854062Y-96387213D01*
X143858580Y-96389515D01*
X143909376Y-96437490D01*
X143926171Y-96505311D01*
X143903634Y-96571446D01*
X143858580Y-96610485D01*
X143765886Y-96657715D01*
X143600286Y-96778028D01*
X143455528Y-96922786D01*
X143335215Y-97088386D01*
X143242281Y-97270776D01*
X143179022Y-97465465D01*
X143147000Y-97667648D01*
X143147000Y-97872351D01*
X143179022Y-98074534D01*
X143242281Y-98269223D01*
X143335215Y-98451613D01*
X143455528Y-98617213D01*
X143600286Y-98761971D01*
X143734917Y-98859784D01*
X143765890Y-98882287D01*
X143854062Y-98927213D01*
X143858580Y-98929515D01*
X143909376Y-98977490D01*
X143926171Y-99045311D01*
X143903634Y-99111446D01*
X143858580Y-99150485D01*
X143765886Y-99197715D01*
X143600286Y-99318028D01*
X143455528Y-99462786D01*
X143335215Y-99628386D01*
X143242281Y-99810776D01*
X143179022Y-100005465D01*
X143147000Y-100207648D01*
X143147000Y-100412351D01*
X143179022Y-100614534D01*
X143242281Y-100809223D01*
X143295737Y-100914135D01*
X143335212Y-100991609D01*
X143335215Y-100991613D01*
X143455528Y-101157213D01*
X143600286Y-101301971D01*
X143734917Y-101399784D01*
X143765890Y-101422287D01*
X143837924Y-101458990D01*
X143859129Y-101469795D01*
X143909925Y-101517770D01*
X143926720Y-101585591D01*
X143904182Y-101651726D01*
X143859129Y-101690765D01*
X143766150Y-101738140D01*
X143600605Y-101858417D01*
X143600604Y-101858417D01*
X143455917Y-102003104D01*
X143455917Y-102003105D01*
X143335640Y-102168650D01*
X143242744Y-102350970D01*
X143179509Y-102545586D01*
X143170891Y-102600000D01*
X144531814Y-102600000D01*
X144527420Y-102604394D01*
X144474759Y-102695606D01*
X144447500Y-102797339D01*
X144447500Y-102902661D01*
X144474759Y-103004394D01*
X144527420Y-103095606D01*
X144531814Y-103100000D01*
X143170891Y-103100000D01*
X143179509Y-103154413D01*
X143242744Y-103349029D01*
X143335640Y-103531349D01*
X143455917Y-103696894D01*
X143455917Y-103696895D01*
X143600604Y-103841582D01*
X143766150Y-103961859D01*
X143859679Y-104009515D01*
X143910475Y-104057490D01*
X143927270Y-104125311D01*
X143904732Y-104191446D01*
X143859679Y-104230485D01*
X143766150Y-104278140D01*
X143600605Y-104398417D01*
X143600604Y-104398417D01*
X143455917Y-104543104D01*
X143455917Y-104543105D01*
X143335640Y-104708650D01*
X143242744Y-104890970D01*
X143179509Y-105085586D01*
X143170891Y-105140000D01*
X144531814Y-105140000D01*
X144527420Y-105144394D01*
X144474759Y-105235606D01*
X144447500Y-105337339D01*
X144447500Y-105442661D01*
X144474759Y-105544394D01*
X144527420Y-105635606D01*
X144531814Y-105640000D01*
X143170891Y-105640000D01*
X143179509Y-105694413D01*
X143242744Y-105889029D01*
X143335640Y-106071349D01*
X143455917Y-106236894D01*
X143455917Y-106236895D01*
X143600604Y-106381582D01*
X143766150Y-106501859D01*
X143948468Y-106594755D01*
X144143082Y-106657990D01*
X144345183Y-106690000D01*
X144597500Y-106690000D01*
X144597500Y-105705686D01*
X144601894Y-105710080D01*
X144693106Y-105762741D01*
X144794839Y-105790000D01*
X144900161Y-105790000D01*
X145001894Y-105762741D01*
X145093106Y-105710080D01*
X145097500Y-105705686D01*
X145097500Y-106690000D01*
X145349817Y-106690000D01*
X145551917Y-106657990D01*
X145746531Y-106594755D01*
X145928849Y-106501859D01*
X146094394Y-106381582D01*
X146094395Y-106381582D01*
X146239082Y-106236895D01*
X146239082Y-106236894D01*
X146359359Y-106071349D01*
X146452255Y-105889029D01*
X146515490Y-105694413D01*
X146524109Y-105640000D01*
X145163186Y-105640000D01*
X145167580Y-105635606D01*
X145220241Y-105544394D01*
X145247500Y-105442661D01*
X145247500Y-105337339D01*
X145220241Y-105235606D01*
X145167580Y-105144394D01*
X145163186Y-105140000D01*
X146524109Y-105140000D01*
X146515490Y-105085586D01*
X146452255Y-104890970D01*
X146359359Y-104708650D01*
X146239082Y-104543105D01*
X146239082Y-104543104D01*
X146094395Y-104398417D01*
X145928849Y-104278140D01*
X145835320Y-104230485D01*
X145784524Y-104182511D01*
X145767729Y-104114690D01*
X145790266Y-104048555D01*
X145835320Y-104009515D01*
X145928849Y-103961859D01*
X146094394Y-103841582D01*
X146094395Y-103841582D01*
X146239082Y-103696895D01*
X146239082Y-103696894D01*
X146359359Y-103531349D01*
X146452255Y-103349029D01*
X146515490Y-103154413D01*
X146524109Y-103100000D01*
X145163186Y-103100000D01*
X145167580Y-103095606D01*
X145220241Y-103004394D01*
X145247500Y-102902661D01*
X145247500Y-102797339D01*
X145220241Y-102695606D01*
X145167580Y-102604394D01*
X145163186Y-102600000D01*
X146524109Y-102600000D01*
X146515490Y-102545586D01*
X146452255Y-102350970D01*
X146359359Y-102168650D01*
X146239082Y-102003105D01*
X146239082Y-102003104D01*
X146094395Y-101858417D01*
X145928849Y-101738140D01*
X145835870Y-101690765D01*
X145785074Y-101642790D01*
X145768279Y-101574969D01*
X145790816Y-101508835D01*
X145835870Y-101469795D01*
X145840926Y-101467219D01*
X145929110Y-101422287D01*
X145960083Y-101399784D01*
X146094713Y-101301971D01*
X146094715Y-101301968D01*
X146094719Y-101301966D01*
X146239466Y-101157219D01*
X146359787Y-100991610D01*
X146364821Y-100981729D01*
X146412790Y-100930935D01*
X146480610Y-100914135D01*
X146544195Y-100934919D01*
X146647137Y-101003703D01*
X146801918Y-101067816D01*
X146882110Y-101083767D01*
X146947218Y-101096718D01*
X147009129Y-101129102D01*
X147010708Y-101130654D01*
X148178932Y-102298878D01*
X148212417Y-102360201D01*
X148207433Y-102429893D01*
X148165561Y-102485826D01*
X148100097Y-102510243D01*
X148043799Y-102501120D01*
X147998086Y-102482185D01*
X147998074Y-102482182D01*
X147833771Y-102449500D01*
X147833767Y-102449500D01*
X147666233Y-102449500D01*
X147666228Y-102449500D01*
X147501925Y-102482182D01*
X147501917Y-102482184D01*
X147347139Y-102546295D01*
X147207837Y-102639373D01*
X147089373Y-102757837D01*
X146996295Y-102897139D01*
X146932184Y-103051917D01*
X146932182Y-103051925D01*
X146899500Y-103216228D01*
X146899500Y-103383771D01*
X146932182Y-103548074D01*
X146932184Y-103548082D01*
X146996295Y-103702860D01*
X146996296Y-103702862D01*
X146996297Y-103702863D01*
X147075599Y-103821547D01*
X147078602Y-103826040D01*
X147084252Y-103844086D01*
X147094477Y-103859996D01*
X147098928Y-103890955D01*
X147099480Y-103892717D01*
X147099500Y-103894931D01*
X147099500Y-104105068D01*
X147079815Y-104172107D01*
X147078602Y-104173959D01*
X146996295Y-104297139D01*
X146932184Y-104451917D01*
X146932182Y-104451925D01*
X146899500Y-104616228D01*
X146899500Y-104783771D01*
X146932182Y-104948074D01*
X146932184Y-104948082D01*
X146996295Y-105102860D01*
X147089373Y-105242162D01*
X147207837Y-105360626D01*
X147268570Y-105401206D01*
X147347137Y-105453703D01*
X147501918Y-105517816D01*
X147635536Y-105544394D01*
X147666228Y-105550499D01*
X147666232Y-105550500D01*
X147666233Y-105550500D01*
X147833768Y-105550500D01*
X147833769Y-105550499D01*
X147998082Y-105517816D01*
X148152863Y-105453703D01*
X148292162Y-105360626D01*
X148410626Y-105242162D01*
X148503703Y-105102863D01*
X148567816Y-104948082D01*
X148600500Y-104783767D01*
X148600500Y-104616233D01*
X148567816Y-104451918D01*
X148503703Y-104297137D01*
X148428897Y-104185182D01*
X148421398Y-104173959D01*
X148415747Y-104155912D01*
X148405523Y-104140003D01*
X148401071Y-104109041D01*
X148400520Y-104107281D01*
X148400500Y-104105068D01*
X148400500Y-103894931D01*
X148420185Y-103827892D01*
X148421398Y-103826040D01*
X148503703Y-103702863D01*
X148567816Y-103548082D01*
X148600500Y-103383767D01*
X148600500Y-103216233D01*
X148567816Y-103051918D01*
X148548878Y-103006200D01*
X148541410Y-102936732D01*
X148572685Y-102874252D01*
X148632774Y-102838600D01*
X148702599Y-102841093D01*
X148751121Y-102871067D01*
X149563181Y-103683127D01*
X149596666Y-103744450D01*
X149599500Y-103770808D01*
X149599500Y-106314069D01*
X149599500Y-106314071D01*
X149599499Y-106314071D01*
X149624497Y-106439738D01*
X149624499Y-106439744D01*
X149673535Y-106558127D01*
X149744723Y-106664669D01*
X149744726Y-106664673D01*
X151335324Y-108255271D01*
X151335331Y-108255277D01*
X151441871Y-108326464D01*
X151441870Y-108326464D01*
X151476544Y-108340826D01*
X151560256Y-108375501D01*
X151560260Y-108375501D01*
X151560261Y-108375502D01*
X151685928Y-108400500D01*
X151685931Y-108400500D01*
X160564071Y-108400500D01*
X160648615Y-108383682D01*
X160689744Y-108375501D01*
X160808127Y-108326465D01*
X160914669Y-108255277D01*
X163502802Y-105667144D01*
X163573990Y-105560602D01*
X163589849Y-105522314D01*
X163623026Y-105442219D01*
X163648025Y-105316544D01*
X163648025Y-98092456D01*
X163667710Y-98025417D01*
X163668923Y-98023565D01*
X163699604Y-97977648D01*
X163751228Y-97900388D01*
X163815341Y-97745607D01*
X163848025Y-97581292D01*
X163848025Y-97413758D01*
X163815341Y-97249443D01*
X163751228Y-97094662D01*
X163669773Y-96972756D01*
X163658151Y-96955362D01*
X163539687Y-96836898D01*
X163400385Y-96743820D01*
X163245607Y-96679709D01*
X163245599Y-96679707D01*
X163081296Y-96647025D01*
X163081292Y-96647025D01*
X162913758Y-96647025D01*
X162913753Y-96647025D01*
X162749450Y-96679707D01*
X162749442Y-96679709D01*
X162594664Y-96743820D01*
X162455362Y-96836898D01*
X162336898Y-96955362D01*
X162243820Y-97094664D01*
X162179709Y-97249442D01*
X162179707Y-97249450D01*
X162147025Y-97413753D01*
X162147025Y-97581296D01*
X162179707Y-97745599D01*
X162179709Y-97745607D01*
X162243820Y-97900385D01*
X162326127Y-98023565D01*
X162347005Y-98090242D01*
X162347025Y-98092456D01*
X162347025Y-104931667D01*
X162327340Y-104998706D01*
X162310706Y-105019348D01*
X160266873Y-107063181D01*
X160205550Y-107096666D01*
X160179192Y-107099500D01*
X152070808Y-107099500D01*
X152003769Y-107079815D01*
X151983127Y-107063181D01*
X151812947Y-106893001D01*
X151779462Y-106831678D01*
X151784446Y-106761986D01*
X151826318Y-106706053D01*
X151891782Y-106681636D01*
X151920028Y-106682847D01*
X151965185Y-106690000D01*
X152217500Y-106690000D01*
X152217500Y-105705686D01*
X152221894Y-105710080D01*
X152313106Y-105762741D01*
X152414839Y-105790000D01*
X152520161Y-105790000D01*
X152621894Y-105762741D01*
X152713106Y-105710080D01*
X152717500Y-105705686D01*
X152717500Y-106690000D01*
X152969817Y-106690000D01*
X153171917Y-106657990D01*
X153366531Y-106594755D01*
X153548849Y-106501859D01*
X153714394Y-106381582D01*
X153714395Y-106381582D01*
X153859082Y-106236895D01*
X153859082Y-106236894D01*
X153979359Y-106071349D01*
X154072255Y-105889029D01*
X154135490Y-105694413D01*
X154144109Y-105640000D01*
X152783186Y-105640000D01*
X152787580Y-105635606D01*
X152840241Y-105544394D01*
X152867500Y-105442661D01*
X152867500Y-105337339D01*
X152840241Y-105235606D01*
X152787580Y-105144394D01*
X152783186Y-105140000D01*
X154144109Y-105140000D01*
X154135490Y-105085586D01*
X154072255Y-104890970D01*
X153979359Y-104708650D01*
X153859082Y-104543105D01*
X153859082Y-104543104D01*
X153714395Y-104398417D01*
X153548849Y-104278140D01*
X153455870Y-104230765D01*
X153405074Y-104182790D01*
X153388279Y-104114969D01*
X153410816Y-104048835D01*
X153455870Y-104009795D01*
X153456420Y-104009515D01*
X153549110Y-103962287D01*
X153614527Y-103914759D01*
X153714713Y-103841971D01*
X153714715Y-103841968D01*
X153714719Y-103841966D01*
X153859466Y-103697219D01*
X153859468Y-103697215D01*
X153859471Y-103697213D01*
X153912232Y-103624590D01*
X153979787Y-103531610D01*
X154072720Y-103349219D01*
X154135977Y-103154534D01*
X154168000Y-102952352D01*
X154168000Y-102747648D01*
X154150851Y-102639373D01*
X154135977Y-102545465D01*
X154098425Y-102429893D01*
X154072720Y-102350781D01*
X154072718Y-102350778D01*
X154072718Y-102350776D01*
X154002504Y-102212975D01*
X153979787Y-102168390D01*
X153941853Y-102116178D01*
X153859471Y-102002786D01*
X153714713Y-101858028D01*
X153549114Y-101737715D01*
X153504951Y-101715213D01*
X153456417Y-101690483D01*
X153405623Y-101642511D01*
X153388828Y-101574690D01*
X153411365Y-101508555D01*
X153456417Y-101469516D01*
X153549110Y-101422287D01*
X153580083Y-101399784D01*
X153714713Y-101301971D01*
X153714715Y-101301968D01*
X153714719Y-101301966D01*
X153859466Y-101157219D01*
X153859468Y-101157215D01*
X153859471Y-101157213D01*
X153924420Y-101067817D01*
X153979787Y-100991610D01*
X154072720Y-100809219D01*
X154135977Y-100614534D01*
X154168000Y-100412352D01*
X154168000Y-100207648D01*
X154155020Y-100125697D01*
X154163974Y-100056406D01*
X154208970Y-100002954D01*
X154275722Y-99982314D01*
X154343036Y-100001039D01*
X154346352Y-100003178D01*
X154347137Y-100003703D01*
X154501918Y-100067816D01*
X154666228Y-100100499D01*
X154666232Y-100100500D01*
X154666233Y-100100500D01*
X154833768Y-100100500D01*
X154833769Y-100100499D01*
X154998082Y-100067816D01*
X155152863Y-100003703D01*
X155292162Y-99910626D01*
X155410626Y-99792162D01*
X155503703Y-99652863D01*
X155567816Y-99498082D01*
X155600500Y-99333767D01*
X155600500Y-99166233D01*
X155567816Y-99001918D01*
X155503703Y-98847137D01*
X155446793Y-98761966D01*
X155421398Y-98723959D01*
X155400520Y-98657281D01*
X155400500Y-98655068D01*
X155400500Y-90844931D01*
X155420185Y-90777892D01*
X155421398Y-90776040D01*
X155503703Y-90652863D01*
X155567816Y-90498082D01*
X155600500Y-90333767D01*
X155600500Y-90166233D01*
X155567816Y-90001918D01*
X155503703Y-89847137D01*
X155443883Y-89757610D01*
X155410626Y-89707837D01*
X155292162Y-89589373D01*
X155152860Y-89496295D01*
X154998082Y-89432184D01*
X154998074Y-89432182D01*
X154833771Y-89399500D01*
X154833767Y-89399500D01*
X154666233Y-89399500D01*
X154666228Y-89399500D01*
X154501925Y-89432182D01*
X154501917Y-89432184D01*
X154347139Y-89496295D01*
X154202773Y-89592758D01*
X154201757Y-89591237D01*
X154145335Y-89615191D01*
X154076469Y-89603390D01*
X154024915Y-89556231D01*
X154020512Y-89548318D01*
X153979784Y-89468385D01*
X153859471Y-89302786D01*
X153714713Y-89158028D01*
X153549114Y-89037715D01*
X153504951Y-89015213D01*
X153456417Y-88990483D01*
X153405623Y-88942511D01*
X153388828Y-88874690D01*
X153411365Y-88808555D01*
X153456417Y-88769516D01*
X153549110Y-88722287D01*
X153580083Y-88699784D01*
X153714713Y-88601971D01*
X153714715Y-88601968D01*
X153714719Y-88601966D01*
X153859466Y-88457219D01*
X153859468Y-88457215D01*
X153859471Y-88457213D01*
X153964392Y-88312799D01*
X153979787Y-88291610D01*
X154072720Y-88109219D01*
X154135977Y-87914534D01*
X154168000Y-87712352D01*
X154168000Y-87507648D01*
X154135977Y-87305466D01*
X154128666Y-87282966D01*
X154072718Y-87110776D01*
X154021365Y-87009991D01*
X153979787Y-86928390D01*
X153948045Y-86884700D01*
X153859471Y-86762786D01*
X153714713Y-86618028D01*
X153549113Y-86497715D01*
X153549112Y-86497714D01*
X153549110Y-86497713D01*
X153489398Y-86467288D01*
X153366723Y-86404781D01*
X153172034Y-86341522D01*
X152997495Y-86313878D01*
X152969852Y-86309500D01*
X151965148Y-86309500D01*
X151940829Y-86313351D01*
X151762965Y-86341522D01*
X151568276Y-86404781D01*
X151385886Y-86497715D01*
X151220286Y-86618028D01*
X151075528Y-86762786D01*
X150955215Y-86928386D01*
X150862281Y-87110776D01*
X150799022Y-87305465D01*
X150770564Y-87485148D01*
X150767000Y-87507648D01*
X150767000Y-87712352D01*
X150771378Y-87739995D01*
X150799022Y-87914534D01*
X150862281Y-88109223D01*
X150955215Y-88291613D01*
X151075528Y-88457213D01*
X151220286Y-88601971D01*
X151354917Y-88699784D01*
X151385890Y-88722287D01*
X151474625Y-88767500D01*
X151478580Y-88769515D01*
X151529376Y-88817490D01*
X151546171Y-88885311D01*
X151523634Y-88951446D01*
X151478580Y-88990485D01*
X151385886Y-89037715D01*
X151220286Y-89158028D01*
X151075528Y-89302786D01*
X150955215Y-89468386D01*
X150862281Y-89650776D01*
X150799022Y-89845465D01*
X150767000Y-90047648D01*
X150767000Y-90252351D01*
X150799022Y-90454534D01*
X150862281Y-90649223D01*
X150955215Y-90831613D01*
X151075528Y-90997213D01*
X151220286Y-91141971D01*
X151354917Y-91239784D01*
X151385890Y-91262287D01*
X151475357Y-91307873D01*
X151478580Y-91309515D01*
X151529376Y-91357490D01*
X151546171Y-91425311D01*
X151523634Y-91491446D01*
X151478580Y-91530485D01*
X151385886Y-91577715D01*
X151220286Y-91698028D01*
X151075528Y-91842786D01*
X150955215Y-92008386D01*
X150862281Y-92190776D01*
X150799022Y-92385465D01*
X150767000Y-92587648D01*
X150767000Y-92792351D01*
X150799022Y-92994534D01*
X150862281Y-93189223D01*
X150955215Y-93371613D01*
X151075528Y-93537213D01*
X151220286Y-93681971D01*
X151375249Y-93794556D01*
X151385890Y-93802287D01*
X151474062Y-93847213D01*
X151478580Y-93849515D01*
X151529376Y-93897490D01*
X151546171Y-93965311D01*
X151523634Y-94031446D01*
X151478580Y-94070485D01*
X151385886Y-94117715D01*
X151220286Y-94238028D01*
X151075528Y-94382786D01*
X150955215Y-94548386D01*
X150862281Y-94730776D01*
X150799022Y-94925465D01*
X150767000Y-95127648D01*
X150767000Y-95332351D01*
X150799022Y-95534534D01*
X150862281Y-95729223D01*
X150955215Y-95911613D01*
X151075528Y-96077213D01*
X151220286Y-96221971D01*
X151365967Y-96327812D01*
X151385890Y-96342287D01*
X151474062Y-96387213D01*
X151478580Y-96389515D01*
X151529376Y-96437490D01*
X151546171Y-96505311D01*
X151523634Y-96571446D01*
X151478580Y-96610485D01*
X151385886Y-96657715D01*
X151220286Y-96778028D01*
X151075528Y-96922786D01*
X150955215Y-97088386D01*
X150862281Y-97270776D01*
X150799022Y-97465465D01*
X150767000Y-97667648D01*
X150767000Y-97872351D01*
X150799022Y-98074534D01*
X150862281Y-98269223D01*
X150955215Y-98451613D01*
X151075528Y-98617213D01*
X151220286Y-98761971D01*
X151354917Y-98859784D01*
X151385890Y-98882287D01*
X151474062Y-98927213D01*
X151478580Y-98929515D01*
X151529376Y-98977490D01*
X151546171Y-99045311D01*
X151523634Y-99111446D01*
X151478580Y-99150485D01*
X151385886Y-99197715D01*
X151220286Y-99318028D01*
X151075528Y-99462786D01*
X150955215Y-99628386D01*
X150862281Y-99810776D01*
X150799022Y-100005465D01*
X150767000Y-100207648D01*
X150767000Y-100412351D01*
X150799022Y-100614534D01*
X150862281Y-100809223D01*
X150915737Y-100914135D01*
X150955212Y-100991609D01*
X150955215Y-100991613D01*
X151075528Y-101157213D01*
X151220286Y-101301971D01*
X151354917Y-101399784D01*
X151385890Y-101422287D01*
X151474062Y-101467213D01*
X151478580Y-101469515D01*
X151529376Y-101517490D01*
X151546171Y-101585311D01*
X151523634Y-101651446D01*
X151478580Y-101690485D01*
X151385886Y-101737715D01*
X151220286Y-101858028D01*
X151075528Y-102002786D01*
X150955215Y-102168386D01*
X150862281Y-102350776D01*
X150799022Y-102545465D01*
X150767000Y-102747648D01*
X150767000Y-102747691D01*
X150766995Y-102747706D01*
X150766617Y-102752511D01*
X150765608Y-102752431D01*
X150747315Y-102814730D01*
X150694511Y-102860485D01*
X150625353Y-102870429D01*
X150561797Y-102841404D01*
X150555319Y-102835372D01*
X147930654Y-100210708D01*
X147897169Y-100149385D01*
X147896718Y-100147218D01*
X147878654Y-100056406D01*
X147867816Y-100001918D01*
X147803703Y-99847137D01*
X147754020Y-99772781D01*
X147710626Y-99707837D01*
X147592162Y-99589373D01*
X147452860Y-99496295D01*
X147298082Y-99432184D01*
X147298074Y-99432182D01*
X147133771Y-99399500D01*
X147133767Y-99399500D01*
X146966233Y-99399500D01*
X146966228Y-99399500D01*
X146801925Y-99432182D01*
X146801917Y-99432184D01*
X146647139Y-99496295D01*
X146507841Y-99589371D01*
X146503134Y-99593235D01*
X146502276Y-99592190D01*
X146446992Y-99622369D01*
X146377301Y-99617375D01*
X146321373Y-99575496D01*
X146320376Y-99574145D01*
X146239466Y-99462781D01*
X146094719Y-99318034D01*
X146094713Y-99318028D01*
X145929114Y-99197715D01*
X145884951Y-99175213D01*
X145836417Y-99150483D01*
X145785623Y-99102511D01*
X145768828Y-99034690D01*
X145791365Y-98968555D01*
X145836417Y-98929516D01*
X145929110Y-98882287D01*
X145977486Y-98847140D01*
X146094713Y-98761971D01*
X146094715Y-98761968D01*
X146094719Y-98761966D01*
X146239466Y-98617219D01*
X146239468Y-98617215D01*
X146239471Y-98617213D01*
X146308628Y-98522025D01*
X146359787Y-98451610D01*
X146452720Y-98269219D01*
X146515977Y-98074534D01*
X146548000Y-97872352D01*
X146548000Y-97667648D01*
X146534323Y-97581296D01*
X146515977Y-97465465D01*
X146452718Y-97270776D01*
X146410963Y-97188828D01*
X146359787Y-97088390D01*
X146338153Y-97058613D01*
X146239471Y-96922786D01*
X146094713Y-96778028D01*
X145929114Y-96657715D01*
X145918455Y-96652284D01*
X145836417Y-96610483D01*
X145830862Y-96605237D01*
X145823577Y-96602937D01*
X145805818Y-96581584D01*
X145785623Y-96562511D01*
X145783785Y-96555092D01*
X145778900Y-96549218D01*
X145775503Y-96521648D01*
X145768828Y-96494690D01*
X145771292Y-96487458D01*
X145770358Y-96479873D01*
X145782406Y-96454843D01*
X145791365Y-96428555D01*
X145798109Y-96422223D01*
X145800663Y-96416918D01*
X145817522Y-96403997D01*
X145827799Y-96394349D01*
X145832006Y-96391763D01*
X145929110Y-96342287D01*
X146019972Y-96276271D01*
X146024056Y-96273763D01*
X146053329Y-96265807D01*
X146081892Y-96255616D01*
X146086707Y-96256735D01*
X146091480Y-96255439D01*
X146120405Y-96264572D01*
X146149946Y-96271442D01*
X146153392Y-96274987D01*
X146158108Y-96276477D01*
X146177501Y-96299794D01*
X146198641Y-96321547D01*
X146202596Y-96329969D01*
X146202785Y-96330196D01*
X146202814Y-96330432D01*
X146203532Y-96331961D01*
X146216320Y-96362835D01*
X146309398Y-96502137D01*
X146427862Y-96620601D01*
X146487764Y-96660626D01*
X146567162Y-96713678D01*
X146721943Y-96777791D01*
X146851866Y-96803634D01*
X146886253Y-96810474D01*
X146886257Y-96810475D01*
X146886258Y-96810475D01*
X147053793Y-96810475D01*
X147053794Y-96810474D01*
X147218107Y-96777791D01*
X147372888Y-96713678D01*
X147512187Y-96620601D01*
X147630651Y-96502137D01*
X147723728Y-96362838D01*
X147787841Y-96208057D01*
X147820525Y-96043742D01*
X147820525Y-95876208D01*
X147787841Y-95711893D01*
X147723728Y-95557112D01*
X147650629Y-95447712D01*
X147641423Y-95433934D01*
X147620545Y-95367256D01*
X147620525Y-95365043D01*
X147620525Y-94012625D01*
X147640210Y-93945586D01*
X147656844Y-93924943D01*
X147660626Y-93921162D01*
X147753703Y-93781863D01*
X147817816Y-93627082D01*
X147850500Y-93462767D01*
X147850500Y-93295233D01*
X147817816Y-93130918D01*
X147753703Y-92976137D01*
X147669087Y-92849500D01*
X147660626Y-92836837D01*
X147542162Y-92718373D01*
X147402860Y-92625295D01*
X147248082Y-92561184D01*
X147248074Y-92561182D01*
X147083771Y-92528500D01*
X147083767Y-92528500D01*
X146916233Y-92528500D01*
X146916228Y-92528500D01*
X146751925Y-92561182D01*
X146751918Y-92561184D01*
X146701938Y-92581886D01*
X146632469Y-92589354D01*
X146569990Y-92558078D01*
X146534338Y-92497989D01*
X146532014Y-92486721D01*
X146515977Y-92385466D01*
X146515977Y-92385465D01*
X146452718Y-92190776D01*
X146419003Y-92124607D01*
X146359787Y-92008390D01*
X146338153Y-91978613D01*
X146239471Y-91842786D01*
X146094713Y-91698028D01*
X145929114Y-91577715D01*
X145884951Y-91555213D01*
X145836417Y-91530483D01*
X145785623Y-91482511D01*
X145768828Y-91414690D01*
X145791365Y-91348555D01*
X145836417Y-91309516D01*
X145929110Y-91262287D01*
X145960083Y-91239784D01*
X146094713Y-91141971D01*
X146094715Y-91141968D01*
X146094719Y-91141966D01*
X146239466Y-90997219D01*
X146239468Y-90997215D01*
X146239471Y-90997213D01*
X146310462Y-90899500D01*
X146359787Y-90831610D01*
X146452720Y-90649219D01*
X146515977Y-90454534D01*
X146548000Y-90252352D01*
X146548000Y-90047648D01*
X146516697Y-89850009D01*
X146515977Y-89845465D01*
X146471259Y-89707838D01*
X146452720Y-89650781D01*
X146452718Y-89650778D01*
X146452718Y-89650776D01*
X146400512Y-89548318D01*
X146359787Y-89468390D01*
X146322938Y-89417671D01*
X146239471Y-89302786D01*
X146094719Y-89158034D01*
X146094711Y-89158028D01*
X146001047Y-89089978D01*
X145958382Y-89034649D01*
X145952403Y-88965036D01*
X145985008Y-88903240D01*
X146034926Y-88871955D01*
X146116834Y-88844814D01*
X146266156Y-88752712D01*
X146390212Y-88628656D01*
X146482314Y-88479334D01*
X146537499Y-88312797D01*
X146548000Y-88210009D01*
X146547999Y-87009992D01*
X146545699Y-86987481D01*
X146537499Y-86907203D01*
X146537498Y-86907200D01*
X146530042Y-86884700D01*
X146482314Y-86740666D01*
X146390212Y-86591344D01*
X146266156Y-86467288D01*
X146158820Y-86401083D01*
X146116836Y-86375187D01*
X146116831Y-86375185D01*
X146115362Y-86374698D01*
X145950297Y-86320001D01*
X145950295Y-86320000D01*
X145847510Y-86309500D01*
X143847498Y-86309500D01*
X143847481Y-86309501D01*
X143744703Y-86320000D01*
X143744700Y-86320001D01*
X143578168Y-86375185D01*
X143578163Y-86375187D01*
X143428842Y-86467289D01*
X143304789Y-86591342D01*
X143212687Y-86740663D01*
X143212686Y-86740666D01*
X143157501Y-86907203D01*
X143157501Y-86907204D01*
X143157500Y-86907204D01*
X143147000Y-87009983D01*
X143147000Y-87009996D01*
X143147001Y-88209995D01*
X143147001Y-88210018D01*
X143157500Y-88312796D01*
X143157501Y-88312799D01*
X143212685Y-88479331D01*
X143212687Y-88479336D01*
X143247569Y-88535888D01*
X143304788Y-88628656D01*
X143428844Y-88752712D01*
X143578166Y-88844814D01*
X143660070Y-88871954D01*
X143717515Y-88911727D01*
X143744338Y-88976243D01*
X143732023Y-89045018D01*
X143693951Y-89089978D01*
X143600287Y-89158028D01*
X143600282Y-89158032D01*
X143455528Y-89302786D01*
X143335215Y-89468386D01*
X143242281Y-89650776D01*
X143179022Y-89845465D01*
X143147000Y-90047648D01*
X143147000Y-90252351D01*
X143179022Y-90454534D01*
X143242281Y-90649223D01*
X143335215Y-90831613D01*
X143455528Y-90997213D01*
X143600286Y-91141971D01*
X143734917Y-91239784D01*
X143765890Y-91262287D01*
X143855357Y-91307873D01*
X143858580Y-91309515D01*
X143909376Y-91357490D01*
X143926171Y-91425311D01*
X143903634Y-91491446D01*
X143858580Y-91530485D01*
X143765886Y-91577715D01*
X143600286Y-91698028D01*
X143561132Y-91737182D01*
X143499809Y-91770667D01*
X143430117Y-91765681D01*
X143374184Y-91723809D01*
X143353972Y-91671753D01*
X143351689Y-91672208D01*
X143323498Y-91530485D01*
X143317816Y-91501918D01*
X143262130Y-91367482D01*
X143253704Y-91347139D01*
X143245586Y-91334990D01*
X143181972Y-91239784D01*
X143160626Y-91207837D01*
X143042162Y-91089373D01*
X142902860Y-90996295D01*
X142748082Y-90932184D01*
X142748074Y-90932182D01*
X142583771Y-90899500D01*
X142583767Y-90899500D01*
X142416233Y-90899500D01*
X142416228Y-90899500D01*
X142251925Y-90932182D01*
X142251917Y-90932184D01*
X142097139Y-90996295D01*
X141957837Y-91089373D01*
X141839373Y-91207837D01*
X141746295Y-91347139D01*
X141682184Y-91501917D01*
X141682182Y-91501925D01*
X141649500Y-91666228D01*
X138670943Y-91666228D01*
X138549114Y-91577715D01*
X138504951Y-91555213D01*
X138456417Y-91530483D01*
X138405623Y-91482511D01*
X138388828Y-91414690D01*
X138411365Y-91348555D01*
X138456417Y-91309516D01*
X138549110Y-91262287D01*
X138580083Y-91239784D01*
X138714713Y-91141971D01*
X138714715Y-91141968D01*
X138714719Y-91141966D01*
X138859466Y-90997219D01*
X138859468Y-90997215D01*
X138859471Y-90997213D01*
X138930462Y-90899500D01*
X138979787Y-90831610D01*
X139072720Y-90649219D01*
X139135977Y-90454534D01*
X139168000Y-90252352D01*
X139168000Y-90047648D01*
X139136697Y-89850009D01*
X139135977Y-89845465D01*
X139091259Y-89707838D01*
X139072720Y-89650781D01*
X139072718Y-89650778D01*
X139072718Y-89650776D01*
X139020512Y-89548318D01*
X138979787Y-89468390D01*
X138942938Y-89417671D01*
X138859471Y-89302786D01*
X138714713Y-89158028D01*
X138549114Y-89037715D01*
X138504951Y-89015213D01*
X138456417Y-88990483D01*
X138405623Y-88942511D01*
X138388828Y-88874690D01*
X138411365Y-88808555D01*
X138456417Y-88769516D01*
X138549110Y-88722287D01*
X138580083Y-88699784D01*
X138714713Y-88601971D01*
X138714715Y-88601968D01*
X138714719Y-88601966D01*
X138859466Y-88457219D01*
X138859468Y-88457215D01*
X138859471Y-88457213D01*
X138964392Y-88312799D01*
X138979787Y-88291610D01*
X139072720Y-88109219D01*
X139135977Y-87914534D01*
X139168000Y-87712352D01*
X139168000Y-87507648D01*
X139135977Y-87305466D01*
X139128666Y-87282966D01*
X139072718Y-87110776D01*
X139021365Y-87009991D01*
X138979787Y-86928390D01*
X138948045Y-86884700D01*
X138859471Y-86762786D01*
X138714713Y-86618028D01*
X138549113Y-86497715D01*
X138549112Y-86497714D01*
X138549110Y-86497713D01*
X138489398Y-86467288D01*
X138366723Y-86404781D01*
X138172034Y-86341522D01*
X137997495Y-86313878D01*
X137969852Y-86309500D01*
X136965148Y-86309500D01*
X136940829Y-86313351D01*
X136762965Y-86341522D01*
X136568276Y-86404781D01*
X136385886Y-86497715D01*
X136220286Y-86618028D01*
X136075528Y-86762786D01*
X135955215Y-86928386D01*
X135862281Y-87110776D01*
X135799022Y-87305465D01*
X135770564Y-87485148D01*
X135767000Y-87507648D01*
X135767000Y-87712352D01*
X135771378Y-87739995D01*
X135799022Y-87914534D01*
X135862281Y-88109223D01*
X135955215Y-88291613D01*
X136075528Y-88457213D01*
X136220286Y-88601971D01*
X136354917Y-88699784D01*
X136385890Y-88722287D01*
X136474625Y-88767500D01*
X136478580Y-88769515D01*
X136529376Y-88817490D01*
X136546171Y-88885311D01*
X136523634Y-88951446D01*
X136478580Y-88990485D01*
X136385886Y-89037715D01*
X136220286Y-89158028D01*
X136075528Y-89302786D01*
X135955215Y-89468386D01*
X135862281Y-89650776D01*
X135799022Y-89845465D01*
X135767000Y-90047648D01*
X135767000Y-90252351D01*
X135799022Y-90454534D01*
X135862281Y-90649223D01*
X135955215Y-90831613D01*
X136075528Y-90997213D01*
X136220286Y-91141971D01*
X136354917Y-91239784D01*
X136385890Y-91262287D01*
X136475357Y-91307873D01*
X136478580Y-91309515D01*
X136529376Y-91357490D01*
X136546171Y-91425311D01*
X136523634Y-91491446D01*
X136478580Y-91530485D01*
X136385886Y-91577715D01*
X136220286Y-91698028D01*
X136075528Y-91842786D01*
X135955215Y-92008386D01*
X135862281Y-92190776D01*
X135799022Y-92385465D01*
X135767000Y-92587648D01*
X135767000Y-92607994D01*
X135747315Y-92675033D01*
X135694511Y-92720788D01*
X135625353Y-92730732D01*
X135595548Y-92722555D01*
X135498086Y-92682185D01*
X135498074Y-92682182D01*
X135333771Y-92649500D01*
X135333767Y-92649500D01*
X135166233Y-92649500D01*
X135166228Y-92649500D01*
X135001925Y-92682182D01*
X135001917Y-92682184D01*
X134847139Y-92746295D01*
X134723959Y-92828602D01*
X134657281Y-92849480D01*
X134655068Y-92849500D01*
X133844932Y-92849500D01*
X133777893Y-92829815D01*
X133776041Y-92828602D01*
X133652860Y-92746295D01*
X133498082Y-92682184D01*
X133498074Y-92682182D01*
X133333771Y-92649500D01*
X133333767Y-92649500D01*
X133166233Y-92649500D01*
X133166228Y-92649500D01*
X133001925Y-92682182D01*
X133001917Y-92682184D01*
X132847139Y-92746295D01*
X132707837Y-92839373D01*
X132589373Y-92957837D01*
X132496295Y-93097139D01*
X132432184Y-93251917D01*
X132432182Y-93251925D01*
X132399500Y-93416228D01*
X131327370Y-93416228D01*
X131359784Y-93371614D01*
X131359785Y-93371613D01*
X131359787Y-93371610D01*
X131452720Y-93189219D01*
X131515977Y-92994534D01*
X131548000Y-92792352D01*
X131548000Y-92587648D01*
X131543808Y-92561182D01*
X131515977Y-92385465D01*
X131452718Y-92190776D01*
X131419003Y-92124607D01*
X131359787Y-92008390D01*
X131338153Y-91978613D01*
X131239471Y-91842786D01*
X131094713Y-91698028D01*
X130929114Y-91577715D01*
X130884951Y-91555213D01*
X130836417Y-91530483D01*
X130785623Y-91482511D01*
X130768828Y-91414690D01*
X130791365Y-91348555D01*
X130836417Y-91309516D01*
X130929110Y-91262287D01*
X130960083Y-91239784D01*
X131094713Y-91141971D01*
X131094715Y-91141968D01*
X131094719Y-91141966D01*
X131239466Y-90997219D01*
X131239468Y-90997215D01*
X131239471Y-90997213D01*
X131310462Y-90899500D01*
X131359787Y-90831610D01*
X131452720Y-90649219D01*
X131515977Y-90454534D01*
X131548000Y-90252352D01*
X131548000Y-90047648D01*
X131516697Y-89850009D01*
X131515977Y-89845465D01*
X131471259Y-89707838D01*
X131452720Y-89650781D01*
X131452718Y-89650778D01*
X131452718Y-89650776D01*
X131400512Y-89548318D01*
X131359787Y-89468390D01*
X131322938Y-89417671D01*
X131239471Y-89302786D01*
X131094719Y-89158034D01*
X131094711Y-89158028D01*
X131001047Y-89089978D01*
X130958382Y-89034649D01*
X130952403Y-88965036D01*
X130985008Y-88903240D01*
X131034926Y-88871955D01*
X131116834Y-88844814D01*
X131266156Y-88752712D01*
X131390212Y-88628656D01*
X131482314Y-88479334D01*
X131537499Y-88312797D01*
X131548000Y-88210009D01*
X131547999Y-87009992D01*
X131545699Y-86987481D01*
X131537499Y-86907203D01*
X131537498Y-86907200D01*
X131530042Y-86884700D01*
X131482314Y-86740666D01*
X131390212Y-86591344D01*
X131266156Y-86467288D01*
X131158820Y-86401083D01*
X131116836Y-86375187D01*
X131116831Y-86375185D01*
X131115362Y-86374698D01*
X130950297Y-86320001D01*
X130950295Y-86320000D01*
X130847510Y-86309500D01*
X128847498Y-86309500D01*
X128847481Y-86309501D01*
X128744703Y-86320000D01*
X128744700Y-86320001D01*
X128578168Y-86375185D01*
X128578163Y-86375187D01*
X128428842Y-86467289D01*
X128304789Y-86591342D01*
X128212687Y-86740663D01*
X128212686Y-86740666D01*
X128157501Y-86907203D01*
X128157501Y-86907204D01*
X128157500Y-86907204D01*
X128147000Y-87009983D01*
X102250000Y-87009983D01*
X102250000Y-83335003D01*
X154818275Y-83335003D01*
X154818275Y-83502546D01*
X154850957Y-83666849D01*
X154850959Y-83666857D01*
X154915070Y-83821635D01*
X155008148Y-83960937D01*
X155126612Y-84079401D01*
X155219269Y-84141312D01*
X155265912Y-84172478D01*
X155420693Y-84236591D01*
X155504786Y-84253318D01*
X155565993Y-84265493D01*
X155627904Y-84297877D01*
X155629483Y-84299429D01*
X155813181Y-84483127D01*
X155846666Y-84544450D01*
X155849500Y-84570808D01*
X155849500Y-100405068D01*
X155829815Y-100472107D01*
X155828602Y-100473959D01*
X155746295Y-100597139D01*
X155682184Y-100751917D01*
X155682182Y-100751925D01*
X155649500Y-100916228D01*
X155649500Y-101083771D01*
X155682182Y-101248074D01*
X155682184Y-101248082D01*
X155746295Y-101402860D01*
X155839373Y-101542162D01*
X155957837Y-101660626D01*
X156002944Y-101690765D01*
X156097137Y-101753703D01*
X156251918Y-101817816D01*
X156416228Y-101850499D01*
X156416232Y-101850500D01*
X156416233Y-101850500D01*
X156583768Y-101850500D01*
X156583769Y-101850499D01*
X156748082Y-101817816D01*
X156902863Y-101753703D01*
X157042162Y-101660626D01*
X157160626Y-101542162D01*
X157253703Y-101402863D01*
X157269019Y-101365886D01*
X157312859Y-101311484D01*
X157379153Y-101289418D01*
X157446852Y-101306697D01*
X157456465Y-101313021D01*
X157560478Y-101388590D01*
X157575890Y-101399787D01*
X157667063Y-101446242D01*
X157668580Y-101447015D01*
X157719376Y-101494990D01*
X157736171Y-101562811D01*
X157713634Y-101628946D01*
X157668580Y-101667985D01*
X157575886Y-101715215D01*
X157410286Y-101835528D01*
X157265528Y-101980286D01*
X157145215Y-102145886D01*
X157052281Y-102328276D01*
X156989022Y-102522965D01*
X156957000Y-102725148D01*
X156957000Y-102929851D01*
X156989022Y-103132034D01*
X157052281Y-103326723D01*
X157145215Y-103509113D01*
X157265528Y-103674713D01*
X157410286Y-103819471D01*
X157565249Y-103932056D01*
X157575890Y-103939787D01*
X157620049Y-103962287D01*
X157669129Y-103987295D01*
X157719925Y-104035270D01*
X157736720Y-104103091D01*
X157714182Y-104169226D01*
X157669129Y-104208265D01*
X157576150Y-104255640D01*
X157410605Y-104375917D01*
X157410604Y-104375917D01*
X157265917Y-104520604D01*
X157265917Y-104520605D01*
X157145640Y-104686150D01*
X157052744Y-104868470D01*
X156989509Y-105063086D01*
X156980891Y-105117500D01*
X158341814Y-105117500D01*
X158337420Y-105121894D01*
X158284759Y-105213106D01*
X158257500Y-105314839D01*
X158257500Y-105420161D01*
X158284759Y-105521894D01*
X158337420Y-105613106D01*
X158341814Y-105617500D01*
X156980891Y-105617500D01*
X156989509Y-105671913D01*
X157052744Y-105866529D01*
X157145640Y-106048849D01*
X157265917Y-106214394D01*
X157265917Y-106214395D01*
X157410604Y-106359082D01*
X157576150Y-106479359D01*
X157758468Y-106572255D01*
X157953082Y-106635490D01*
X158155183Y-106667500D01*
X158407500Y-106667500D01*
X158407500Y-105683186D01*
X158411894Y-105687580D01*
X158503106Y-105740241D01*
X158604839Y-105767500D01*
X158710161Y-105767500D01*
X158811894Y-105740241D01*
X158903106Y-105687580D01*
X158907500Y-105683186D01*
X158907500Y-106667500D01*
X159159817Y-106667500D01*
X159361917Y-106635490D01*
X159556531Y-106572255D01*
X159738849Y-106479359D01*
X159904394Y-106359082D01*
X159904395Y-106359082D01*
X160049082Y-106214395D01*
X160049082Y-106214394D01*
X160169359Y-106048849D01*
X160262255Y-105866529D01*
X160325490Y-105671913D01*
X160334109Y-105617500D01*
X158973186Y-105617500D01*
X158977580Y-105613106D01*
X159030241Y-105521894D01*
X159057500Y-105420161D01*
X159057500Y-105314839D01*
X159030241Y-105213106D01*
X158977580Y-105121894D01*
X158973186Y-105117500D01*
X160334109Y-105117500D01*
X160325490Y-105063086D01*
X160262255Y-104868470D01*
X160169359Y-104686150D01*
X160049082Y-104520605D01*
X160049082Y-104520604D01*
X159904395Y-104375917D01*
X159738849Y-104255640D01*
X159645870Y-104208265D01*
X159595074Y-104160290D01*
X159578279Y-104092469D01*
X159600816Y-104026335D01*
X159645870Y-103987295D01*
X159646420Y-103987015D01*
X159739110Y-103939787D01*
X159773558Y-103914759D01*
X159904713Y-103819471D01*
X159904715Y-103819468D01*
X159904719Y-103819466D01*
X160049466Y-103674719D01*
X160049468Y-103674715D01*
X160049471Y-103674713D01*
X160117911Y-103580512D01*
X160169787Y-103509110D01*
X160262720Y-103326719D01*
X160325977Y-103132034D01*
X160358000Y-102929852D01*
X160358000Y-102725148D01*
X160329541Y-102545465D01*
X160325977Y-102522965D01*
X160270092Y-102350970D01*
X160262720Y-102328281D01*
X160262718Y-102328278D01*
X160262718Y-102328276D01*
X160229003Y-102262107D01*
X160169787Y-102145890D01*
X160148200Y-102116178D01*
X160049471Y-101980286D01*
X159904713Y-101835528D01*
X159739114Y-101715215D01*
X159691128Y-101690765D01*
X159646417Y-101667983D01*
X159595623Y-101620011D01*
X159578828Y-101552190D01*
X159601365Y-101486055D01*
X159646417Y-101447016D01*
X159739110Y-101399787D01*
X159760270Y-101384413D01*
X159904713Y-101279471D01*
X159904715Y-101279468D01*
X159904719Y-101279466D01*
X160049466Y-101134719D01*
X160049470Y-101134713D01*
X160052638Y-101131006D01*
X160053472Y-101131718D01*
X160104633Y-101092246D01*
X160174245Y-101086248D01*
X160236049Y-101118838D01*
X160270422Y-101179667D01*
X160271270Y-101231974D01*
X160261975Y-101278707D01*
X160261975Y-101446246D01*
X160294657Y-101610549D01*
X160294659Y-101610557D01*
X160358770Y-101765335D01*
X160451848Y-101904637D01*
X160570312Y-102023101D01*
X160662969Y-102085012D01*
X160709612Y-102116178D01*
X160864393Y-102180291D01*
X161028703Y-102212974D01*
X161028707Y-102212975D01*
X161028708Y-102212975D01*
X161196243Y-102212975D01*
X161196244Y-102212974D01*
X161360557Y-102180291D01*
X161515338Y-102116178D01*
X161654637Y-102023101D01*
X161773101Y-101904637D01*
X161866178Y-101765338D01*
X161930291Y-101610557D01*
X161962975Y-101446242D01*
X161962975Y-101278708D01*
X161930291Y-101114393D01*
X161875341Y-100981733D01*
X161866179Y-100959614D01*
X161847016Y-100930935D01*
X161791709Y-100848162D01*
X161783873Y-100836434D01*
X161762995Y-100769756D01*
X161762975Y-100767543D01*
X161762975Y-99982497D01*
X161782660Y-99915458D01*
X161783873Y-99913606D01*
X161828285Y-99847139D01*
X161876228Y-99775388D01*
X161940341Y-99620607D01*
X161973025Y-99456292D01*
X161973025Y-99288758D01*
X161940341Y-99124443D01*
X161889589Y-99001917D01*
X161876229Y-98969664D01*
X161864907Y-98952720D01*
X161845062Y-98923019D01*
X161783151Y-98830362D01*
X161664687Y-98711898D01*
X161525385Y-98618820D01*
X161370607Y-98554709D01*
X161370599Y-98554707D01*
X161206296Y-98522025D01*
X161206292Y-98522025D01*
X161038758Y-98522025D01*
X161038753Y-98522025D01*
X160874450Y-98554707D01*
X160874442Y-98554709D01*
X160719664Y-98618820D01*
X160580362Y-98711898D01*
X160461898Y-98830362D01*
X160368820Y-98969664D01*
X160304709Y-99124442D01*
X160304707Y-99124450D01*
X160272025Y-99288753D01*
X160272025Y-99364973D01*
X160252340Y-99432012D01*
X160199536Y-99477767D01*
X160130378Y-99487711D01*
X160066822Y-99458686D01*
X160053029Y-99443659D01*
X160052638Y-99443994D01*
X160049467Y-99440282D01*
X159904713Y-99295528D01*
X159739114Y-99175215D01*
X159721476Y-99166228D01*
X159646417Y-99127983D01*
X159595623Y-99080011D01*
X159578828Y-99012190D01*
X159601365Y-98946055D01*
X159646417Y-98907016D01*
X159739110Y-98859787D01*
X159779610Y-98830362D01*
X159904713Y-98739471D01*
X159904715Y-98739468D01*
X159904719Y-98739466D01*
X160049466Y-98594719D01*
X160049468Y-98594715D01*
X160049471Y-98594713D01*
X160102281Y-98522025D01*
X160169787Y-98429110D01*
X160262720Y-98246719D01*
X160325977Y-98052034D01*
X160358000Y-97849852D01*
X160358000Y-97645148D01*
X160325977Y-97442966D01*
X160316486Y-97413757D01*
X160270698Y-97272835D01*
X160262720Y-97248281D01*
X160262718Y-97248278D01*
X160262718Y-97248276D01*
X160196363Y-97118049D01*
X160169787Y-97065890D01*
X160162056Y-97055249D01*
X160049471Y-96900286D01*
X159904713Y-96755528D01*
X159739114Y-96635215D01*
X159710432Y-96620601D01*
X159646417Y-96587983D01*
X159595623Y-96540011D01*
X159578828Y-96472190D01*
X159601365Y-96406055D01*
X159646417Y-96367016D01*
X159739110Y-96319787D01*
X159798722Y-96276477D01*
X159904713Y-96199471D01*
X159904715Y-96199468D01*
X159904719Y-96199466D01*
X160049466Y-96054719D01*
X160049468Y-96054715D01*
X160049471Y-96054713D01*
X160102232Y-95982090D01*
X160169787Y-95889110D01*
X160260372Y-95711327D01*
X160262718Y-95706723D01*
X160262718Y-95706722D01*
X160262720Y-95706719D01*
X160325977Y-95512034D01*
X160358000Y-95309852D01*
X160358000Y-95105148D01*
X160347804Y-95040776D01*
X160325977Y-94902965D01*
X160276901Y-94751925D01*
X160262720Y-94708281D01*
X160262718Y-94708278D01*
X160262718Y-94708276D01*
X160206089Y-94597137D01*
X160169787Y-94525890D01*
X160145872Y-94492973D01*
X160049471Y-94360286D01*
X159904713Y-94215528D01*
X159739114Y-94095215D01*
X159732506Y-94091848D01*
X159646417Y-94047983D01*
X159595623Y-94000011D01*
X159578828Y-93932190D01*
X159601365Y-93866055D01*
X159646417Y-93827016D01*
X159739110Y-93779787D01*
X159769878Y-93757433D01*
X159904713Y-93659471D01*
X159904715Y-93659468D01*
X159904719Y-93659466D01*
X160049466Y-93514719D01*
X160049468Y-93514715D01*
X160049471Y-93514713D01*
X160113834Y-93426123D01*
X160169787Y-93349110D01*
X160262720Y-93166719D01*
X160325977Y-92972034D01*
X160358000Y-92769852D01*
X160358000Y-92565148D01*
X160347805Y-92500781D01*
X160325977Y-92362965D01*
X160296627Y-92272637D01*
X160262720Y-92168281D01*
X160262718Y-92168278D01*
X160262718Y-92168276D01*
X160181249Y-92008386D01*
X160169787Y-91985890D01*
X160126521Y-91926339D01*
X160049471Y-91820286D01*
X159904713Y-91675528D01*
X159739114Y-91555215D01*
X159732506Y-91551848D01*
X159646417Y-91507983D01*
X159595623Y-91460011D01*
X159578828Y-91392190D01*
X159601365Y-91326055D01*
X159646417Y-91287016D01*
X159739110Y-91239787D01*
X159760270Y-91224413D01*
X159904713Y-91119471D01*
X159904715Y-91119468D01*
X159904719Y-91119466D01*
X160049466Y-90974719D01*
X160049468Y-90974715D01*
X160049471Y-90974713D01*
X160119662Y-90878102D01*
X160169787Y-90809110D01*
X160262720Y-90626719D01*
X160325977Y-90432034D01*
X160358000Y-90229852D01*
X160358000Y-90025148D01*
X160333031Y-89867500D01*
X160325977Y-89822965D01*
X160271469Y-89655208D01*
X160262720Y-89628281D01*
X160262718Y-89628278D01*
X160262718Y-89628276D01*
X160212537Y-89529792D01*
X160169787Y-89445890D01*
X160149285Y-89417671D01*
X160049471Y-89280286D01*
X159904719Y-89135534D01*
X159878599Y-89116557D01*
X159811047Y-89067478D01*
X159768382Y-89012149D01*
X159762403Y-88942536D01*
X159795008Y-88880740D01*
X159844926Y-88849455D01*
X159926834Y-88822314D01*
X160076156Y-88730212D01*
X160200212Y-88606156D01*
X160292314Y-88456834D01*
X160347499Y-88290297D01*
X160358000Y-88187509D01*
X160357999Y-87485148D01*
X164577000Y-87485148D01*
X164577000Y-87689851D01*
X164609022Y-87892034D01*
X164672281Y-88086723D01*
X164765215Y-88269113D01*
X164885528Y-88434713D01*
X165030286Y-88579471D01*
X165185249Y-88692056D01*
X165195890Y-88699787D01*
X165287340Y-88746383D01*
X165288580Y-88747015D01*
X165339376Y-88794990D01*
X165356171Y-88862811D01*
X165333634Y-88928946D01*
X165288580Y-88967985D01*
X165195886Y-89015215D01*
X165030286Y-89135528D01*
X164885528Y-89280286D01*
X164765215Y-89445886D01*
X164672281Y-89628276D01*
X164609022Y-89822965D01*
X164577000Y-90025148D01*
X164577000Y-90229851D01*
X164609022Y-90432034D01*
X164672281Y-90626723D01*
X164765215Y-90809113D01*
X164885528Y-90974713D01*
X165030286Y-91119471D01*
X165185249Y-91232056D01*
X165195890Y-91239787D01*
X165287340Y-91286383D01*
X165288580Y-91287015D01*
X165339376Y-91334990D01*
X165356171Y-91402811D01*
X165333634Y-91468946D01*
X165288580Y-91507985D01*
X165195886Y-91555215D01*
X165030286Y-91675528D01*
X164885528Y-91820286D01*
X164765215Y-91985886D01*
X164672281Y-92168276D01*
X164609022Y-92362965D01*
X164577000Y-92565148D01*
X164577000Y-92769851D01*
X164609022Y-92972034D01*
X164672281Y-93166723D01*
X164765215Y-93349113D01*
X164885528Y-93514713D01*
X165030286Y-93659471D01*
X165165122Y-93757433D01*
X165195890Y-93779787D01*
X165287340Y-93826383D01*
X165288580Y-93827015D01*
X165339376Y-93874990D01*
X165356171Y-93942811D01*
X165333634Y-94008946D01*
X165288580Y-94047985D01*
X165195886Y-94095215D01*
X165030286Y-94215528D01*
X164885528Y-94360286D01*
X164765215Y-94525886D01*
X164672281Y-94708276D01*
X164609022Y-94902965D01*
X164577000Y-95105148D01*
X164577000Y-95309851D01*
X164609022Y-95512034D01*
X164672281Y-95706723D01*
X164728886Y-95817815D01*
X164759639Y-95878171D01*
X164765215Y-95889113D01*
X164885528Y-96054713D01*
X165030286Y-96199471D01*
X165136278Y-96276477D01*
X165195890Y-96319787D01*
X165287340Y-96366383D01*
X165288580Y-96367015D01*
X165339376Y-96414990D01*
X165356171Y-96482811D01*
X165333634Y-96548946D01*
X165288580Y-96587985D01*
X165195886Y-96635215D01*
X165030286Y-96755528D01*
X164885528Y-96900286D01*
X164765215Y-97065886D01*
X164672281Y-97248276D01*
X164609022Y-97442965D01*
X164577000Y-97645148D01*
X164577000Y-97849851D01*
X164609022Y-98052034D01*
X164672281Y-98246723D01*
X164765215Y-98429113D01*
X164885528Y-98594713D01*
X165030286Y-98739471D01*
X165155391Y-98830363D01*
X165195890Y-98859787D01*
X165287340Y-98906383D01*
X165288580Y-98907015D01*
X165339376Y-98954990D01*
X165356171Y-99022811D01*
X165333634Y-99088946D01*
X165288580Y-99127985D01*
X165195886Y-99175215D01*
X165030286Y-99295528D01*
X164885528Y-99440286D01*
X164765215Y-99605886D01*
X164672281Y-99788276D01*
X164609022Y-99982965D01*
X164577000Y-100185148D01*
X164577000Y-100389851D01*
X164609022Y-100592034D01*
X164672281Y-100786723D01*
X164765215Y-100969113D01*
X164885528Y-101134713D01*
X165030286Y-101279471D01*
X165185249Y-101392056D01*
X165195890Y-101399787D01*
X165287063Y-101446242D01*
X165288580Y-101447015D01*
X165339376Y-101494990D01*
X165356171Y-101562811D01*
X165333634Y-101628946D01*
X165288580Y-101667985D01*
X165195886Y-101715215D01*
X165030286Y-101835528D01*
X164885528Y-101980286D01*
X164765215Y-102145886D01*
X164672281Y-102328276D01*
X164609022Y-102522965D01*
X164577000Y-102725148D01*
X164577000Y-102929851D01*
X164609022Y-103132034D01*
X164672281Y-103326723D01*
X164765215Y-103509113D01*
X164885528Y-103674713D01*
X165030286Y-103819471D01*
X165185249Y-103932056D01*
X165195890Y-103939787D01*
X165280861Y-103983082D01*
X165288580Y-103987015D01*
X165339376Y-104034990D01*
X165356171Y-104102811D01*
X165333634Y-104168946D01*
X165288580Y-104207985D01*
X165195886Y-104255215D01*
X165030286Y-104375528D01*
X164885528Y-104520286D01*
X164765215Y-104685886D01*
X164672281Y-104868276D01*
X164609022Y-105062965D01*
X164577000Y-105265148D01*
X164577000Y-105469851D01*
X164609022Y-105672034D01*
X164672281Y-105866723D01*
X164765215Y-106049113D01*
X164885528Y-106214713D01*
X165030286Y-106359471D01*
X165140775Y-106439744D01*
X165195890Y-106479787D01*
X165312107Y-106539003D01*
X165378276Y-106572718D01*
X165378278Y-106572718D01*
X165378281Y-106572720D01*
X165446098Y-106594755D01*
X165572965Y-106635977D01*
X165674057Y-106651988D01*
X165775148Y-106668000D01*
X165775149Y-106668000D01*
X166779851Y-106668000D01*
X166779852Y-106668000D01*
X166982034Y-106635977D01*
X167176719Y-106572720D01*
X167359110Y-106479787D01*
X167494279Y-106381582D01*
X167524713Y-106359471D01*
X167524715Y-106359468D01*
X167524719Y-106359466D01*
X167669466Y-106214719D01*
X167669468Y-106214715D01*
X167669471Y-106214713D01*
X167722232Y-106142090D01*
X167789787Y-106049110D01*
X167882720Y-105866719D01*
X167945977Y-105672034D01*
X167978000Y-105469852D01*
X167978000Y-105265148D01*
X167960845Y-105156836D01*
X167945977Y-105062965D01*
X167888970Y-104887518D01*
X167882720Y-104868281D01*
X167882718Y-104868278D01*
X167882718Y-104868276D01*
X167839658Y-104783767D01*
X167789787Y-104685890D01*
X167771152Y-104660241D01*
X167669471Y-104520286D01*
X167524713Y-104375528D01*
X167359114Y-104255215D01*
X167352506Y-104251848D01*
X167266417Y-104207983D01*
X167215623Y-104160011D01*
X167198828Y-104092190D01*
X167221365Y-104026055D01*
X167266417Y-103987016D01*
X167359110Y-103939787D01*
X167393558Y-103914759D01*
X167524713Y-103819471D01*
X167524715Y-103819468D01*
X167524719Y-103819466D01*
X167669466Y-103674719D01*
X167669468Y-103674715D01*
X167669471Y-103674713D01*
X167737911Y-103580512D01*
X167789787Y-103509110D01*
X167882720Y-103326719D01*
X167945977Y-103132034D01*
X167978000Y-102929852D01*
X167978000Y-102725148D01*
X167949541Y-102545465D01*
X167945977Y-102522965D01*
X167890092Y-102350970D01*
X167882720Y-102328281D01*
X167882718Y-102328278D01*
X167882718Y-102328276D01*
X167849003Y-102262107D01*
X167789787Y-102145890D01*
X167768200Y-102116178D01*
X167669471Y-101980286D01*
X167524713Y-101835528D01*
X167359114Y-101715215D01*
X167311128Y-101690765D01*
X167266417Y-101667983D01*
X167215623Y-101620011D01*
X167198828Y-101552190D01*
X167221365Y-101486055D01*
X167266417Y-101447016D01*
X167359110Y-101399787D01*
X167380270Y-101384413D01*
X167524713Y-101279471D01*
X167524715Y-101279468D01*
X167524719Y-101279466D01*
X167669466Y-101134719D01*
X167669468Y-101134715D01*
X167669471Y-101134713D01*
X167756662Y-101014703D01*
X167789787Y-100969110D01*
X167882720Y-100786719D01*
X167945977Y-100592034D01*
X167978000Y-100389852D01*
X167978000Y-100185148D01*
X167949262Y-100003704D01*
X167945977Y-99982965D01*
X167901843Y-99847137D01*
X167882720Y-99788281D01*
X167882718Y-99788278D01*
X167882718Y-99788276D01*
X167838055Y-99700621D01*
X167789787Y-99605890D01*
X167766679Y-99574084D01*
X167669471Y-99440286D01*
X167524713Y-99295528D01*
X167359114Y-99175215D01*
X167341476Y-99166228D01*
X167266417Y-99127983D01*
X167215623Y-99080011D01*
X167198828Y-99012190D01*
X167221365Y-98946055D01*
X167266417Y-98907016D01*
X167359110Y-98859787D01*
X167399610Y-98830362D01*
X167524713Y-98739471D01*
X167524715Y-98739468D01*
X167524719Y-98739466D01*
X167669466Y-98594719D01*
X167669468Y-98594715D01*
X167669471Y-98594713D01*
X167722281Y-98522025D01*
X167789787Y-98429110D01*
X167882720Y-98246719D01*
X167945977Y-98052034D01*
X167978000Y-97849852D01*
X167978000Y-97645148D01*
X167945977Y-97442966D01*
X167936486Y-97413757D01*
X167890698Y-97272835D01*
X167882720Y-97248281D01*
X167882718Y-97248278D01*
X167882718Y-97248276D01*
X167816363Y-97118049D01*
X167789787Y-97065890D01*
X167782056Y-97055249D01*
X167669471Y-96900286D01*
X167524713Y-96755528D01*
X167359114Y-96635215D01*
X167330432Y-96620601D01*
X167266417Y-96587983D01*
X167215623Y-96540011D01*
X167198828Y-96472190D01*
X167221365Y-96406055D01*
X167266417Y-96367016D01*
X167359110Y-96319787D01*
X167418722Y-96276477D01*
X167524713Y-96199471D01*
X167524715Y-96199468D01*
X167524719Y-96199466D01*
X167669466Y-96054719D01*
X167669468Y-96054715D01*
X167669471Y-96054713D01*
X167722232Y-95982090D01*
X167789787Y-95889110D01*
X167880372Y-95711327D01*
X167882718Y-95706723D01*
X167882718Y-95706722D01*
X167882720Y-95706719D01*
X167945977Y-95512034D01*
X167978000Y-95309852D01*
X167978000Y-95105148D01*
X167967804Y-95040776D01*
X167945977Y-94902965D01*
X167896901Y-94751925D01*
X167882720Y-94708281D01*
X167882718Y-94708278D01*
X167882718Y-94708276D01*
X167826089Y-94597137D01*
X167789787Y-94525890D01*
X167765872Y-94492973D01*
X167669471Y-94360286D01*
X167524713Y-94215528D01*
X167359114Y-94095215D01*
X167352506Y-94091848D01*
X167266417Y-94047983D01*
X167215623Y-94000011D01*
X167198828Y-93932190D01*
X167221365Y-93866055D01*
X167266417Y-93827016D01*
X167359110Y-93779787D01*
X167389878Y-93757433D01*
X167524713Y-93659471D01*
X167524715Y-93659468D01*
X167524719Y-93659466D01*
X167669466Y-93514719D01*
X167669468Y-93514715D01*
X167669471Y-93514713D01*
X167733834Y-93426123D01*
X167789787Y-93349110D01*
X167882720Y-93166719D01*
X167945977Y-92972034D01*
X167978000Y-92769852D01*
X167978000Y-92565148D01*
X167967805Y-92500781D01*
X167945977Y-92362965D01*
X167916627Y-92272637D01*
X167882720Y-92168281D01*
X167882718Y-92168278D01*
X167882718Y-92168276D01*
X167801249Y-92008386D01*
X167789787Y-91985890D01*
X167746521Y-91926339D01*
X167669471Y-91820286D01*
X167524713Y-91675528D01*
X167359114Y-91555215D01*
X167352506Y-91551848D01*
X167266417Y-91507983D01*
X167215623Y-91460011D01*
X167198828Y-91392190D01*
X167221365Y-91326055D01*
X167266417Y-91287016D01*
X167359110Y-91239787D01*
X167380270Y-91224413D01*
X167524713Y-91119471D01*
X167524715Y-91119468D01*
X167524719Y-91119466D01*
X167669466Y-90974719D01*
X167669468Y-90974715D01*
X167669471Y-90974713D01*
X167739662Y-90878102D01*
X167789787Y-90809110D01*
X167882720Y-90626719D01*
X167945977Y-90432034D01*
X167978000Y-90229852D01*
X167978000Y-90025148D01*
X167953031Y-89867500D01*
X167945977Y-89822965D01*
X167929290Y-89771610D01*
X167882720Y-89628281D01*
X167874493Y-89612135D01*
X180699500Y-89612135D01*
X180699500Y-91307870D01*
X180699501Y-91307876D01*
X180705908Y-91367483D01*
X180756202Y-91502328D01*
X180756206Y-91502335D01*
X180842452Y-91617544D01*
X180842455Y-91617547D01*
X180957664Y-91703793D01*
X180957671Y-91703797D01*
X180975008Y-91710263D01*
X181092517Y-91754091D01*
X181129441Y-91758060D01*
X181193989Y-91784796D01*
X181233838Y-91842188D01*
X181236333Y-91912013D01*
X181200681Y-91972102D01*
X181189071Y-91981666D01*
X181152784Y-92008030D01*
X181008028Y-92152786D01*
X180887715Y-92318386D01*
X180794781Y-92500776D01*
X180731522Y-92695465D01*
X180699500Y-92897648D01*
X180699500Y-93102351D01*
X180731522Y-93304534D01*
X180794781Y-93499223D01*
X180848848Y-93605334D01*
X180862439Y-93632008D01*
X180887715Y-93681613D01*
X181008028Y-93847213D01*
X181152786Y-93991971D01*
X181291454Y-94092717D01*
X181318390Y-94112287D01*
X181409840Y-94158883D01*
X181411080Y-94159515D01*
X181461876Y-94207490D01*
X181478671Y-94275311D01*
X181456134Y-94341446D01*
X181411080Y-94380485D01*
X181318386Y-94427715D01*
X181152786Y-94548028D01*
X181008028Y-94692786D01*
X180887715Y-94858386D01*
X180794781Y-95040776D01*
X180731522Y-95235465D01*
X180699500Y-95437648D01*
X180699500Y-95642351D01*
X180731522Y-95844534D01*
X180794781Y-96039223D01*
X180846018Y-96139780D01*
X180885772Y-96217801D01*
X180887715Y-96221613D01*
X181008028Y-96387213D01*
X181152786Y-96531971D01*
X181288614Y-96630654D01*
X181318390Y-96652287D01*
X181372205Y-96679707D01*
X181411080Y-96699515D01*
X181461876Y-96747490D01*
X181478671Y-96815311D01*
X181456134Y-96881446D01*
X181411080Y-96920485D01*
X181318386Y-96967715D01*
X181152786Y-97088028D01*
X181008028Y-97232786D01*
X180887715Y-97398386D01*
X180794781Y-97580776D01*
X180731522Y-97775465D01*
X180699500Y-97977648D01*
X180699500Y-98182351D01*
X180731522Y-98384534D01*
X180794781Y-98579223D01*
X180848848Y-98685334D01*
X180862439Y-98712008D01*
X180887715Y-98761613D01*
X181008028Y-98927213D01*
X181152786Y-99071971D01*
X181282528Y-99166232D01*
X181318390Y-99192287D01*
X181409840Y-99238883D01*
X181411080Y-99239515D01*
X181461876Y-99287490D01*
X181478671Y-99355311D01*
X181456134Y-99421446D01*
X181411080Y-99460485D01*
X181318386Y-99507715D01*
X181152786Y-99628028D01*
X181008028Y-99772786D01*
X180887715Y-99938386D01*
X180794781Y-100120776D01*
X180731522Y-100315465D01*
X180699500Y-100517648D01*
X180699500Y-100722351D01*
X180731522Y-100924534D01*
X180794781Y-101119223D01*
X180852232Y-101231974D01*
X180876043Y-101278707D01*
X180887715Y-101301613D01*
X181008028Y-101467213D01*
X181152786Y-101611971D01*
X181261239Y-101690765D01*
X181318390Y-101732287D01*
X181434607Y-101791503D01*
X181500776Y-101825218D01*
X181500778Y-101825218D01*
X181500781Y-101825220D01*
X181578582Y-101850499D01*
X181695465Y-101888477D01*
X181796557Y-101904488D01*
X181897648Y-101920500D01*
X181897649Y-101920500D01*
X182102351Y-101920500D01*
X182102352Y-101920500D01*
X182304534Y-101888477D01*
X182499219Y-101825220D01*
X182681610Y-101732287D01*
X182823848Y-101628946D01*
X182847213Y-101611971D01*
X182847215Y-101611968D01*
X182847219Y-101611966D01*
X182991966Y-101467219D01*
X182991968Y-101467215D01*
X182991971Y-101467213D01*
X183044732Y-101394590D01*
X183112287Y-101301610D01*
X183205220Y-101119219D01*
X183268477Y-100924534D01*
X183300500Y-100722352D01*
X183300500Y-100517648D01*
X183294963Y-100482687D01*
X183268477Y-100315465D01*
X183205218Y-100120776D01*
X183145566Y-100003704D01*
X183112287Y-99938390D01*
X183094281Y-99913606D01*
X182991971Y-99772786D01*
X182847213Y-99628028D01*
X182681614Y-99507715D01*
X182642354Y-99487711D01*
X182588917Y-99460483D01*
X182538123Y-99412511D01*
X182521328Y-99344690D01*
X182543865Y-99278555D01*
X182588917Y-99239516D01*
X182681610Y-99192287D01*
X182717472Y-99166232D01*
X182847213Y-99071971D01*
X182847215Y-99071968D01*
X182847219Y-99071966D01*
X182991966Y-98927219D01*
X182991968Y-98927215D01*
X182991971Y-98927213D01*
X183050147Y-98847139D01*
X183112287Y-98761610D01*
X183205220Y-98579219D01*
X183268477Y-98384534D01*
X183300500Y-98182352D01*
X183300500Y-97977648D01*
X183283881Y-97872720D01*
X183268477Y-97775465D01*
X183205218Y-97580776D01*
X183146463Y-97465465D01*
X183112287Y-97398390D01*
X183079456Y-97353201D01*
X182991971Y-97232786D01*
X182847213Y-97088028D01*
X182681614Y-96967715D01*
X182635877Y-96944411D01*
X182588917Y-96920483D01*
X182538123Y-96872511D01*
X182521328Y-96804690D01*
X182543865Y-96738555D01*
X182588917Y-96699516D01*
X182681610Y-96652287D01*
X182711386Y-96630654D01*
X182847213Y-96531971D01*
X182847215Y-96531968D01*
X182847219Y-96531966D01*
X182991966Y-96387219D01*
X182991968Y-96387215D01*
X182991971Y-96387213D01*
X183072424Y-96276477D01*
X183112287Y-96221610D01*
X183205220Y-96039219D01*
X183268477Y-95844534D01*
X183300500Y-95642352D01*
X183300500Y-95437648D01*
X183286164Y-95347137D01*
X183268477Y-95235465D01*
X183221009Y-95089374D01*
X183205220Y-95040781D01*
X183205218Y-95040778D01*
X183205218Y-95040776D01*
X183146463Y-94925465D01*
X183112287Y-94858390D01*
X183079456Y-94813201D01*
X182991971Y-94692786D01*
X182847213Y-94548028D01*
X182681614Y-94427715D01*
X182668417Y-94420991D01*
X182588917Y-94380483D01*
X182538123Y-94332511D01*
X182521328Y-94264690D01*
X182543865Y-94198555D01*
X182588917Y-94159516D01*
X182681610Y-94112287D01*
X182739146Y-94070485D01*
X182847213Y-93991971D01*
X182847215Y-93991968D01*
X182847219Y-93991966D01*
X182991966Y-93847219D01*
X182991968Y-93847215D01*
X182991971Y-93847213D01*
X183063496Y-93748765D01*
X183112287Y-93681610D01*
X183205220Y-93499219D01*
X183232185Y-93416228D01*
X184649500Y-93416228D01*
X184649500Y-93583771D01*
X184682182Y-93748074D01*
X184682184Y-93748082D01*
X184746295Y-93902860D01*
X184746296Y-93902862D01*
X184746297Y-93902863D01*
X184811209Y-94000011D01*
X184828602Y-94026040D01*
X184849480Y-94092717D01*
X184849500Y-94094931D01*
X184849500Y-94405068D01*
X184829815Y-94472107D01*
X184828602Y-94473959D01*
X184746295Y-94597139D01*
X184682184Y-94751917D01*
X184682182Y-94751925D01*
X184649500Y-94916228D01*
X184649500Y-95083771D01*
X184682182Y-95248074D01*
X184682184Y-95248082D01*
X184746295Y-95402860D01*
X184839373Y-95542162D01*
X184957837Y-95660626D01*
X185050494Y-95722537D01*
X185097137Y-95753703D01*
X185251918Y-95817816D01*
X185386240Y-95844534D01*
X185416228Y-95850499D01*
X185416232Y-95850500D01*
X185416233Y-95850500D01*
X185583768Y-95850500D01*
X185583768Y-95850499D01*
X185691447Y-95829081D01*
X185761037Y-95835308D01*
X185816214Y-95878171D01*
X185833566Y-95912377D01*
X185874780Y-96039219D01*
X185965772Y-96217801D01*
X185967715Y-96221613D01*
X186088028Y-96387213D01*
X186232786Y-96531971D01*
X186368614Y-96630654D01*
X186398390Y-96652287D01*
X186452205Y-96679707D01*
X186491080Y-96699515D01*
X186541876Y-96747490D01*
X186558671Y-96815311D01*
X186536134Y-96881446D01*
X186491080Y-96920485D01*
X186398386Y-96967715D01*
X186232786Y-97088028D01*
X186088028Y-97232786D01*
X185967715Y-97398386D01*
X185874781Y-97580776D01*
X185811522Y-97775465D01*
X185779500Y-97977648D01*
X185779500Y-98182351D01*
X185811522Y-98384534D01*
X185874781Y-98579223D01*
X185928848Y-98685334D01*
X185942439Y-98712008D01*
X185967715Y-98761613D01*
X186088028Y-98927213D01*
X186232786Y-99071971D01*
X186362528Y-99166232D01*
X186398390Y-99192287D01*
X186489840Y-99238883D01*
X186491080Y-99239515D01*
X186541876Y-99287490D01*
X186558671Y-99355311D01*
X186536134Y-99421446D01*
X186491080Y-99460485D01*
X186398386Y-99507715D01*
X186232786Y-99628028D01*
X186088028Y-99772786D01*
X185967715Y-99938386D01*
X185874781Y-100120776D01*
X185811522Y-100315465D01*
X185779500Y-100517648D01*
X185779500Y-100722351D01*
X185811522Y-100924534D01*
X185874781Y-101119223D01*
X185932232Y-101231974D01*
X185956043Y-101278707D01*
X185967715Y-101301613D01*
X186088028Y-101467213D01*
X186232786Y-101611971D01*
X186341239Y-101690765D01*
X186398390Y-101732287D01*
X186514607Y-101791503D01*
X186580776Y-101825218D01*
X186580778Y-101825218D01*
X186580781Y-101825220D01*
X186658582Y-101850499D01*
X186775465Y-101888477D01*
X186876557Y-101904488D01*
X186977648Y-101920500D01*
X186977649Y-101920500D01*
X187182351Y-101920500D01*
X187182352Y-101920500D01*
X187384534Y-101888477D01*
X187579219Y-101825220D01*
X187761610Y-101732287D01*
X187903848Y-101628946D01*
X187927213Y-101611971D01*
X187927215Y-101611968D01*
X187927219Y-101611966D01*
X188071966Y-101467219D01*
X188071968Y-101467215D01*
X188071971Y-101467213D01*
X188124732Y-101394590D01*
X188192287Y-101301610D01*
X188285220Y-101119219D01*
X188348477Y-100924534D01*
X188380500Y-100722352D01*
X188380500Y-100517648D01*
X188374963Y-100482687D01*
X188348477Y-100315465D01*
X188285218Y-100120776D01*
X188225566Y-100003704D01*
X188192287Y-99938390D01*
X188174281Y-99913606D01*
X188071971Y-99772786D01*
X187927213Y-99628028D01*
X187761614Y-99507715D01*
X187722354Y-99487711D01*
X187668917Y-99460483D01*
X187618123Y-99412511D01*
X187601328Y-99344690D01*
X187623865Y-99278555D01*
X187668917Y-99239516D01*
X187761610Y-99192287D01*
X187797472Y-99166232D01*
X187927213Y-99071971D01*
X187927215Y-99071968D01*
X187927219Y-99071966D01*
X188071966Y-98927219D01*
X188071968Y-98927215D01*
X188071971Y-98927213D01*
X188130147Y-98847139D01*
X188192287Y-98761610D01*
X188285220Y-98579219D01*
X188348477Y-98384534D01*
X188380500Y-98182352D01*
X188380500Y-97977648D01*
X188363881Y-97872720D01*
X188348477Y-97775465D01*
X188285218Y-97580776D01*
X188226463Y-97465465D01*
X188192287Y-97398390D01*
X188159456Y-97353201D01*
X188071971Y-97232786D01*
X187927213Y-97088028D01*
X187761614Y-96967715D01*
X187715877Y-96944411D01*
X187668917Y-96920483D01*
X187618123Y-96872511D01*
X187601328Y-96804690D01*
X187623865Y-96738555D01*
X187668917Y-96699516D01*
X187761610Y-96652287D01*
X187791386Y-96630654D01*
X187927213Y-96531971D01*
X187927215Y-96531968D01*
X187927219Y-96531966D01*
X188071966Y-96387219D01*
X188071968Y-96387215D01*
X188071971Y-96387213D01*
X188152424Y-96276477D01*
X188192287Y-96221610D01*
X188285220Y-96039219D01*
X188348477Y-95844534D01*
X188380500Y-95642352D01*
X188380500Y-95437648D01*
X188366164Y-95347137D01*
X188348477Y-95235465D01*
X188301009Y-95089374D01*
X188285220Y-95040781D01*
X188285218Y-95040778D01*
X188285218Y-95040776D01*
X188226463Y-94925465D01*
X188192287Y-94858390D01*
X188159456Y-94813201D01*
X188071971Y-94692786D01*
X187927213Y-94548028D01*
X187761614Y-94427715D01*
X187748417Y-94420991D01*
X187668917Y-94380483D01*
X187618123Y-94332511D01*
X187601328Y-94264690D01*
X187623865Y-94198555D01*
X187668917Y-94159516D01*
X187761610Y-94112287D01*
X187819146Y-94070485D01*
X187927213Y-93991971D01*
X187927215Y-93991968D01*
X187927219Y-93991966D01*
X188071966Y-93847219D01*
X188071968Y-93847215D01*
X188071971Y-93847213D01*
X188143496Y-93748765D01*
X188192287Y-93681610D01*
X188285220Y-93499219D01*
X188348477Y-93304534D01*
X188380500Y-93102352D01*
X188380500Y-92897648D01*
X188371270Y-92839373D01*
X188348477Y-92695465D01*
X188285218Y-92500776D01*
X188226463Y-92385465D01*
X188192287Y-92318390D01*
X188180588Y-92302288D01*
X188071971Y-92152786D01*
X187927213Y-92008028D01*
X187761614Y-91887715D01*
X187715877Y-91864411D01*
X187668917Y-91840483D01*
X187618123Y-91792511D01*
X187601328Y-91724690D01*
X187623865Y-91658555D01*
X187668917Y-91619516D01*
X187761610Y-91572287D01*
X187850115Y-91507985D01*
X187927213Y-91451971D01*
X187927215Y-91451968D01*
X187927219Y-91451966D01*
X188071966Y-91307219D01*
X188071968Y-91307215D01*
X188071971Y-91307213D01*
X188144170Y-91207838D01*
X188192287Y-91141610D01*
X188285220Y-90959219D01*
X188348477Y-90764534D01*
X188380500Y-90562352D01*
X188380500Y-90357648D01*
X188364748Y-90258197D01*
X188348477Y-90155465D01*
X188298586Y-90001917D01*
X188285220Y-89960781D01*
X188285218Y-89960778D01*
X188285218Y-89960776D01*
X188228782Y-89850016D01*
X188192287Y-89778390D01*
X188170957Y-89749031D01*
X188071971Y-89612786D01*
X187927213Y-89468028D01*
X187761613Y-89347715D01*
X187761612Y-89347714D01*
X187761610Y-89347713D01*
X187673436Y-89302786D01*
X187579223Y-89254781D01*
X187384534Y-89191522D01*
X187191216Y-89160904D01*
X187182352Y-89159500D01*
X186977648Y-89159500D01*
X186968784Y-89160904D01*
X186775465Y-89191522D01*
X186580776Y-89254781D01*
X186398386Y-89347715D01*
X186232786Y-89468028D01*
X186088028Y-89612786D01*
X185967715Y-89778386D01*
X185874781Y-89960776D01*
X185811522Y-90155465D01*
X185779500Y-90357648D01*
X185779500Y-90562351D01*
X185811522Y-90764534D01*
X185874781Y-90959223D01*
X185926018Y-91059780D01*
X185965772Y-91137801D01*
X185967715Y-91141613D01*
X186088028Y-91307213D01*
X186232786Y-91451971D01*
X186374889Y-91555213D01*
X186398390Y-91572287D01*
X186487212Y-91617544D01*
X186491080Y-91619515D01*
X186541876Y-91667490D01*
X186558671Y-91735311D01*
X186536134Y-91801446D01*
X186491080Y-91840485D01*
X186398386Y-91887715D01*
X186232786Y-92008028D01*
X186088028Y-92152786D01*
X185967715Y-92318386D01*
X185874781Y-92500777D01*
X185845775Y-92590048D01*
X185806337Y-92647723D01*
X185741978Y-92674921D01*
X185703653Y-92673346D01*
X185583771Y-92649500D01*
X185583767Y-92649500D01*
X185416233Y-92649500D01*
X185416228Y-92649500D01*
X185251925Y-92682182D01*
X185251917Y-92682184D01*
X185097139Y-92746295D01*
X184957837Y-92839373D01*
X184839373Y-92957837D01*
X184746295Y-93097139D01*
X184682184Y-93251917D01*
X184682182Y-93251925D01*
X184649500Y-93416228D01*
X183232185Y-93416228D01*
X183268477Y-93304534D01*
X183300500Y-93102352D01*
X183300500Y-92897648D01*
X183291270Y-92839373D01*
X183268477Y-92695465D01*
X183205218Y-92500776D01*
X183146463Y-92385465D01*
X183112287Y-92318390D01*
X183100588Y-92302288D01*
X182991971Y-92152786D01*
X182847219Y-92008034D01*
X182816740Y-91985890D01*
X182810929Y-91981668D01*
X182768264Y-91926339D01*
X182762285Y-91856726D01*
X182794890Y-91794931D01*
X182855728Y-91760573D01*
X182870562Y-91758060D01*
X182907483Y-91754091D01*
X182988673Y-91723809D01*
X183042331Y-91703796D01*
X183157546Y-91617546D01*
X183243796Y-91502331D01*
X183294091Y-91367483D01*
X183300500Y-91307873D01*
X183300499Y-89612128D01*
X183294091Y-89552517D01*
X183273122Y-89496297D01*
X183243797Y-89417671D01*
X183243793Y-89417664D01*
X183157547Y-89302455D01*
X183157544Y-89302452D01*
X183042335Y-89216206D01*
X183042328Y-89216202D01*
X182907482Y-89165908D01*
X182907483Y-89165908D01*
X182847883Y-89159501D01*
X182847881Y-89159500D01*
X182847873Y-89159500D01*
X182847864Y-89159500D01*
X181152129Y-89159500D01*
X181152123Y-89159501D01*
X181092516Y-89165908D01*
X180957671Y-89216202D01*
X180957664Y-89216206D01*
X180842455Y-89302452D01*
X180842452Y-89302455D01*
X180756206Y-89417664D01*
X180756202Y-89417671D01*
X180705908Y-89552517D01*
X180701946Y-89589373D01*
X180699501Y-89612123D01*
X180699500Y-89612135D01*
X167874493Y-89612135D01*
X167789787Y-89445890D01*
X167769285Y-89417671D01*
X167669471Y-89280286D01*
X167524713Y-89135528D01*
X167359114Y-89015215D01*
X167352506Y-89011848D01*
X167266417Y-88967983D01*
X167215623Y-88920011D01*
X167198828Y-88852190D01*
X167221365Y-88786055D01*
X167266417Y-88747016D01*
X167359110Y-88699787D01*
X167380270Y-88684413D01*
X167524713Y-88579471D01*
X167524715Y-88579468D01*
X167524719Y-88579466D01*
X167669466Y-88434719D01*
X167669468Y-88434715D01*
X167669471Y-88434713D01*
X167758045Y-88312799D01*
X167789787Y-88269110D01*
X167882720Y-88086719D01*
X167945977Y-87892034D01*
X167978000Y-87689852D01*
X167978000Y-87485148D01*
X167945977Y-87282966D01*
X167882720Y-87088281D01*
X167882718Y-87088278D01*
X167882718Y-87088276D01*
X167831365Y-86987492D01*
X167789787Y-86905890D01*
X167774392Y-86884700D01*
X167669471Y-86740286D01*
X167524713Y-86595528D01*
X167359113Y-86475215D01*
X167359112Y-86475214D01*
X167359110Y-86475213D01*
X167299398Y-86444788D01*
X167176723Y-86382281D01*
X166982034Y-86319022D01*
X166807495Y-86291378D01*
X166779852Y-86287000D01*
X165775148Y-86287000D01*
X165750829Y-86290851D01*
X165572965Y-86319022D01*
X165378276Y-86382281D01*
X165195886Y-86475215D01*
X165030286Y-86595528D01*
X164885528Y-86740286D01*
X164765215Y-86905886D01*
X164672281Y-87088276D01*
X164609022Y-87282965D01*
X164577000Y-87485148D01*
X160357999Y-87485148D01*
X160357999Y-86987492D01*
X160349797Y-86907204D01*
X160347499Y-86884703D01*
X160347498Y-86884700D01*
X160292314Y-86718166D01*
X160200212Y-86568844D01*
X160076156Y-86444788D01*
X159963311Y-86375185D01*
X159926836Y-86352687D01*
X159926831Y-86352685D01*
X159893143Y-86341522D01*
X159760297Y-86297501D01*
X159760295Y-86297500D01*
X159657510Y-86287000D01*
X157657498Y-86287000D01*
X157657481Y-86287001D01*
X157554703Y-86297500D01*
X157554700Y-86297501D01*
X157388168Y-86352685D01*
X157388161Y-86352688D01*
X157339595Y-86382644D01*
X157272203Y-86401083D01*
X157205539Y-86380159D01*
X157160771Y-86326517D01*
X157150500Y-86277104D01*
X157150500Y-84185928D01*
X157125502Y-84060260D01*
X157125500Y-84060254D01*
X157105189Y-84011221D01*
X157105187Y-84011216D01*
X157076468Y-83941878D01*
X157076462Y-83941868D01*
X157005278Y-83835332D01*
X157005272Y-83835325D01*
X156549429Y-83379483D01*
X156515944Y-83318160D01*
X156515493Y-83315993D01*
X156486592Y-83170700D01*
X156486591Y-83170693D01*
X156422478Y-83015912D01*
X156391312Y-82969269D01*
X156329401Y-82876612D01*
X156210937Y-82758148D01*
X156071635Y-82665070D01*
X155916857Y-82600959D01*
X155916849Y-82600957D01*
X155752546Y-82568275D01*
X155752542Y-82568275D01*
X155585008Y-82568275D01*
X155585003Y-82568275D01*
X155420700Y-82600957D01*
X155420692Y-82600959D01*
X155265914Y-82665070D01*
X155126612Y-82758148D01*
X155008148Y-82876612D01*
X154915070Y-83015914D01*
X154850959Y-83170692D01*
X154850957Y-83170700D01*
X154818275Y-83335003D01*
X102250000Y-83335003D01*
X102250000Y-78467514D01*
X109377500Y-78467514D01*
X109377500Y-79417500D01*
X110623379Y-79417500D01*
X110604401Y-79463318D01*
X110577500Y-79598556D01*
X110577500Y-79736444D01*
X110604401Y-79871682D01*
X110623379Y-79917500D01*
X109377500Y-79917500D01*
X109377500Y-80867485D01*
X109387993Y-80970189D01*
X109387994Y-80970196D01*
X109443141Y-81136618D01*
X109443143Y-81136623D01*
X109535184Y-81285844D01*
X109659155Y-81409815D01*
X109808376Y-81501856D01*
X109808381Y-81501858D01*
X109974803Y-81557005D01*
X109974810Y-81557006D01*
X110077514Y-81567499D01*
X110077527Y-81567500D01*
X111027500Y-81567500D01*
X111027500Y-80321620D01*
X111073318Y-80340599D01*
X111208556Y-80367500D01*
X111346444Y-80367500D01*
X111481682Y-80340599D01*
X111527500Y-80321620D01*
X111527500Y-81567500D01*
X112477473Y-81567500D01*
X112477485Y-81567499D01*
X112580189Y-81557006D01*
X112580196Y-81557005D01*
X112746618Y-81501858D01*
X112746623Y-81501856D01*
X112895844Y-81409815D01*
X113019815Y-81285844D01*
X113111856Y-81136623D01*
X113111858Y-81136618D01*
X113167005Y-80970196D01*
X113167006Y-80970189D01*
X113177499Y-80867485D01*
X113177500Y-80867472D01*
X113177500Y-79917500D01*
X111931621Y-79917500D01*
X111950599Y-79871682D01*
X111977500Y-79736444D01*
X111977500Y-79598556D01*
X111950599Y-79463318D01*
X111931621Y-79417500D01*
X113177500Y-79417500D01*
X113177500Y-78467527D01*
X113177499Y-78467514D01*
X113167006Y-78364810D01*
X113167005Y-78364803D01*
X113111858Y-78198381D01*
X113111856Y-78198376D01*
X113019815Y-78049155D01*
X112895844Y-77925184D01*
X112746623Y-77833143D01*
X112746618Y-77833141D01*
X112580196Y-77777994D01*
X112580189Y-77777993D01*
X112477485Y-77767500D01*
X111527500Y-77767500D01*
X111527500Y-79013379D01*
X111481682Y-78994401D01*
X111346444Y-78967500D01*
X111208556Y-78967500D01*
X111073318Y-78994401D01*
X111027500Y-79013379D01*
X111027500Y-77767500D01*
X110077514Y-77767500D01*
X109974810Y-77777993D01*
X109974803Y-77777994D01*
X109808381Y-77833141D01*
X109808376Y-77833143D01*
X109659155Y-77925184D01*
X109535184Y-78049155D01*
X109443143Y-78198376D01*
X109443141Y-78198381D01*
X109387994Y-78364803D01*
X109387993Y-78364810D01*
X109377500Y-78467514D01*
X102250000Y-78467514D01*
X102250000Y-74542935D01*
X109377000Y-74542935D01*
X109377000Y-74792065D01*
X109409518Y-75039065D01*
X109419247Y-75075373D01*
X109473998Y-75279707D01*
X109569330Y-75509861D01*
X109569337Y-75509876D01*
X109693900Y-75725626D01*
X109845560Y-75923274D01*
X109845566Y-75923281D01*
X110021718Y-76099433D01*
X110021725Y-76099439D01*
X110219373Y-76251099D01*
X110435123Y-76375662D01*
X110435138Y-76375669D01*
X110534325Y-76416753D01*
X110665293Y-76471002D01*
X110905935Y-76535482D01*
X111152935Y-76568000D01*
X111152942Y-76568000D01*
X111402058Y-76568000D01*
X111402065Y-76568000D01*
X111649065Y-76535482D01*
X111889707Y-76471002D01*
X112119873Y-76375664D01*
X112335627Y-76251099D01*
X112533276Y-76099438D01*
X112709438Y-75923276D01*
X112861099Y-75725627D01*
X112985664Y-75509873D01*
X113081002Y-75279707D01*
X113145482Y-75039065D01*
X113178000Y-74792065D01*
X113178000Y-74542935D01*
X113145482Y-74295935D01*
X113081002Y-74055293D01*
X112985664Y-73825127D01*
X112924758Y-73719635D01*
X112861099Y-73609373D01*
X112709439Y-73411725D01*
X112709433Y-73411718D01*
X112533281Y-73235566D01*
X112533274Y-73235560D01*
X112460391Y-73179635D01*
X135877000Y-73179635D01*
X135877000Y-75075370D01*
X135877001Y-75075376D01*
X135883408Y-75134983D01*
X135933702Y-75269828D01*
X135933706Y-75269835D01*
X136019952Y-75385044D01*
X136019955Y-75385047D01*
X136135164Y-75471293D01*
X136135171Y-75471297D01*
X136215080Y-75501101D01*
X136271014Y-75542972D01*
X136295431Y-75608436D01*
X136280580Y-75676709D01*
X136259429Y-75704963D01*
X136209256Y-75755136D01*
X136209252Y-75755141D01*
X136079687Y-75933474D01*
X135979604Y-76129893D01*
X135979603Y-76129896D01*
X135911485Y-76339547D01*
X135877000Y-76557278D01*
X135877000Y-76777721D01*
X135911485Y-76995452D01*
X135979603Y-77205103D01*
X135979604Y-77205106D01*
X136079687Y-77401525D01*
X136209252Y-77579858D01*
X136209256Y-77579863D01*
X136365136Y-77735743D01*
X136365141Y-77735747D01*
X136423290Y-77777994D01*
X136543478Y-77865315D01*
X136660976Y-77925184D01*
X136739893Y-77965395D01*
X136739896Y-77965396D01*
X136844721Y-77999455D01*
X136949549Y-78033515D01*
X137167278Y-78068000D01*
X137167279Y-78068000D01*
X137387721Y-78068000D01*
X137387722Y-78068000D01*
X137605451Y-78033515D01*
X137815106Y-77965395D01*
X138011522Y-77865315D01*
X138189865Y-77735742D01*
X138345742Y-77579865D01*
X138475315Y-77401522D01*
X138575395Y-77205106D01*
X138643515Y-76995451D01*
X138678000Y-76777722D01*
X138678000Y-76557278D01*
X138643515Y-76339549D01*
X138609455Y-76234721D01*
X138575396Y-76129896D01*
X138575395Y-76129893D01*
X138530152Y-76041101D01*
X138475315Y-75933478D01*
X138385479Y-75809828D01*
X138345747Y-75755141D01*
X138345743Y-75755136D01*
X138295571Y-75704964D01*
X138262086Y-75643641D01*
X138267070Y-75573949D01*
X138308942Y-75518016D01*
X138339920Y-75501101D01*
X138419826Y-75471298D01*
X138419826Y-75471297D01*
X138419831Y-75471296D01*
X138535046Y-75385046D01*
X138621296Y-75269831D01*
X138671591Y-75134983D01*
X138678000Y-75075373D01*
X138677999Y-73179635D01*
X148877000Y-73179635D01*
X148877000Y-75075370D01*
X148877001Y-75075376D01*
X148883408Y-75134983D01*
X148933702Y-75269828D01*
X148933706Y-75269835D01*
X149019952Y-75385044D01*
X149019955Y-75385047D01*
X149135164Y-75471293D01*
X149135171Y-75471297D01*
X149215080Y-75501101D01*
X149271014Y-75542972D01*
X149295431Y-75608436D01*
X149280580Y-75676709D01*
X149259429Y-75704963D01*
X149209256Y-75755136D01*
X149209252Y-75755141D01*
X149079687Y-75933474D01*
X148979604Y-76129893D01*
X148979603Y-76129896D01*
X148911485Y-76339547D01*
X148877000Y-76557278D01*
X148877000Y-76777721D01*
X148911485Y-76995452D01*
X148979603Y-77205103D01*
X148979604Y-77205106D01*
X149079687Y-77401525D01*
X149209252Y-77579858D01*
X149209256Y-77579863D01*
X149365136Y-77735743D01*
X149365141Y-77735747D01*
X149423290Y-77777994D01*
X149543478Y-77865315D01*
X149660976Y-77925184D01*
X149739893Y-77965395D01*
X149739896Y-77965396D01*
X149844721Y-77999455D01*
X149949549Y-78033515D01*
X150167278Y-78068000D01*
X150167279Y-78068000D01*
X150387721Y-78068000D01*
X150387722Y-78068000D01*
X150605451Y-78033515D01*
X150815106Y-77965395D01*
X151011522Y-77865315D01*
X151189865Y-77735742D01*
X151345742Y-77579865D01*
X151475315Y-77401522D01*
X151575395Y-77205106D01*
X151643515Y-76995451D01*
X151678000Y-76777722D01*
X151678000Y-76557278D01*
X151643515Y-76339549D01*
X151609455Y-76234721D01*
X151575396Y-76129896D01*
X151575395Y-76129893D01*
X151530152Y-76041101D01*
X151475315Y-75933478D01*
X151385479Y-75809828D01*
X151345747Y-75755141D01*
X151345743Y-75755136D01*
X151295571Y-75704964D01*
X151262086Y-75643641D01*
X151267070Y-75573949D01*
X151308942Y-75518016D01*
X151339920Y-75501101D01*
X151419826Y-75471298D01*
X151419826Y-75471297D01*
X151419831Y-75471296D01*
X151535046Y-75385046D01*
X151621296Y-75269831D01*
X151671591Y-75134983D01*
X151678000Y-75075373D01*
X151677999Y-73719635D01*
X161877000Y-73719635D01*
X161877000Y-75615370D01*
X161877001Y-75615376D01*
X161883408Y-75674983D01*
X161933702Y-75809828D01*
X161933706Y-75809835D01*
X162019952Y-75925044D01*
X162019955Y-75925047D01*
X162135164Y-76011293D01*
X162135171Y-76011297D01*
X162215080Y-76041101D01*
X162271014Y-76082972D01*
X162295431Y-76148436D01*
X162280580Y-76216709D01*
X162259429Y-76244963D01*
X162209256Y-76295136D01*
X162209252Y-76295141D01*
X162079687Y-76473474D01*
X161979604Y-76669893D01*
X161979603Y-76669896D01*
X161911485Y-76879547D01*
X161877000Y-77097278D01*
X161877000Y-77317721D01*
X161911485Y-77535452D01*
X161979603Y-77745103D01*
X161979604Y-77745106D01*
X162040854Y-77865312D01*
X162071360Y-77925184D01*
X162079687Y-77941525D01*
X162209252Y-78119858D01*
X162209256Y-78119863D01*
X162365136Y-78275743D01*
X162365141Y-78275747D01*
X162487727Y-78364810D01*
X162543478Y-78405315D01*
X162665549Y-78467514D01*
X162739893Y-78505395D01*
X162739896Y-78505396D01*
X162844721Y-78539455D01*
X162949549Y-78573515D01*
X163167278Y-78608000D01*
X163167279Y-78608000D01*
X163387721Y-78608000D01*
X163387722Y-78608000D01*
X163605451Y-78573515D01*
X163815106Y-78505395D01*
X164011522Y-78405315D01*
X164189865Y-78275742D01*
X164345742Y-78119865D01*
X164475315Y-77941522D01*
X164575395Y-77745106D01*
X164643515Y-77535451D01*
X164678000Y-77317722D01*
X164678000Y-77097278D01*
X164643515Y-76879549D01*
X164575395Y-76669894D01*
X164575395Y-76669893D01*
X164523476Y-76567998D01*
X164475315Y-76473478D01*
X164404253Y-76375669D01*
X164345747Y-76295141D01*
X164345743Y-76295136D01*
X164295571Y-76244964D01*
X164262086Y-76183641D01*
X164267070Y-76113949D01*
X164308942Y-76058016D01*
X164339920Y-76041101D01*
X164419826Y-76011298D01*
X164419826Y-76011297D01*
X164419831Y-76011296D01*
X164535046Y-75925046D01*
X164621296Y-75809831D01*
X164671591Y-75674983D01*
X164678000Y-75615373D01*
X164677999Y-73719635D01*
X173877000Y-73719635D01*
X173877000Y-75615370D01*
X173877001Y-75615376D01*
X173883408Y-75674983D01*
X173933702Y-75809828D01*
X173933706Y-75809835D01*
X174019952Y-75925044D01*
X174019955Y-75925047D01*
X174135164Y-76011293D01*
X174135171Y-76011297D01*
X174215080Y-76041101D01*
X174271014Y-76082972D01*
X174295431Y-76148436D01*
X174280580Y-76216709D01*
X174259429Y-76244963D01*
X174209256Y-76295136D01*
X174209252Y-76295141D01*
X174079687Y-76473474D01*
X173979604Y-76669893D01*
X173979603Y-76669896D01*
X173911485Y-76879547D01*
X173877000Y-77097278D01*
X173877000Y-77317721D01*
X173911485Y-77535452D01*
X173979603Y-77745103D01*
X173979604Y-77745106D01*
X174040854Y-77865312D01*
X174071360Y-77925184D01*
X174079687Y-77941525D01*
X174209252Y-78119858D01*
X174209256Y-78119863D01*
X174365136Y-78275743D01*
X174365141Y-78275747D01*
X174487727Y-78364810D01*
X174543478Y-78405315D01*
X174665549Y-78467514D01*
X174739893Y-78505395D01*
X174739896Y-78505396D01*
X174844721Y-78539455D01*
X174949549Y-78573515D01*
X175167278Y-78608000D01*
X175167279Y-78608000D01*
X175387721Y-78608000D01*
X175387722Y-78608000D01*
X175605451Y-78573515D01*
X175815106Y-78505395D01*
X176011522Y-78405315D01*
X176189865Y-78275742D01*
X176345742Y-78119865D01*
X176475315Y-77941522D01*
X176575395Y-77745106D01*
X176643515Y-77535451D01*
X176678000Y-77317722D01*
X176678000Y-77097278D01*
X176643515Y-76879549D01*
X176575395Y-76669894D01*
X176575395Y-76669893D01*
X176523476Y-76567998D01*
X176475315Y-76473478D01*
X176404253Y-76375669D01*
X176345747Y-76295141D01*
X176345743Y-76295136D01*
X176295571Y-76244964D01*
X176262086Y-76183641D01*
X176267070Y-76113949D01*
X176308942Y-76058016D01*
X176339920Y-76041101D01*
X176419826Y-76011298D01*
X176419826Y-76011297D01*
X176419831Y-76011296D01*
X176535046Y-75925046D01*
X176621296Y-75809831D01*
X176671591Y-75674983D01*
X176678000Y-75615373D01*
X176677999Y-73719628D01*
X176671591Y-73660017D01*
X176621296Y-73525169D01*
X176621295Y-73525168D01*
X176621293Y-73525164D01*
X176535047Y-73409955D01*
X176535044Y-73409952D01*
X176419835Y-73323706D01*
X176419828Y-73323702D01*
X176284982Y-73273408D01*
X176284983Y-73273408D01*
X176225383Y-73267001D01*
X176225381Y-73267000D01*
X176225373Y-73267000D01*
X176225364Y-73267000D01*
X174329629Y-73267000D01*
X174329623Y-73267001D01*
X174270016Y-73273408D01*
X174135171Y-73323702D01*
X174135164Y-73323706D01*
X174019955Y-73409952D01*
X174019952Y-73409955D01*
X173933706Y-73525164D01*
X173933702Y-73525171D01*
X173883408Y-73660017D01*
X173877001Y-73719616D01*
X173877001Y-73719623D01*
X173877000Y-73719635D01*
X164677999Y-73719635D01*
X164677999Y-73719628D01*
X164671591Y-73660017D01*
X164621296Y-73525169D01*
X164621295Y-73525168D01*
X164621293Y-73525164D01*
X164535047Y-73409955D01*
X164535044Y-73409952D01*
X164419835Y-73323706D01*
X164419828Y-73323702D01*
X164284982Y-73273408D01*
X164284983Y-73273408D01*
X164225383Y-73267001D01*
X164225381Y-73267000D01*
X164225373Y-73267000D01*
X164225364Y-73267000D01*
X162329629Y-73267000D01*
X162329623Y-73267001D01*
X162270016Y-73273408D01*
X162135171Y-73323702D01*
X162135164Y-73323706D01*
X162019955Y-73409952D01*
X162019952Y-73409955D01*
X161933706Y-73525164D01*
X161933702Y-73525171D01*
X161883408Y-73660017D01*
X161877001Y-73719616D01*
X161877001Y-73719623D01*
X161877000Y-73719635D01*
X151677999Y-73719635D01*
X151677999Y-73179628D01*
X151671591Y-73120017D01*
X151658120Y-73083900D01*
X151621297Y-72985171D01*
X151621293Y-72985164D01*
X151535047Y-72869955D01*
X151535044Y-72869952D01*
X151419835Y-72783706D01*
X151419828Y-72783702D01*
X151284982Y-72733408D01*
X151284983Y-72733408D01*
X151225383Y-72727001D01*
X151225381Y-72727000D01*
X151225373Y-72727000D01*
X151225364Y-72727000D01*
X149329629Y-72727000D01*
X149329623Y-72727001D01*
X149270016Y-72733408D01*
X149135171Y-72783702D01*
X149135164Y-72783706D01*
X149019955Y-72869952D01*
X149019952Y-72869955D01*
X148933706Y-72985164D01*
X148933702Y-72985171D01*
X148883408Y-73120017D01*
X148877001Y-73179616D01*
X148877001Y-73179623D01*
X148877000Y-73179635D01*
X138677999Y-73179635D01*
X138677999Y-73179628D01*
X138671591Y-73120017D01*
X138658120Y-73083900D01*
X138621297Y-72985171D01*
X138621293Y-72985164D01*
X138535047Y-72869955D01*
X138535044Y-72869952D01*
X138419835Y-72783706D01*
X138419828Y-72783702D01*
X138284982Y-72733408D01*
X138284983Y-72733408D01*
X138225383Y-72727001D01*
X138225381Y-72727000D01*
X138225373Y-72727000D01*
X138225364Y-72727000D01*
X136329629Y-72727000D01*
X136329623Y-72727001D01*
X136270016Y-72733408D01*
X136135171Y-72783702D01*
X136135164Y-72783706D01*
X136019955Y-72869952D01*
X136019952Y-72869955D01*
X135933706Y-72985164D01*
X135933702Y-72985171D01*
X135883408Y-73120017D01*
X135877001Y-73179616D01*
X135877001Y-73179623D01*
X135877000Y-73179635D01*
X112460391Y-73179635D01*
X112335626Y-73083900D01*
X112119876Y-72959337D01*
X112119861Y-72959330D01*
X111889707Y-72863998D01*
X111649061Y-72799517D01*
X111402075Y-72767001D01*
X111402070Y-72767000D01*
X111402065Y-72767000D01*
X111152935Y-72767000D01*
X111152929Y-72767000D01*
X111152924Y-72767001D01*
X110905938Y-72799517D01*
X110665292Y-72863998D01*
X110435138Y-72959330D01*
X110435123Y-72959337D01*
X110219373Y-73083900D01*
X110021725Y-73235560D01*
X110021718Y-73235566D01*
X109845566Y-73411718D01*
X109845560Y-73411725D01*
X109693900Y-73609373D01*
X109569337Y-73825123D01*
X109569330Y-73825138D01*
X109473998Y-74055292D01*
X109409517Y-74295938D01*
X109377001Y-74542924D01*
X109377000Y-74542935D01*
X102250000Y-74542935D01*
X102250000Y-69645148D01*
X135977000Y-69645148D01*
X135977000Y-69849851D01*
X136009022Y-70052034D01*
X136072281Y-70246723D01*
X136165215Y-70429113D01*
X136285528Y-70594713D01*
X136430286Y-70739471D01*
X136585249Y-70852056D01*
X136595890Y-70859787D01*
X136712107Y-70919003D01*
X136778276Y-70952718D01*
X136778278Y-70952718D01*
X136778281Y-70952720D01*
X136882637Y-70986627D01*
X136972965Y-71015977D01*
X137074057Y-71031988D01*
X137175148Y-71048000D01*
X137175149Y-71048000D01*
X137379851Y-71048000D01*
X137379852Y-71048000D01*
X137582034Y-71015977D01*
X137776719Y-70952720D01*
X137959110Y-70859787D01*
X138052090Y-70792232D01*
X138124713Y-70739471D01*
X138124715Y-70739468D01*
X138124719Y-70739466D01*
X138269466Y-70594719D01*
X138269468Y-70594715D01*
X138269471Y-70594713D01*
X138327593Y-70514713D01*
X138389787Y-70429110D01*
X138482720Y-70246719D01*
X138545977Y-70052034D01*
X138578000Y-69849852D01*
X138578000Y-69645148D01*
X148977000Y-69645148D01*
X148977000Y-69849851D01*
X149009022Y-70052034D01*
X149072281Y-70246723D01*
X149165215Y-70429113D01*
X149285528Y-70594713D01*
X149430286Y-70739471D01*
X149585249Y-70852056D01*
X149595890Y-70859787D01*
X149712107Y-70919003D01*
X149778276Y-70952718D01*
X149778278Y-70952718D01*
X149778281Y-70952720D01*
X149882637Y-70986627D01*
X149972965Y-71015977D01*
X150074057Y-71031988D01*
X150175148Y-71048000D01*
X150175149Y-71048000D01*
X150379851Y-71048000D01*
X150379852Y-71048000D01*
X150582034Y-71015977D01*
X150776719Y-70952720D01*
X150959110Y-70859787D01*
X151052090Y-70792232D01*
X151124713Y-70739471D01*
X151124715Y-70739468D01*
X151124719Y-70739466D01*
X151269466Y-70594719D01*
X151269468Y-70594715D01*
X151269471Y-70594713D01*
X151327593Y-70514713D01*
X151389787Y-70429110D01*
X151482720Y-70246719D01*
X151545977Y-70052034D01*
X151578000Y-69849852D01*
X151578000Y-69645148D01*
X161977000Y-69645148D01*
X161977000Y-69849851D01*
X162009022Y-70052034D01*
X162072281Y-70246723D01*
X162165215Y-70429113D01*
X162285528Y-70594713D01*
X162430286Y-70739471D01*
X162585249Y-70852056D01*
X162595890Y-70859787D01*
X162712107Y-70919003D01*
X162778276Y-70952718D01*
X162778278Y-70952718D01*
X162778281Y-70952720D01*
X162882637Y-70986627D01*
X162972965Y-71015977D01*
X163074057Y-71031988D01*
X163175148Y-71048000D01*
X163175149Y-71048000D01*
X163379851Y-71048000D01*
X163379852Y-71048000D01*
X163582034Y-71015977D01*
X163776719Y-70952720D01*
X163959110Y-70859787D01*
X164052090Y-70792232D01*
X164124713Y-70739471D01*
X164124715Y-70739468D01*
X164124719Y-70739466D01*
X164269466Y-70594719D01*
X164269468Y-70594715D01*
X164269471Y-70594713D01*
X164327593Y-70514713D01*
X164389787Y-70429110D01*
X164482720Y-70246719D01*
X164545977Y-70052034D01*
X164578000Y-69849852D01*
X164578000Y-69645148D01*
X164565329Y-69565148D01*
X173977000Y-69565148D01*
X173977000Y-69769851D01*
X174009022Y-69972034D01*
X174072281Y-70166723D01*
X174165215Y-70349113D01*
X174285528Y-70514713D01*
X174430286Y-70659471D01*
X174540392Y-70739466D01*
X174595890Y-70779787D01*
X174712107Y-70839003D01*
X174778276Y-70872718D01*
X174778278Y-70872718D01*
X174778281Y-70872720D01*
X174882637Y-70906627D01*
X174972965Y-70935977D01*
X175074057Y-70951988D01*
X175175148Y-70968000D01*
X175175149Y-70968000D01*
X175379851Y-70968000D01*
X175379852Y-70968000D01*
X175582034Y-70935977D01*
X175776719Y-70872720D01*
X175959110Y-70779787D01*
X176052090Y-70712232D01*
X176124713Y-70659471D01*
X176124715Y-70659468D01*
X176124719Y-70659466D01*
X176269466Y-70514719D01*
X176269468Y-70514715D01*
X176269471Y-70514713D01*
X176331664Y-70429110D01*
X176389787Y-70349110D01*
X176482720Y-70166719D01*
X176545977Y-69972034D01*
X176578000Y-69769852D01*
X176578000Y-69565148D01*
X176545977Y-69362966D01*
X176482720Y-69168281D01*
X176482718Y-69168278D01*
X176482718Y-69168276D01*
X176430547Y-69065886D01*
X176389787Y-68985890D01*
X176327593Y-68900286D01*
X176269471Y-68820286D01*
X176124713Y-68675528D01*
X175959113Y-68555215D01*
X175959112Y-68555214D01*
X175959110Y-68555213D01*
X175902153Y-68526191D01*
X175776723Y-68462281D01*
X175582034Y-68399022D01*
X175407495Y-68371378D01*
X175379852Y-68367000D01*
X175175148Y-68367000D01*
X175150829Y-68370851D01*
X174972965Y-68399022D01*
X174778276Y-68462281D01*
X174595886Y-68555215D01*
X174430286Y-68675528D01*
X174285528Y-68820286D01*
X174165215Y-68985886D01*
X174072281Y-69168276D01*
X174009022Y-69362965D01*
X173977000Y-69565148D01*
X164565329Y-69565148D01*
X164545977Y-69442966D01*
X164482720Y-69248281D01*
X164482718Y-69248278D01*
X164482718Y-69248276D01*
X164441955Y-69168276D01*
X164389787Y-69065890D01*
X164382056Y-69055249D01*
X164269471Y-68900286D01*
X164124713Y-68755528D01*
X163959113Y-68635215D01*
X163959112Y-68635214D01*
X163959110Y-68635213D01*
X163902153Y-68606191D01*
X163776723Y-68542281D01*
X163582034Y-68479022D01*
X163407495Y-68451378D01*
X163379852Y-68447000D01*
X163175148Y-68447000D01*
X163150829Y-68450851D01*
X162972965Y-68479022D01*
X162778276Y-68542281D01*
X162595886Y-68635215D01*
X162430286Y-68755528D01*
X162285528Y-68900286D01*
X162165215Y-69065886D01*
X162072281Y-69248276D01*
X162009022Y-69442965D01*
X161977000Y-69645148D01*
X151578000Y-69645148D01*
X151545977Y-69442966D01*
X151482720Y-69248281D01*
X151482718Y-69248278D01*
X151482718Y-69248276D01*
X151441955Y-69168276D01*
X151389787Y-69065890D01*
X151382056Y-69055249D01*
X151269471Y-68900286D01*
X151124713Y-68755528D01*
X150959113Y-68635215D01*
X150959112Y-68635214D01*
X150959110Y-68635213D01*
X150902153Y-68606191D01*
X150776723Y-68542281D01*
X150582034Y-68479022D01*
X150407495Y-68451378D01*
X150379852Y-68447000D01*
X150175148Y-68447000D01*
X150150829Y-68450851D01*
X149972965Y-68479022D01*
X149778276Y-68542281D01*
X149595886Y-68635215D01*
X149430286Y-68755528D01*
X149285528Y-68900286D01*
X149165215Y-69065886D01*
X149072281Y-69248276D01*
X149009022Y-69442965D01*
X148977000Y-69645148D01*
X138578000Y-69645148D01*
X138545977Y-69442966D01*
X138482720Y-69248281D01*
X138482718Y-69248278D01*
X138482718Y-69248276D01*
X138441955Y-69168276D01*
X138389787Y-69065890D01*
X138382056Y-69055249D01*
X138269471Y-68900286D01*
X138124713Y-68755528D01*
X137959113Y-68635215D01*
X137959112Y-68635214D01*
X137959110Y-68635213D01*
X137902153Y-68606191D01*
X137776723Y-68542281D01*
X137582034Y-68479022D01*
X137407495Y-68451378D01*
X137379852Y-68447000D01*
X137175148Y-68447000D01*
X137150829Y-68450851D01*
X136972965Y-68479022D01*
X136778276Y-68542281D01*
X136595886Y-68635215D01*
X136430286Y-68755528D01*
X136285528Y-68900286D01*
X136165215Y-69065886D01*
X136072281Y-69248276D01*
X136009022Y-69442965D01*
X135977000Y-69645148D01*
X102250000Y-69645148D01*
X102250000Y-63498991D01*
X105277000Y-63498991D01*
X105277000Y-63836008D01*
X105314731Y-64170881D01*
X105314733Y-64170897D01*
X105389723Y-64499453D01*
X105389727Y-64499465D01*
X105501032Y-64817554D01*
X105647252Y-65121183D01*
X105647254Y-65121186D01*
X105826554Y-65406539D01*
X106036675Y-65670023D01*
X106274977Y-65908325D01*
X106538461Y-66118446D01*
X106823814Y-66297746D01*
X107127449Y-66443969D01*
X107366348Y-66527563D01*
X107445534Y-66555272D01*
X107445546Y-66555276D01*
X107774106Y-66630267D01*
X108108992Y-66667999D01*
X108108993Y-66668000D01*
X108108996Y-66668000D01*
X108446007Y-66668000D01*
X108446007Y-66667999D01*
X108780894Y-66630267D01*
X109109454Y-66555276D01*
X109427551Y-66443969D01*
X109731186Y-66297746D01*
X110016539Y-66118446D01*
X110280023Y-65908325D01*
X110518325Y-65670023D01*
X110728446Y-65406539D01*
X110907746Y-65121186D01*
X111053969Y-64817551D01*
X111165276Y-64499454D01*
X111240267Y-64170894D01*
X111278000Y-63836004D01*
X111278000Y-63498996D01*
X111277999Y-63498991D01*
X189277000Y-63498991D01*
X189277000Y-63836008D01*
X189314731Y-64170881D01*
X189314733Y-64170897D01*
X189389723Y-64499453D01*
X189389727Y-64499465D01*
X189501032Y-64817554D01*
X189647252Y-65121183D01*
X189647254Y-65121186D01*
X189826554Y-65406539D01*
X190036675Y-65670023D01*
X190274977Y-65908325D01*
X190538461Y-66118446D01*
X190823814Y-66297746D01*
X191127449Y-66443969D01*
X191366348Y-66527563D01*
X191445534Y-66555272D01*
X191445546Y-66555276D01*
X191774106Y-66630267D01*
X192108992Y-66667999D01*
X192108993Y-66668000D01*
X192108996Y-66668000D01*
X192446007Y-66668000D01*
X192446007Y-66667999D01*
X192780894Y-66630267D01*
X193109454Y-66555276D01*
X193427551Y-66443969D01*
X193731186Y-66297746D01*
X194016539Y-66118446D01*
X194280023Y-65908325D01*
X194518325Y-65670023D01*
X194728446Y-65406539D01*
X194907746Y-65121186D01*
X195053969Y-64817551D01*
X195165276Y-64499454D01*
X195240267Y-64170894D01*
X195278000Y-63836004D01*
X195278000Y-63498996D01*
X195240267Y-63164106D01*
X195165276Y-62835546D01*
X195053969Y-62517449D01*
X194907746Y-62213814D01*
X194728446Y-61928461D01*
X194518325Y-61664977D01*
X194280023Y-61426675D01*
X194016539Y-61216554D01*
X193731186Y-61037254D01*
X193731183Y-61037252D01*
X193427554Y-60891032D01*
X193109465Y-60779727D01*
X193109453Y-60779723D01*
X192780897Y-60704733D01*
X192780881Y-60704731D01*
X192446008Y-60667000D01*
X192446004Y-60667000D01*
X192108996Y-60667000D01*
X192108991Y-60667000D01*
X191774118Y-60704731D01*
X191774102Y-60704733D01*
X191445546Y-60779723D01*
X191445534Y-60779727D01*
X191127445Y-60891032D01*
X190823816Y-61037252D01*
X190538462Y-61216553D01*
X190274977Y-61426674D01*
X190036674Y-61664977D01*
X189826553Y-61928462D01*
X189647252Y-62213816D01*
X189501032Y-62517445D01*
X189389727Y-62835534D01*
X189389723Y-62835546D01*
X189314733Y-63164102D01*
X189314731Y-63164118D01*
X189277000Y-63498991D01*
X111277999Y-63498991D01*
X111240267Y-63164106D01*
X111165276Y-62835546D01*
X111053969Y-62517449D01*
X110907746Y-62213814D01*
X110728446Y-61928461D01*
X110518325Y-61664977D01*
X110280023Y-61426675D01*
X110016539Y-61216554D01*
X109731186Y-61037254D01*
X109731183Y-61037252D01*
X109427554Y-60891032D01*
X109109465Y-60779727D01*
X109109453Y-60779723D01*
X108938066Y-60740606D01*
X108780897Y-60704733D01*
X108780881Y-60704731D01*
X108446008Y-60667000D01*
X108446004Y-60667000D01*
X108108996Y-60667000D01*
X108108991Y-60667000D01*
X107774118Y-60704731D01*
X107774102Y-60704733D01*
X107445546Y-60779723D01*
X107445534Y-60779727D01*
X107127445Y-60891032D01*
X106823816Y-61037252D01*
X106538462Y-61216553D01*
X106274977Y-61426674D01*
X106036674Y-61664977D01*
X105826553Y-61928462D01*
X105647252Y-62213816D01*
X105501032Y-62517445D01*
X105389727Y-62835534D01*
X105389723Y-62835546D01*
X105314733Y-63164102D01*
X105314731Y-63164118D01*
X105277000Y-63498991D01*
X102250000Y-63498991D01*
X102250000Y-59485182D01*
X135977500Y-59485182D01*
X135977500Y-59689817D01*
X136009509Y-59891917D01*
X136072744Y-60086531D01*
X136165641Y-60268850D01*
X136165647Y-60268859D01*
X136198023Y-60313421D01*
X136198024Y-60313422D01*
X136877500Y-59633946D01*
X136877500Y-59640161D01*
X136904759Y-59741894D01*
X136957420Y-59833106D01*
X137031894Y-59907580D01*
X137123106Y-59960241D01*
X137224839Y-59987500D01*
X137231053Y-59987500D01*
X136551576Y-60666974D01*
X136596150Y-60699359D01*
X136778468Y-60792255D01*
X136973082Y-60855490D01*
X137175183Y-60887500D01*
X137379817Y-60887500D01*
X137581917Y-60855490D01*
X137776531Y-60792255D01*
X137958849Y-60699359D01*
X138003421Y-60666974D01*
X137323947Y-59987500D01*
X137330161Y-59987500D01*
X137431894Y-59960241D01*
X137523106Y-59907580D01*
X137597580Y-59833106D01*
X137650241Y-59741894D01*
X137677500Y-59640161D01*
X137677500Y-59633947D01*
X138356974Y-60313421D01*
X138389359Y-60268849D01*
X138482255Y-60086531D01*
X138545490Y-59891917D01*
X138577500Y-59689817D01*
X138577500Y-59485182D01*
X148977500Y-59485182D01*
X148977500Y-59689817D01*
X149009509Y-59891917D01*
X149072744Y-60086531D01*
X149165641Y-60268850D01*
X149165647Y-60268859D01*
X149198023Y-60313421D01*
X149198024Y-60313422D01*
X149877500Y-59633946D01*
X149877500Y-59640161D01*
X149904759Y-59741894D01*
X149957420Y-59833106D01*
X150031894Y-59907580D01*
X150123106Y-59960241D01*
X150224839Y-59987500D01*
X150231053Y-59987500D01*
X149551576Y-60666974D01*
X149596150Y-60699359D01*
X149778468Y-60792255D01*
X149973082Y-60855490D01*
X150175183Y-60887500D01*
X150379817Y-60887500D01*
X150581917Y-60855490D01*
X150776531Y-60792255D01*
X150958849Y-60699359D01*
X151003421Y-60666974D01*
X150323947Y-59987500D01*
X150330161Y-59987500D01*
X150431894Y-59960241D01*
X150523106Y-59907580D01*
X150597580Y-59833106D01*
X150650241Y-59741894D01*
X150677500Y-59640161D01*
X150677500Y-59633948D01*
X151356974Y-60313422D01*
X151356974Y-60313421D01*
X151389359Y-60268849D01*
X151482255Y-60086531D01*
X151545490Y-59891917D01*
X151577500Y-59689817D01*
X151577500Y-59485182D01*
X161977500Y-59485182D01*
X161977500Y-59689817D01*
X162009509Y-59891917D01*
X162072744Y-60086531D01*
X162165641Y-60268850D01*
X162165647Y-60268859D01*
X162198023Y-60313421D01*
X162198024Y-60313422D01*
X162877500Y-59633946D01*
X162877500Y-59640161D01*
X162904759Y-59741894D01*
X162957420Y-59833106D01*
X163031894Y-59907580D01*
X163123106Y-59960241D01*
X163224839Y-59987500D01*
X163231053Y-59987500D01*
X162551576Y-60666974D01*
X162596150Y-60699359D01*
X162778468Y-60792255D01*
X162973082Y-60855490D01*
X163175183Y-60887500D01*
X163379817Y-60887500D01*
X163581917Y-60855490D01*
X163776531Y-60792255D01*
X163958849Y-60699359D01*
X164003421Y-60666974D01*
X164003422Y-60666974D01*
X163963844Y-60627396D01*
X163323947Y-59987500D01*
X163330161Y-59987500D01*
X163431894Y-59960241D01*
X163523106Y-59907580D01*
X163597580Y-59833106D01*
X163650241Y-59741894D01*
X163677500Y-59640161D01*
X163677500Y-59633947D01*
X164356974Y-60313421D01*
X164389359Y-60268849D01*
X164482255Y-60086531D01*
X164545490Y-59891917D01*
X164577500Y-59689817D01*
X164577500Y-59485182D01*
X164567131Y-59419714D01*
X164564829Y-59405182D01*
X173977500Y-59405182D01*
X173977500Y-59609817D01*
X174009509Y-59811917D01*
X174072744Y-60006531D01*
X174165641Y-60188850D01*
X174165647Y-60188859D01*
X174198023Y-60233421D01*
X174198024Y-60233422D01*
X174877500Y-59553946D01*
X174877500Y-59560161D01*
X174904759Y-59661894D01*
X174957420Y-59753106D01*
X175031894Y-59827580D01*
X175123106Y-59880241D01*
X175224839Y-59907500D01*
X175231053Y-59907500D01*
X174551576Y-60586974D01*
X174596150Y-60619359D01*
X174778468Y-60712255D01*
X174973082Y-60775490D01*
X175175183Y-60807500D01*
X175379817Y-60807500D01*
X175581917Y-60775490D01*
X175776531Y-60712255D01*
X175958849Y-60619359D01*
X176003421Y-60586974D01*
X175323947Y-59907500D01*
X175330161Y-59907500D01*
X175431894Y-59880241D01*
X175523106Y-59827580D01*
X175597580Y-59753106D01*
X175650241Y-59661894D01*
X175677500Y-59560161D01*
X175677500Y-59553948D01*
X176356974Y-60233422D01*
X176356974Y-60233421D01*
X176389359Y-60188849D01*
X176482255Y-60006531D01*
X176545490Y-59811917D01*
X176577500Y-59609817D01*
X176577500Y-59405182D01*
X176545490Y-59203082D01*
X176482255Y-59008468D01*
X176389359Y-58826150D01*
X176356974Y-58781577D01*
X176356974Y-58781576D01*
X175677500Y-59461051D01*
X175677500Y-59454839D01*
X175650241Y-59353106D01*
X175597580Y-59261894D01*
X175523106Y-59187420D01*
X175431894Y-59134759D01*
X175330161Y-59107500D01*
X175323946Y-59107500D01*
X176003422Y-58428024D01*
X176003421Y-58428023D01*
X175958859Y-58395647D01*
X175958850Y-58395641D01*
X175776531Y-58302744D01*
X175581917Y-58239509D01*
X175379817Y-58207500D01*
X175175183Y-58207500D01*
X174973082Y-58239509D01*
X174778468Y-58302744D01*
X174596144Y-58395643D01*
X174551577Y-58428023D01*
X174551577Y-58428024D01*
X175231054Y-59107500D01*
X175224839Y-59107500D01*
X175123106Y-59134759D01*
X175031894Y-59187420D01*
X174957420Y-59261894D01*
X174904759Y-59353106D01*
X174877500Y-59454839D01*
X174877500Y-59461053D01*
X174198024Y-58781577D01*
X174198023Y-58781577D01*
X174165643Y-58826144D01*
X174072744Y-59008468D01*
X174009509Y-59203082D01*
X173977500Y-59405182D01*
X164564829Y-59405182D01*
X164545490Y-59283082D01*
X164482255Y-59088468D01*
X164389359Y-58906150D01*
X164356974Y-58861577D01*
X164356974Y-58861576D01*
X163677500Y-59541051D01*
X163677500Y-59534839D01*
X163650241Y-59433106D01*
X163597580Y-59341894D01*
X163523106Y-59267420D01*
X163431894Y-59214759D01*
X163330161Y-59187500D01*
X163323946Y-59187500D01*
X164003422Y-58508024D01*
X164003421Y-58508023D01*
X163958859Y-58475647D01*
X163958850Y-58475641D01*
X163776531Y-58382744D01*
X163581917Y-58319509D01*
X163379817Y-58287500D01*
X163175183Y-58287500D01*
X162973082Y-58319509D01*
X162778468Y-58382744D01*
X162596144Y-58475643D01*
X162551577Y-58508023D01*
X162551577Y-58508024D01*
X163231054Y-59187500D01*
X163224839Y-59187500D01*
X163123106Y-59214759D01*
X163031894Y-59267420D01*
X162957420Y-59341894D01*
X162904759Y-59433106D01*
X162877500Y-59534839D01*
X162877500Y-59541053D01*
X162198024Y-58861577D01*
X162198023Y-58861577D01*
X162165643Y-58906144D01*
X162072744Y-59088468D01*
X162009509Y-59283082D01*
X161977500Y-59485182D01*
X151577500Y-59485182D01*
X151545490Y-59283082D01*
X151482255Y-59088468D01*
X151389359Y-58906150D01*
X151356974Y-58861577D01*
X151356974Y-58861576D01*
X150677500Y-59541051D01*
X150677500Y-59534839D01*
X150650241Y-59433106D01*
X150597580Y-59341894D01*
X150523106Y-59267420D01*
X150431894Y-59214759D01*
X150330161Y-59187500D01*
X150323946Y-59187500D01*
X151003422Y-58508024D01*
X151003421Y-58508023D01*
X150958859Y-58475647D01*
X150958850Y-58475641D01*
X150776531Y-58382744D01*
X150581917Y-58319509D01*
X150379817Y-58287500D01*
X150175183Y-58287500D01*
X149973082Y-58319509D01*
X149778468Y-58382744D01*
X149596144Y-58475643D01*
X149551577Y-58508023D01*
X149551577Y-58508024D01*
X150231054Y-59187500D01*
X150224839Y-59187500D01*
X150123106Y-59214759D01*
X150031894Y-59267420D01*
X149957420Y-59341894D01*
X149904759Y-59433106D01*
X149877500Y-59534839D01*
X149877500Y-59541053D01*
X149198024Y-58861577D01*
X149198023Y-58861577D01*
X149165643Y-58906144D01*
X149072744Y-59088468D01*
X149009509Y-59283082D01*
X148977500Y-59485182D01*
X138577500Y-59485182D01*
X138545490Y-59283082D01*
X138482255Y-59088468D01*
X138389359Y-58906150D01*
X138356974Y-58861577D01*
X138356974Y-58861576D01*
X137677500Y-59541051D01*
X137677500Y-59534839D01*
X137650241Y-59433106D01*
X137597580Y-59341894D01*
X137523106Y-59267420D01*
X137431894Y-59214759D01*
X137330161Y-59187500D01*
X137323946Y-59187500D01*
X138003422Y-58508024D01*
X138003421Y-58508023D01*
X137958859Y-58475647D01*
X137958850Y-58475641D01*
X137776531Y-58382744D01*
X137581917Y-58319509D01*
X137379817Y-58287500D01*
X137175183Y-58287500D01*
X136973082Y-58319509D01*
X136778468Y-58382744D01*
X136596144Y-58475643D01*
X136551577Y-58508023D01*
X136551577Y-58508024D01*
X137231054Y-59187500D01*
X137224839Y-59187500D01*
X137123106Y-59214759D01*
X137031894Y-59267420D01*
X136957420Y-59341894D01*
X136904759Y-59433106D01*
X136877500Y-59534839D01*
X136877500Y-59541053D01*
X136198024Y-58861577D01*
X136198023Y-58861577D01*
X136165643Y-58906144D01*
X136072744Y-59088468D01*
X136009509Y-59283082D01*
X135977500Y-59485182D01*
X102250000Y-59485182D01*
X102250000Y-57874000D01*
X102269685Y-57806961D01*
X102322489Y-57761206D01*
X102374000Y-57750000D01*
X198626000Y-57750000D01*
X198693039Y-57769685D01*
G37*
%TD.AperFunction*%
%TD*%
M02*
