M48
; DRILL file {KiCad 9.0.3} date 2025-12-16T09:57:53+0100
; FORMAT={-:-/ absolute / metric / decimal}
; #@! TF.CreationDate,2025-12-16T09:57:53+01:00
; #@! TF.GenerationSoftware,Kicad,Pcbnew,9.0.3
; #@! TF.FileFunction,MixedPlating,1,2
FMAT,2
METRIC
; #@! TA.AperFunction,Plated,PTH,ViaDrill
T1C0.300
; #@! TA.AperFunction,Plated,PTH,ComponentDrill
T2C0.800
; #@! TA.AperFunction,Plated,PTH,ComponentDrill
T3C0.900
; #@! TA.AperFunction,Plated,PTH,ComponentDrill
T4C1.100
; #@! TA.AperFunction,Plated,PTH,ComponentDrill
T5C1.200
; #@! TA.AperFunction,Plated,PTH,ComponentDrill
T6C1.400
; #@! TA.AperFunction,Plated,PTH,ComponentDrill
T7C1.500
; #@! TA.AperFunction,NonPlated,NPTH,ComponentDrill
T8C5.500
%
G90
G05
T1
X132.63Y-96.87
X133.25Y-93.5
X133.75Y-95.75
X135.25Y-93.5
X137.25Y-115.5
X139.25Y-115.5
X142.5Y-91.75
X142.5Y-96.0
X146.97Y-95.96
X147.0Y-93.379
X147.05Y-100.25
X147.75Y-103.3
X147.75Y-104.7
X154.75Y-90.25
X154.75Y-99.25
X155.669Y-83.419
X156.5Y-101.0
X156.75Y-122.75
X158.25Y-124.25
X161.112Y-101.362
X161.123Y-99.373
X162.998Y-97.498
X185.5Y-93.5
X185.5Y-95.0
T2
X105.657Y-96.667
X105.657Y-104.287
X106.277Y-110.667
X108.197Y-96.667
X108.197Y-104.287
X108.277Y-110.667
X110.737Y-96.667
X110.737Y-104.287
X111.75Y-89.25
X113.277Y-96.667
X113.277Y-104.287
X113.75Y-89.25
X129.847Y-87.61
X129.847Y-90.15
X129.847Y-92.69
X129.847Y-95.23
X129.847Y-97.77
X129.847Y-100.31
X129.847Y-102.85
X129.847Y-105.39
X137.278Y-59.587
X137.278Y-69.748
X137.468Y-87.61
X137.468Y-90.15
X137.468Y-92.69
X137.468Y-95.23
X137.468Y-97.77
X137.468Y-100.31
X137.468Y-102.85
X137.468Y-105.39
X144.847Y-87.61
X144.847Y-90.15
X144.847Y-92.69
X144.847Y-95.23
X144.847Y-97.77
X144.847Y-100.31
X144.847Y-102.85
X144.847Y-105.39
X145.98Y-121.667
X145.98Y-123.667
X145.98Y-125.667
X150.278Y-59.587
X150.278Y-69.748
X152.468Y-87.61
X152.468Y-90.15
X152.468Y-92.69
X152.468Y-95.23
X152.468Y-97.77
X152.468Y-100.31
X152.468Y-102.85
X152.468Y-105.39
X153.472Y-119.857
X153.472Y-122.397
X153.472Y-124.938
X153.472Y-127.477
X158.657Y-87.587
X158.657Y-90.127
X158.657Y-92.667
X158.657Y-95.207
X158.657Y-97.748
X158.657Y-100.287
X158.657Y-102.828
X158.657Y-105.367
X161.093Y-119.857
X161.093Y-122.397
X161.093Y-124.938
X161.093Y-127.477
X163.278Y-59.587
X163.278Y-69.748
X166.278Y-87.587
X166.278Y-90.127
X166.278Y-92.667
X166.278Y-95.207
X166.278Y-97.748
X166.278Y-100.287
X166.278Y-102.828
X166.278Y-105.367
X175.278Y-59.508
X175.278Y-69.667
X182.0Y-90.46
X182.0Y-93.0
X182.0Y-95.54
X182.0Y-98.08
X182.0Y-100.62
X187.08Y-90.46
X187.08Y-93.0
X187.08Y-95.54
X187.08Y-98.08
X187.08Y-100.62
T3
X137.278Y-74.127
X137.278Y-76.667
X150.278Y-74.127
X150.278Y-76.667
X163.278Y-74.667
X163.278Y-77.207
X175.278Y-74.667
X175.278Y-77.207
T4
X119.277Y-89.317
X119.277Y-102.017
X123.027Y-121.417
X123.027Y-125.917
X129.528Y-121.417
X129.528Y-125.917
T5
X116.277Y-110.667
X119.277Y-110.667
T6
X111.277Y-74.667
X111.277Y-79.667
T7
X145.98Y-119.567
X145.98Y-127.767
T8
X108.277Y-63.667
X108.277Y-127.667
X192.278Y-63.667
X192.278Y-127.667
M30
