%TF.GenerationSoftware,KiCad,Pcbnew,9.0.3*%
%TF.CreationDate,2025-12-16T09:58:45+01:00*%
%TF.ProjectId,PTP_Jan_Znamenacek_Project1,5054505f-4a61-46e5-9f5a-6e616d656e61,rev?*%
%TF.SameCoordinates,Original*%
%TF.FileFunction,Soldermask,Bot*%
%TF.FilePolarity,Negative*%
%FSLAX46Y46*%
G04 Gerber Fmt 4.6, Leading zero omitted, Abs format (unit mm)*
G04 Created by KiCad (PCBNEW 9.0.3) date 2025-12-16 09:58:45*
%MOMM*%
%LPD*%
G01*
G04 APERTURE LIST*
G04 Aperture macros list*
%AMRoundRect*
0 Rectangle with rounded corners*
0 $1 Rounding radius*
0 $2 $3 $4 $5 $6 $7 $8 $9 X,Y pos of 4 corners*
0 Add a 4 corners polygon primitive as box body*
4,1,4,$2,$3,$4,$5,$6,$7,$8,$9,$2,$3,0*
0 Add four circle primitives for the rounded corners*
1,1,$1+$1,$2,$3*
1,1,$1+$1,$4,$5*
1,1,$1+$1,$6,$7*
1,1,$1+$1,$8,$9*
0 Add four rect primitives between the rounded corners*
20,1,$1+$1,$2,$3,$4,$5,0*
20,1,$1+$1,$4,$5,$6,$7,0*
20,1,$1+$1,$6,$7,$8,$9,0*
20,1,$1+$1,$8,$9,$2,$3,0*%
G04 Aperture macros list end*
%ADD10C,1.600000*%
%ADD11RoundRect,0.250000X-0.550000X-0.550000X0.550000X-0.550000X0.550000X0.550000X-0.550000X0.550000X0*%
%ADD12RoundRect,0.250000X-0.950000X-0.550000X0.950000X-0.550000X0.950000X0.550000X-0.950000X0.550000X0*%
%ADD13O,2.400000X1.600000*%
%ADD14C,2.000000*%
%ADD15RoundRect,0.250001X1.149999X-1.149999X1.149999X1.149999X-1.149999X1.149999X-1.149999X-1.149999X0*%
%ADD16C,2.800000*%
%ADD17C,5.500000*%
%ADD18R,1.800000X1.800000*%
%ADD19C,1.800000*%
%ADD20C,2.400000*%
%ADD21R,1.600000X1.600000*%
%ADD22RoundRect,0.250000X0.550000X-0.550000X0.550000X0.550000X-0.550000X0.550000X-0.550000X-0.550000X0*%
%ADD23RoundRect,0.250000X0.550000X0.550000X-0.550000X0.550000X-0.550000X-0.550000X0.550000X-0.550000X0*%
%ADD24O,3.500000X2.200000*%
%ADD25R,2.500000X1.500000*%
%ADD26O,2.500000X1.500000*%
%ADD27RoundRect,0.249999X0.850001X-0.850001X0.850001X0.850001X-0.850001X0.850001X-0.850001X-0.850001X0*%
%ADD28C,2.200000*%
G04 APERTURE END LIST*
D10*
%TO.C,C2*%
X108277500Y-110667500D03*
D11*
X106277500Y-110667500D03*
%TD*%
D10*
%TO.C,U7*%
X161092500Y-119857500D03*
X161092500Y-122397500D03*
X161092500Y-124937500D03*
X161092500Y-127477500D03*
X153472500Y-127477500D03*
X153472500Y-124937500D03*
X153472500Y-122397500D03*
D11*
X153472500Y-119857500D03*
%TD*%
D12*
%TO.C,U3*%
X129847500Y-87610000D03*
D13*
X129847500Y-90150000D03*
X129847500Y-92690000D03*
X129847500Y-95230000D03*
X129847500Y-97770000D03*
X129847500Y-100310000D03*
X129847500Y-102850000D03*
X129847500Y-105390000D03*
X137467500Y-105390000D03*
X137467500Y-102850000D03*
X137467500Y-100310000D03*
X137467500Y-97770000D03*
X137467500Y-95230000D03*
X137467500Y-92690000D03*
X137467500Y-90150000D03*
X137467500Y-87610000D03*
%TD*%
D14*
%TO.C,SW1*%
X123027500Y-121417500D03*
X129527500Y-121417500D03*
X123027500Y-125917500D03*
X129527500Y-125917500D03*
%TD*%
D15*
%TO.C,J1*%
X111277500Y-79667500D03*
D16*
X111277500Y-74667500D03*
%TD*%
D17*
%TO.C,H2*%
X108277500Y-127667500D03*
%TD*%
D18*
%TO.C,D2*%
X137277500Y-74127500D03*
D19*
X137277500Y-76667500D03*
%TD*%
D18*
%TO.C,D3*%
X163277500Y-74667500D03*
D19*
X163277500Y-77207500D03*
%TD*%
D20*
%TO.C,L1*%
X119277500Y-110667500D03*
X116277500Y-110667500D03*
%TD*%
D10*
%TO.C,R3*%
X163277500Y-69747500D03*
X163277500Y-59587500D03*
%TD*%
D18*
%TO.C,D1*%
X175277500Y-74667500D03*
D19*
X175277500Y-77207500D03*
%TD*%
D12*
%TO.C,U2*%
X158657500Y-87587500D03*
D13*
X158657500Y-90127500D03*
X158657500Y-92667500D03*
X158657500Y-95207500D03*
X158657500Y-97747500D03*
X158657500Y-100287500D03*
X158657500Y-102827500D03*
X158657500Y-105367500D03*
X166277500Y-105367500D03*
X166277500Y-102827500D03*
X166277500Y-100287500D03*
X166277500Y-97747500D03*
X166277500Y-95207500D03*
X166277500Y-92667500D03*
X166277500Y-90127500D03*
X166277500Y-87587500D03*
%TD*%
D12*
%TO.C,U4*%
X144847500Y-87610000D03*
D13*
X144847500Y-90150000D03*
X144847500Y-92690000D03*
X144847500Y-95230000D03*
X144847500Y-97770000D03*
X144847500Y-100310000D03*
X144847500Y-102850000D03*
X144847500Y-105390000D03*
X152467500Y-105390000D03*
X152467500Y-102850000D03*
X152467500Y-100310000D03*
X152467500Y-97770000D03*
X152467500Y-95230000D03*
X152467500Y-92690000D03*
X152467500Y-90150000D03*
X152467500Y-87610000D03*
%TD*%
D21*
%TO.C,U5*%
X182000000Y-90460000D03*
D10*
X182000000Y-93000000D03*
X182000000Y-95540000D03*
X182000000Y-98080000D03*
X182000000Y-100620000D03*
X187080000Y-100620000D03*
X187080000Y-98080000D03*
X187080000Y-95540000D03*
X187080000Y-93000000D03*
X187080000Y-90460000D03*
%TD*%
D17*
%TO.C,H1*%
X108277500Y-63667500D03*
%TD*%
D22*
%TO.C,U1*%
X105657500Y-104287500D03*
D10*
X108197500Y-104287500D03*
X110737500Y-104287500D03*
X113277500Y-104287500D03*
X113277500Y-96667500D03*
X110737500Y-96667500D03*
X108197500Y-96667500D03*
X105657500Y-96667500D03*
%TD*%
D17*
%TO.C,H3*%
X192277500Y-63667500D03*
%TD*%
D18*
%TO.C,D5*%
X150277500Y-74127500D03*
D19*
X150277500Y-76667500D03*
%TD*%
D17*
%TO.C,H4*%
X192277500Y-127667500D03*
%TD*%
D23*
%TO.C,C1*%
X113750000Y-89250000D03*
D10*
X111750000Y-89250000D03*
%TD*%
D24*
%TO.C,SW2*%
X145980000Y-119567500D03*
X145980000Y-127767500D03*
D25*
X145980000Y-121667500D03*
D26*
X145980000Y-123667500D03*
X145980000Y-125667500D03*
%TD*%
D10*
%TO.C,R4*%
X150277500Y-69747500D03*
X150277500Y-59587500D03*
%TD*%
%TO.C,R2*%
X137277500Y-69747500D03*
X137277500Y-59587500D03*
%TD*%
D27*
%TO.C,D4*%
X119277500Y-102017500D03*
D28*
X119277500Y-89317500D03*
%TD*%
D10*
%TO.C,R1*%
X175277500Y-69667500D03*
X175277500Y-59507500D03*
%TD*%
M02*
